<svg version="1.1" xmlns="http://www.w3.org/2000/svg" viewBox="0 0 247.06361896877934 255.8426849373427" width="494.1272379375587" height="511.6853698746854">
  <!-- svg-source:excalidraw -->
  
  <defs>
    <style class="style-fonts">
      @font-face {
        font-family: "Virgil";
        src: url("https://excalidraw.com/Virgil.woff2");
      }
      @font-face {
        font-family: "Cascadia";
        src: url("https://excalidraw.com/Cascadia.woff2");
      }
    </style>
  </defs>
  <g stroke-linecap="round" transform="translate(67.09801376769474 124.24263950920977) rotate(0 7.139735661256736 60.50574197413107)"><path d="M2.77 1.46 L10.85 1.94 L15.87 2.75 L14.49 117.25 L12.31 120.65 L9.98 122.74 L0.36 122.41 L1.5 118.19 L0.73 3.94 L0.27 -0.19 L2.2 -1.55" stroke="none" stroke-width="0" fill="#5c940d"></path><path d="M3.57 0 M3.57 0 C4.79 0.6, 6.76 0.73, 10.71 0 M3.57 0 C5.26 0.1, 6.56 -0.08, 10.71 0 M10.71 0 C12.15 -1.89, 12.29 0.29, 14.28 3.57 M10.71 0 C14.62 -1.79, 14.01 -0.22, 14.28 3.57 M14.28 3.57 C15.83 41.19, 15.84 78.05, 14.28 117.44 M14.28 3.57 C15.04 40.65, 14.51 75.37, 14.28 117.44 M14.28 117.44 C15.08 121.29, 13.62 121.46, 10.71 121.01 M14.28 117.44 C15.45 118.06, 13.82 122.98, 10.71 121.01 M10.71 121.01 C9.61 120.75, 7.62 121.49, 3.57 121.01 M10.71 121.01 C8.26 120.86, 6.17 121, 3.57 121.01 M3.57 121.01 C0.84 121.77, -1.55 119.82, 0 117.44 M3.57 121.01 C-0.5 119.37, 2.21 118.84, 0 117.44 M0 117.44 C-0.7 72.37, -1.12 29.92, 0 3.57 M0 117.44 C0.27 90.88, -1.1 61.88, 0 3.57 M0 3.57 C1.88 2.72, 2.02 0.43, 3.57 0 M0 3.57 C0.44 -0.12, 1.56 -1.25, 3.57 0" stroke="transparent" stroke-width="1" fill="none"></path></g><g stroke-linecap="round" transform="translate(75.9755474678434 133.55554064725675) rotate(337.45693899994166 15.186301493474275 38.20616382232765)"><path d="M11.27 2.01 C13.86 -0.07, 18.8 -0.53, 22.03 3.15 C25.26 6.83, 29.52 16.47, 30.66 24.1 C31.79 31.73, 30.15 41.07, 28.87 48.92 C27.59 56.77, 25.4 66.96, 22.98 71.18 C20.57 75.4, 17.46 75.39, 14.39 74.23 C11.32 73.07, 6.75 70.3, 4.57 64.23 C2.39 58.17, 1.54 45.87, 1.3 37.85 C1.05 29.82, 0.77 22.23, 3.09 16.06 C5.41 9.89, 12.21 2.85, 15.23 0.83 C18.24 -1.18, 20.94 3.7, 21.17 3.96 M12.42 -0.42 C15.29 -1.11, 22.22 4.89, 25.1 9.83 C27.99 14.77, 28.9 21.11, 29.75 29.22 C30.6 37.33, 32.11 51.31, 30.23 58.5 C28.35 65.7, 21.69 69.84, 18.48 72.4 C15.26 74.97, 13.57 76.03, 10.94 73.88 C8.3 71.73, 4.17 66.47, 2.66 59.5 C1.16 52.53, 0.98 40.88, 1.9 32.06 C2.81 23.24, 6.36 12.04, 8.15 6.59 C9.95 1.15, 11.1 0.4, 12.69 -0.61 C14.28 -1.62, 17.62 -0.18, 17.7 0.52" stroke="none" stroke-width="0" fill="#be4bdb"></path><path d="M19.49 3.6 C22.39 6.21, 28.24 13.58, 30.08 20.85 C31.91 28.13, 31.66 39.21, 30.48 47.23 C29.3 55.26, 25.34 64.38, 22.98 68.99 C20.62 73.61, 19.33 75.12, 16.34 74.92 C13.36 74.72, 7.51 73.17, 5.06 67.78 C2.6 62.4, 1.98 50.72, 1.59 42.61 C1.21 34.5, 1.18 26.02, 2.75 19.12 C4.32 12.23, 6.81 0.46, 11.01 1.24 C15.21 2.02, 25.1 14.8, 27.94 23.79 C30.78 32.77, 27.98 54.83, 28.02 55.13 M18.61 0.58 C22.42 2.8, 29.13 11.06, 31.45 18.85 C33.78 26.63, 34.12 39.11, 32.55 47.29 C30.99 55.46, 25.4 63.21, 22.07 67.91 C18.74 72.6, 15.47 75.95, 12.58 75.46 C9.69 74.97, 6.67 70.34, 4.72 64.96 C2.77 59.57, 1.02 50.47, 0.88 43.14 C0.75 35.81, 2.75 28.12, 3.92 20.99 C5.1 13.86, 4.67 3.02, 7.95 0.36 C11.24 -2.31, 21.3 4.4, 23.63 5.01 C25.97 5.63, 22.42 4.15, 21.95 4.07" stroke="transparent" stroke-width="1" fill="none"></path></g><g stroke-linecap="round" transform="translate(92.74456434521085 97.04798767091052) rotate(17.061061687677096 7.422651518245175 60.42117284182905)"><path d="M3.91 14.62 C4.85 7.08, 5.5 3.69, 6.66 1.99 C7.82 0.29, 9.96 0.39, 10.87 4.41 C11.79 8.43, 11.59 16.85, 12.17 26.09 C12.74 35.33, 14 48.89, 14.3 59.85 C14.61 70.8, 14.47 82.9, 13.98 91.83 C13.5 100.75, 12.63 108.87, 11.39 113.38 C10.14 117.89, 8.19 119.68, 6.49 118.9 C4.8 118.12, 2.4 115.17, 1.23 108.71 C0.07 102.25, -0.5 91.13, -0.52 80.14 C-0.53 69.15, -0.31 56.28, 1.13 42.76 C2.56 29.23, 6.14 1.7, 8.08 -1.02 C10.02 -3.74, 12.95 25.11, 12.77 26.43 M3.61 -0.57 C5.03 -3.37, 11.21 2.32, 13.06 6.83 C14.92 11.34, 14.36 18.21, 14.75 26.47 C15.14 34.73, 15.49 45.9, 15.41 56.4 C15.34 66.9, 15.17 79.33, 14.3 89.48 C13.42 99.63, 11.71 112.36, 10.17 117.29 C8.63 122.23, 5.95 120.84, 5.03 119.11 C4.12 117.38, 5.83 113.16, 4.68 106.91 C3.52 100.66, -1.12 92.03, -1.92 81.64 C-2.71 71.25, -0.42 55.49, -0.09 44.57 C0.25 33.66, -1.03 23.05, 0.08 16.16 C1.2 9.26, 6.03 5.36, 6.6 3.23 C7.17 1.09, 3.36 2.41, 3.5 3.36" stroke="none" stroke-width="0" fill="#5c940d"></path><path d="M1.77 14.75 C2.35 6.93, 4.66 1.14, 6.21 -0.5 C7.76 -2.15, 9.54 0.38, 11.07 4.86 C12.61 9.34, 14.52 16.82, 15.42 26.39 C16.32 35.95, 16.64 50.97, 16.47 62.25 C16.3 73.53, 15.34 85.32, 14.4 94.09 C13.46 102.87, 12.37 110.78, 10.84 114.9 C9.32 119.01, 6.89 120.63, 5.25 118.81 C3.6 116.98, 1.63 111.17, 0.98 103.95 C0.33 96.73, 1.57 85.35, 1.35 75.46 C1.12 65.57, -1.34 56.78, -0.36 44.6 C0.62 32.42, 5.71 8.88, 7.25 2.36 C8.78 -4.16, 9.23 4.65, 8.86 5.5 M6.89 -2.42 C7.72 -2.07, 7.56 5.45, 9.16 12.47 C10.76 19.48, 15.64 29.37, 16.49 39.66 C17.34 49.95, 14.76 63.39, 14.24 74.2 C13.73 85.01, 14.21 96.46, 13.42 104.54 C12.62 112.61, 11.05 120.3, 9.48 122.65 C7.91 125, 5.73 123.27, 4.01 118.64 C2.28 114.01, -0.36 104.1, -0.86 94.86 C-1.36 85.61, 0.48 73.74, 1 63.18 C1.52 52.61, 1.79 41.34, 2.24 31.47 C2.69 21.6, 2.51 8.77, 3.72 3.97 C4.93 -0.84, 8.6 2.91, 9.5 2.63 C10.39 2.35, 9.03 2.04, 9.08 2.29" stroke="transparent" stroke-width="1" fill="none"></path></g><g stroke-linecap="round" transform="translate(40.4541520384023 120.64673481067075) rotate(343.09484190136453 12.767565712783835 62.031904592598494)"><path d="M7.99 4.92 C9.6 -0.59, 11.09 -1.91, 13.19 -0.1 C15.3 1.71, 18.6 8.36, 20.62 15.78 C22.63 23.19, 24.42 33.99, 25.28 44.39 C26.13 54.78, 26.46 67.61, 25.77 78.14 C25.07 88.67, 23.2 99.69, 21.1 107.56 C18.99 115.44, 15.54 123.3, 13.12 125.38 C10.7 127.46, 8.28 125.32, 6.57 120.04 C4.86 114.77, 4 103.67, 2.87 93.73 C1.74 83.79, 0.04 71.35, -0.2 60.42 C-0.45 49.48, -1.48 37.05, 1.42 28.1 C4.32 19.16, 13.33 3.31, 17.19 6.75 C21.05 10.19, 24.14 48.16, 24.56 48.74 M7.66 8.87 C9.09 2.16, 11.81 -1.81, 13.98 -1.63 C16.15 -1.45, 19 2.69, 20.68 9.96 C22.36 17.24, 23.54 31.62, 24.04 42.04 C24.54 52.47, 23.71 62.16, 23.68 72.53 C23.66 82.91, 25.59 95.67, 23.88 104.3 C22.17 112.93, 16.05 121.8, 13.44 124.34 C10.84 126.88, 10.42 123.58, 8.25 119.54 C6.08 115.5, 1.72 108.35, 0.44 100.1 C-0.84 91.84, 0.84 80.91, 0.57 70 C0.3 59.09, -2.35 44.61, -1.18 34.64 C-0.01 24.67, 6.63 14.45, 7.6 10.17 C8.57 5.89, 4.32 8.72, 4.66 8.95" stroke="none" stroke-width="0" fill="#5c940d"></path><path d="M14.63 -0.4 C17.14 -0.25, 20.5 4.62, 22.48 11.98 C24.46 19.34, 25.93 32.79, 26.5 43.78 C27.07 54.77, 26.67 67.45, 25.9 77.94 C25.13 88.42, 23.85 99.4, 21.86 106.69 C19.88 113.98, 16.57 119.87, 13.99 121.67 C11.41 123.47, 8.14 121.79, 6.36 117.49 C4.59 113.19, 4.53 104.48, 3.36 95.89 C2.19 87.29, -0.53 76.52, -0.66 65.93 C-0.8 55.35, 1.55 42.56, 2.54 32.4 C3.53 22.23, 2.88 9.1, 5.27 4.94 C7.66 0.78, 14.07 4.89, 16.88 7.44 C19.7 9.99, 22.1 19.64, 22.14 20.25 M4.4 23.48 C5.97 14.27, 5.75 6.31, 7.73 2.5 C9.7 -1.31, 13.79 -2.32, 16.24 0.6 C18.69 3.51, 21.04 11.69, 22.45 19.99 C23.85 28.28, 24.66 39.83, 24.69 50.36 C24.73 60.88, 23.19 72.83, 22.67 83.14 C22.16 93.46, 22.88 105.08, 21.61 112.27 C20.35 119.46, 17.61 125.84, 15.08 126.28 C12.55 126.73, 8.44 120.13, 6.41 114.92 C4.38 109.7, 3.81 104.25, 2.88 95 C1.94 85.76, 0.63 71.38, 0.81 59.46 C0.99 47.55, 3.48 28.57, 3.93 23.51 C4.39 18.45, 4.02 28.11, 3.57 29.11" stroke="transparent" stroke-width="1" fill="none"></path></g><g stroke-linecap="round" transform="translate(36.259058988177 54.28968192357206) rotate(13.912540824884557 31.938664856837704 30.059919865259417)"><path d="M25.44 0.37 C31.56 -1.46, 40.16 -0.01, 46.13 3.09 C52.09 6.19, 58.52 12.96, 61.24 18.96 C63.97 24.96, 64.45 33.12, 62.47 39.08 C60.48 45.04, 55.14 51.39, 49.33 54.73 C43.52 58.06, 34.56 59.69, 27.59 59.1 C20.63 58.52, 12.23 55.72, 7.56 51.21 C2.89 46.7, -0.33 38.78, -0.4 32.04 C-0.47 25.3, 1.46 16.24, 7.14 10.79 C12.82 5.34, 27.93 0.79, 33.69 -0.66 C39.46 -2.12, 41.85 1.41, 41.74 2.07 M27.81 -0.66 C34.35 -1.64, 45.65 2.67, 51.58 6.53 C57.51 10.39, 61.78 16.62, 63.38 22.5 C64.99 28.39, 64.15 36.16, 61.22 41.82 C58.28 47.48, 52.06 53.32, 45.77 56.44 C39.48 59.57, 30.27 62.21, 23.48 60.58 C16.69 58.95, 8.77 52.24, 5.03 46.68 C1.29 41.12, 0.54 33.35, 1.06 27.21 C1.58 21.07, 3.49 14.47, 8.13 9.87 C12.77 5.26, 25.59 1.13, 28.89 -0.41 C32.2 -1.94, 27.86 -0.13, 27.97 0.65" stroke="none" stroke-width="0" fill="#5c940d"></path><path d="M43.82 1.78 C49.87 3.49, 56.36 9.47, 59.46 15.02 C62.57 20.57, 63.65 28.8, 62.46 35.09 C61.28 41.37, 57.64 48.45, 52.36 52.75 C47.07 57.04, 37.64 60.74, 30.77 60.87 C23.91 61, 16.38 58.05, 11.16 53.51 C5.95 48.98, 0.68 40.11, -0.52 33.66 C-1.73 27.22, 0.18 20.21, 3.92 14.84 C7.66 9.47, 14.66 3.33, 21.92 1.45 C29.17 -0.44, 42.73 2.78, 47.47 3.53 C52.22 4.28, 50.67 5.32, 50.39 5.95 M20.3 1.97 C26.26 -0.34, 35.65 0.52, 42.04 2.74 C48.44 4.97, 55.26 10.05, 58.68 15.32 C62.09 20.58, 63.31 28.08, 62.52 34.35 C61.73 40.61, 58.73 48.43, 53.95 52.93 C49.16 57.43, 40.78 61.35, 33.82 61.33 C26.86 61.31, 17.61 56.75, 12.2 52.8 C6.78 48.84, 2.69 43.64, 1.33 37.58 C-0.02 31.52, 0.84 22.52, 4.05 16.44 C7.25 10.36, 17.82 3.16, 20.57 1.1 C23.31 -0.95, 20.63 3.43, 20.52 4.1" stroke="#e67700" stroke-width="1" fill="none"></path></g><g stroke-linecap="round" transform="translate(51.12817572569611 44.522822409499895) rotate(13.912540824884557 6.763481969683312 9.855740551423423)"><path d="M8.07 0.07 C9.33 0.64, 11.27 2.98, 12.19 4.8 C13.11 6.61, 13.67 9.03, 13.59 10.95 C13.52 12.88, 12.81 15, 11.72 16.34 C10.63 17.67, 8.7 18.58, 7.07 18.97 C5.44 19.35, 3.16 19.67, 1.94 18.65 C0.72 17.62, -0.14 15.2, -0.26 12.84 C-0.39 10.48, 0.47 6.61, 1.19 4.48 C1.91 2.35, 2.71 0.65, 4.06 0.04 C5.42 -0.57, 8.37 0.49, 9.32 0.82 C10.28 1.14, 9.8 1.73, 9.78 1.99 M11.31 2.27 C12.88 3.27, 13.28 4.8, 13.64 6.42 C14 8.04, 14 10.16, 13.5 11.99 C12.99 13.81, 11.95 15.85, 10.63 17.36 C9.3 18.88, 7.18 21.34, 5.57 21.08 C3.96 20.82, 1.73 17.66, 0.96 15.8 C0.19 13.94, 1.07 11.76, 0.95 9.94 C0.84 8.11, -0.45 6.54, 0.26 4.83 C0.96 3.13, 3.74 0.33, 5.16 -0.3 C6.58 -0.93, 7.94 0.59, 8.77 1.05 C9.59 1.5, 10.18 2.16, 10.09 2.42" stroke="none" stroke-width="0" fill="#faff6a"></path><path d="M7.45 -0.52 C8.66 -0.39, 10.1 1.02, 11.21 2.62 C12.31 4.23, 13.99 6.71, 14.06 9.1 C14.12 11.5, 12.54 15.11, 11.57 17.01 C10.61 18.91, 9.79 20.43, 8.27 20.51 C6.75 20.59, 3.9 18.65, 2.46 17.5 C1.01 16.36, -0.07 15.5, -0.39 13.63 C-0.71 11.76, -0.03 8.44, 0.55 6.3 C1.12 4.16, 1.71 1.89, 3.05 0.81 C4.38 -0.27, 7.34 -0.49, 8.55 -0.16 C9.76 0.18, 10.34 2.53, 10.32 2.83 M5.14 1.78 C6.3 1.33, 8.01 1.45, 9.1 2.08 C10.19 2.71, 10.9 3.82, 11.69 5.57 C12.48 7.33, 13.9 10.41, 13.87 12.63 C13.83 14.85, 12.73 17.91, 11.46 18.91 C10.19 19.91, 7.69 18.76, 6.25 18.64 C4.8 18.53, 3.76 19.42, 2.8 18.23 C1.83 17.04, 0.62 13.95, 0.45 11.48 C0.29 9.01, 1.03 5.04, 1.82 3.41 C2.61 1.79, 4.9 2.2, 5.2 1.74 C5.51 1.29, 3.56 0.56, 3.67 0.68" stroke="#fab005" stroke-width="1" fill="none"></path></g><g stroke-linecap="round" transform="translate(96.49217721707464 67.67842622436729) rotate(13.912540824884557 7.514979966314854 8.266477962946283)"><path d="M6.1 0.35 C7.74 0.02, 10.05 0.28, 11.54 1.02 C13.02 1.77, 14.51 3.25, 15.01 4.83 C15.51 6.42, 15.28 8.59, 14.52 10.53 C13.75 12.47, 11.9 15.36, 10.42 16.48 C8.93 17.59, 7.01 17.85, 5.62 17.21 C4.23 16.56, 3.04 14.24, 2.09 12.6 C1.13 10.96, -0.01 9.02, -0.1 7.37 C-0.19 5.72, 0.31 3.89, 1.55 2.7 C2.79 1.51, 6.05 0.54, 7.32 0.25 C8.6 -0.03, 8.95 1.02, 9.21 0.98 M6.2 0.6 C7.47 -0.27, 9.59 -0.64, 10.99 -0.07 C12.38 0.49, 13.99 1.97, 14.57 3.97 C15.15 5.96, 15.07 10.14, 14.47 11.87 C13.88 13.6, 12.12 13.63, 11.01 14.34 C9.9 15.06, 9.46 16.05, 7.8 16.17 C6.14 16.3, 2.36 16.38, 1.04 15.1 C-0.28 13.81, 0.01 10.39, -0.13 8.45 C-0.26 6.5, -0.76 4.61, 0.23 3.44 C1.23 2.26, 5.16 1.8, 5.84 1.4 C6.52 1, 4.22 0.92, 4.31 1.03" stroke="none" stroke-width="0" fill="#faff6a"></path><path d="M5.58 -0.86 C7.25 -1.25, 10.47 -0.85, 11.92 0.35 C13.38 1.56, 13.79 4.37, 14.29 6.35 C14.79 8.32, 15.58 10.79, 14.91 12.17 C14.24 13.56, 11.88 13.87, 10.27 14.65 C8.67 15.43, 6.7 17.08, 5.29 16.86 C3.87 16.64, 2.73 14.89, 1.79 13.35 C0.84 11.81, -0.24 9.56, -0.38 7.64 C-0.53 5.72, -0.37 3, 0.9 1.84 C2.18 0.68, 6.04 0.94, 7.26 0.67 C8.49 0.4, 8.29 0.14, 8.26 0.22 M6.54 1.37 C7.81 0.93, 9.25 0.84, 10.7 1.73 C12.15 2.62, 14.55 4.84, 15.25 6.7 C15.96 8.57, 15.72 11.6, 14.93 12.93 C14.14 14.26, 11.98 13.93, 10.53 14.67 C9.08 15.41, 7.69 17.58, 6.23 17.37 C4.78 17.16, 2.7 15.22, 1.8 13.4 C0.89 11.59, 0.65 8.08, 0.79 6.47 C0.93 4.86, 1.81 4.82, 2.63 3.76 C3.45 2.69, 4.84 0.49, 5.69 0.08 C6.54 -0.34, 7.64 1.1, 7.73 1.29" stroke="#fab005" stroke-width="1" fill="none"></path></g><g stroke-linecap="round" transform="translate(34.345652438619254 62.53204353845467) rotate(13.912540824884557 6.763481969683312 7.041833971461074)"><path d="M5.61 -0.05 C7.05 -0.58, 9.18 -0.53, 10.43 0.11 C11.68 0.75, 12.74 2.09, 13.08 3.79 C13.41 5.49, 12.99 8.62, 12.44 10.31 C11.9 11.99, 10.86 13.44, 9.81 13.92 C8.76 14.39, 7.5 13.65, 6.13 13.16 C4.75 12.66, 2.62 11.96, 1.55 10.94 C0.48 9.92, -0.21 8.39, -0.31 7.04 C-0.41 5.69, -0.07 3.92, 0.93 2.85 C1.93 1.77, 4.65 1.2, 5.7 0.61 C6.76 0.02, 7.3 -0.85, 7.26 -0.67 M9.57 -0.35 C10.82 -0.08, 12.38 1.19, 12.97 2.91 C13.55 4.62, 13.56 8.45, 13.09 9.95 C12.61 11.45, 11.06 11.25, 10.13 11.88 C9.2 12.52, 8.99 13.52, 7.49 13.75 C5.98 13.98, 2.36 14.32, 1.1 13.28 C-0.17 12.24, 0.11 9.18, -0.09 7.51 C-0.29 5.83, -0.95 4.25, -0.11 3.25 C0.72 2.24, 3.57 1.83, 4.92 1.47 C6.27 1.11, 7.16 1.07, 7.98 1.1 C8.79 1.12, 9.81 1.63, 9.83 1.61" stroke="none" stroke-width="0" fill="#faff6a"></path><path d="M5.01 -0.42 C6.35 -0.7, 7.44 0.38, 8.78 1.2 C10.11 2.01, 12.4 3.45, 13.02 4.49 C13.65 5.53, 13 6.05, 12.54 7.45 C12.09 8.86, 11.25 11.85, 10.3 12.94 C9.35 14.03, 8.23 14.14, 6.84 13.97 C5.46 13.81, 3.29 13.06, 2 11.94 C0.72 10.82, -0.6 8.53, -0.85 7.23 C-1.11 5.93, -0.37 5.34, 0.48 4.15 C1.32 2.97, 3.46 0.73, 4.19 0.13 C4.93 -0.46, 4.76 0.42, 4.88 0.6 M8.58 0.95 C9.99 1.37, 12.53 3.22, 13.41 4.75 C14.29 6.28, 14.37 8.97, 13.87 10.14 C13.36 11.31, 11.57 10.94, 10.39 11.77 C9.2 12.61, 8.07 15.06, 6.74 15.16 C5.4 15.25, 3.34 13.78, 2.35 12.33 C1.36 10.88, 0.89 7.81, 0.79 6.47 C0.68 5.12, 1.2 5.29, 1.72 4.26 C2.25 3.22, 2.48 0.68, 3.95 0.27 C5.43 -0.15, 9.74 1.62, 10.58 1.76 C11.41 1.9, 9.01 1.14, 8.96 1.12" stroke="#fab005" stroke-width="1" fill="none"></path></g><g stroke-linecap="round" transform="translate(93.08807592806966 93.04781035301039) rotate(13.912540824884557 6.763481969683312 7.942284077048498)"><path d="M7.99 -0.71 C9.34 -0.7, 10.92 0.27, 11.72 1.81 C12.53 3.35, 12.8 6.55, 12.8 8.51 C12.81 10.47, 12.41 12.52, 11.72 13.57 C11.04 14.63, 10.05 14.73, 8.7 14.85 C7.34 14.97, 4.99 14.95, 3.57 14.29 C2.16 13.64, 0.86 12.32, 0.22 10.91 C-0.43 9.5, -0.73 7.35, -0.28 5.84 C0.17 4.32, 1.33 2.9, 2.92 1.82 C4.5 0.74, 8.32 -0.58, 9.22 -0.63 C10.12 -0.69, 8.38 1.15, 8.32 1.49 M7.72 -0.77 C9 -0.32, 10.51 2.65, 11.34 3.89 C12.17 5.14, 12.4 5.3, 12.7 6.7 C13.01 8.1, 14.09 10.64, 13.18 12.29 C12.27 13.95, 8.83 16.27, 7.24 16.64 C5.65 17.02, 4.93 15.47, 3.63 14.54 C2.33 13.62, -0.03 12.37, -0.55 11.08 C-1.07 9.8, 0.15 8.38, 0.52 6.86 C0.9 5.33, 0.42 2.91, 1.68 1.94 C2.94 0.97, 7.27 1.33, 8.08 1.01 C8.88 0.7, 6.42 0.23, 6.53 0.02" stroke="none" stroke-width="0" fill="#faff6a"></path><path d="M3.31 1.65 C4.46 1.11, 7.29 1.02, 8.61 1.12 C9.94 1.23, 10.57 0.99, 11.26 2.26 C11.94 3.54, 12.64 6.95, 12.74 8.77 C12.84 10.6, 12.78 12.11, 11.87 13.2 C10.95 14.3, 8.87 15.27, 7.26 15.35 C5.64 15.42, 3.41 14.37, 2.18 13.64 C0.95 12.92, 0.27 12.47, -0.14 10.99 C-0.54 9.52, -0.84 6.44, -0.26 4.78 C0.32 3.13, 2.61 1.69, 3.34 1.05 C4.07 0.42, 3.82 0.95, 4.12 0.99 M10.17 1.42 C11.73 2.18, 13.01 4.62, 13.49 5.88 C13.98 7.15, 13.44 7.38, 13.06 9 C12.67 10.62, 12.29 14.39, 11.2 15.59 C10.11 16.78, 7.93 16.72, 6.52 16.18 C5.1 15.64, 3.71 13.42, 2.71 12.36 C1.71 11.31, 0.93 11.35, 0.5 9.85 C0.08 8.36, -0.76 4.79, 0.16 3.37 C1.07 1.95, 4.51 1.72, 5.99 1.34 C7.47 0.96, 8.28 1.1, 9.03 1.09 C9.79 1.08, 10.54 1.39, 10.53 1.28" stroke="#fab005" stroke-width="1" fill="none"></path></g><g stroke-linecap="round" transform="translate(69.01897793942408 72.10784090990091) rotate(13.912540824884557 7.514979966314854 8.266477962946283)"><path d="M6.86 -0.7 C8.19 -0.67, 9.86 1.18, 11.11 2.46 C12.36 3.73, 13.74 5.55, 14.35 6.96 C14.95 8.37, 15.38 9.57, 14.76 10.92 C14.13 12.27, 12.17 14.18, 10.59 15.05 C9.01 15.91, 6.89 16.43, 5.26 16.14 C3.62 15.84, 1.68 14.59, 0.78 13.25 C-0.13 11.91, -0.55 10.04, -0.15 8.1 C0.25 6.15, 1.87 2.78, 3.16 1.6 C4.46 0.41, 6.44 1.09, 7.59 0.97 C8.75 0.84, 9.97 0.81, 10.08 0.83 M5.11 1.79 C6.38 1.24, 8.05 -0.42, 9.73 0 C11.41 0.41, 14.54 2.41, 15.2 4.28 C15.86 6.15, 14.23 9.53, 13.67 11.22 C13.1 12.9, 13.1 13.53, 11.81 14.4 C10.51 15.27, 7.43 16.28, 5.9 16.44 C4.36 16.6, 3.77 16.47, 2.58 15.36 C1.39 14.25, -1.14 11.55, -1.26 9.76 C-1.38 7.98, 0.9 6.25, 1.86 4.65 C2.81 3.05, 3.65 1.02, 4.47 0.15 C5.28 -0.71, 6.47 -0.76, 6.74 -0.55" stroke="none" stroke-width="0" fill="#faff6a"></path><path d="M4.86 1.64 C6.13 0.6, 7.38 -0.94, 8.73 -0.52 C10.08 -0.11, 11.91 2.55, 12.97 4.14 C14.04 5.74, 15.21 7.44, 15.11 9.04 C15 10.64, 13.68 12.68, 12.34 13.76 C11 14.84, 8.69 15.21, 7.07 15.52 C5.46 15.83, 3.9 16.51, 2.63 15.61 C1.36 14.71, -0.15 11.9, -0.56 10.13 C-0.97 8.35, -0.79 6.54, 0.16 4.96 C1.1 3.38, 3.96 1.44, 5.12 0.64 C6.27 -0.17, 6.86 0.16, 7.08 0.13 M8.78 1.27 C10.19 1.04, 11.49 0.15, 12.63 1.39 C13.76 2.62, 15.37 6.69, 15.6 8.69 C15.84 10.68, 14.95 12.3, 14.05 13.37 C13.15 14.44, 11.74 14.5, 10.19 15.11 C8.65 15.72, 6.55 17.58, 4.79 17.03 C3.02 16.47, 0.19 13.41, -0.41 11.76 C-1.01 10.12, 0.69 8.84, 1.19 7.18 C1.69 5.51, 1.27 2.92, 2.59 1.79 C3.92 0.66, 8.26 0.85, 9.12 0.4 C9.97 -0.04, 7.99 -0.88, 7.73 -0.87" stroke="#fab005" stroke-width="1" fill="none"></path></g><g stroke-linecap="round" transform="translate(78.9030582358555 51.92288192900651) rotate(13.912540824884557 7.514979966314854 8.266477962946283)"><path d="M3.96 1.57 C5.27 1.1, 7.66 0.99, 9.39 1.23 C11.11 1.47, 13.4 1.78, 14.31 3.03 C15.22 4.27, 15.2 6.8, 14.86 8.68 C14.51 10.55, 13.52 12.93, 12.25 14.28 C10.98 15.62, 8.8 16.59, 7.22 16.77 C5.63 16.95, 3.74 16.61, 2.73 15.35 C1.71 14.08, 1.53 10.85, 1.13 9.18 C0.74 7.52, -0.57 6.78, 0.35 5.35 C1.26 3.92, 5.47 1.44, 6.64 0.61 C7.8 -0.22, 7.53 0.28, 7.33 0.37 M4.69 -0.4 C6.34 -1.25, 10.16 -0.6, 11.57 0.41 C12.98 1.42, 12.63 4.12, 13.14 5.69 C13.65 7.25, 15.04 8.25, 14.64 9.79 C14.24 11.33, 12 13.61, 10.76 14.91 C9.52 16.22, 8.83 17.65, 7.2 17.63 C5.56 17.6, 2.04 16.03, 0.95 14.76 C-0.15 13.5, 0.72 11.93, 0.63 10.04 C0.53 8.15, -0.65 5.21, 0.38 3.42 C1.4 1.62, 5.84 -0.29, 6.79 -0.73 C7.73 -1.18, 6.16 0.43, 6.03 0.75" stroke="none" stroke-width="0" fill="#faff6a"></path><path d="M9.42 -0.26 C10.68 0.19, 12.42 3.15, 13.35 4.83 C14.28 6.51, 15.25 8.26, 14.99 9.84 C14.73 11.41, 13.23 13.34, 11.79 14.29 C10.34 15.23, 7.96 15.4, 6.34 15.53 C4.72 15.67, 3.24 16.13, 2.06 15.1 C0.89 14.07, -0.44 11.15, -0.7 9.34 C-0.96 7.53, -0.43 5.69, 0.51 4.25 C1.46 2.81, 3.1 1.29, 4.97 0.69 C6.83 0.1, 10.5 0.7, 11.7 0.67 C12.89 0.65, 12.3 0.36, 12.13 0.56 M8.9 -0.87 C10.42 -0.63, 12.98 2.69, 14.07 4.32 C15.15 5.96, 15.46 7.55, 15.42 8.94 C15.38 10.34, 14.9 11.22, 13.83 12.69 C12.76 14.15, 10.9 17.31, 8.99 17.74 C7.08 18.18, 3.68 16.27, 2.39 15.28 C1.11 14.3, 1.68 13.49, 1.27 11.85 C0.86 10.21, -0.68 7.19, -0.07 5.44 C0.54 3.68, 3.49 2.36, 4.94 1.31 C6.4 0.26, 8.07 -0.65, 8.67 -0.88 C9.27 -1.11, 8.41 -0.4, 8.52 -0.05" stroke="#fab005" stroke-width="1" fill="none"></path></g><g stroke-linecap="round" transform="translate(28.818453268701887 84.16938061060137) rotate(13.912540824884557 7.5149799663147405 8.266477962946283)"><path d="M4.39 1.39 C5.97 0.38, 8.81 -0.71, 10.38 -0.39 C11.96 -0.07, 13.14 1.65, 13.85 3.29 C14.56 4.92, 14.96 7.52, 14.63 9.43 C14.3 11.34, 13.06 13.47, 11.87 14.74 C10.68 16.02, 8.83 17.23, 7.47 17.08 C6.12 16.94, 5.07 14.92, 3.76 13.87 C2.45 12.82, -0.04 12.33, -0.38 10.79 C-0.72 9.26, 0.68 6.4, 1.7 4.68 C2.72 2.97, 5.07 1.19, 5.73 0.49 C6.4 -0.22, 5.79 0.37, 5.7 0.44 M11.97 0.63 C13.31 1.6, 12.9 4.53, 13.32 6.14 C13.75 7.75, 15 8.76, 14.51 10.27 C14.02 11.77, 11.68 13.97, 10.38 15.19 C9.09 16.41, 8.37 17.7, 6.75 17.57 C5.13 17.44, 1.66 15.74, 0.64 14.41 C-0.39 13.07, 0.6 11.45, 0.6 9.55 C0.6 7.65, -0.46 4.75, 0.64 3.02 C1.74 1.28, 5.41 -0.56, 7.22 -0.85 C9.04 -1.15, 10.84 0.9, 11.52 1.25 C12.2 1.59, 11.63 1.15, 11.29 1.22" stroke="none" stroke-width="0" fill="#faff6a"></path><path d="M10.12 1.37 C11.69 2.15, 13.84 3.43, 14.54 4.9 C15.24 6.37, 14.97 8.63, 14.33 10.18 C13.68 11.73, 12.04 13.03, 10.69 14.19 C9.33 15.35, 7.75 17.2, 6.18 17.14 C4.61 17.08, 2.39 15.16, 1.26 13.81 C0.13 12.47, -0.61 10.77, -0.6 9.06 C-0.59 7.36, 0.09 5.09, 1.3 3.59 C2.52 2.09, 4.69 0.45, 6.68 0.05 C8.67 -0.34, 12.1 0.62, 13.26 1.24 C14.42 1.87, 13.79 3.51, 13.63 3.8 M11.13 1.8 C12.67 2.61, 13.9 3.72, 14.64 4.93 C15.39 6.14, 15.95 7.18, 15.58 9.06 C15.22 10.94, 14.06 14.96, 12.45 16.21 C10.84 17.46, 7.47 16.7, 5.94 16.55 C4.41 16.41, 4.34 16.51, 3.25 15.33 C2.16 14.16, -0.41 11.38, -0.59 9.5 C-0.77 7.62, 1.25 5.76, 2.17 4.05 C3.09 2.35, 3.64 -0.11, 4.94 -0.74 C6.24 -1.36, 8.97 -0.01, 9.96 0.29 C10.94 0.58, 10.84 0.74, 10.84 1.03" stroke="#fab005" stroke-width="1" fill="none"></path></g><g stroke-linecap="round" transform="translate(69.1076673150692 109.13845169066826) rotate(13.912540824884557 7.514979966314854 8.266477962946283)"><path d="M11.42 0.1 C12.88 0.53, 13.87 2.64, 14.36 4.4 C14.85 6.16, 14.93 8.8, 14.37 10.65 C13.8 12.49, 12.3 14.43, 10.96 15.49 C9.62 16.55, 7.68 17.42, 6.34 17.01 C5.01 16.6, 4.08 14.26, 2.93 13.02 C1.79 11.78, -0.41 11.12, -0.51 9.56 C-0.62 7.99, 1.22 5.17, 2.32 3.64 C3.43 2.11, 4.7 0.77, 6.11 0.38 C7.52 0, 9.95 1.16, 10.78 1.32 C11.6 1.47, 10.87 1.33, 11.06 1.33 M4.62 1.22 C5.91 0.69, 9.28 -0.27, 10.73 0.35 C12.17 0.96, 12.57 3.01, 13.28 4.91 C13.99 6.81, 15.46 9.94, 14.97 11.75 C14.48 13.56, 11.63 14.81, 10.34 15.76 C9.05 16.71, 8.78 17.78, 7.24 17.45 C5.7 17.12, 2.1 15.39, 1.11 13.77 C0.12 12.14, 1.16 9.41, 1.3 7.72 C1.45 6.03, 1.18 4.85, 1.98 3.63 C2.78 2.4, 5.67 0.88, 6.11 0.34 C6.55 -0.2, 4.53 0.1, 4.63 0.38" stroke="none" stroke-width="0" fill="#faff6a"></path><path d="M4.54 0.62 C5.96 -0.32, 7.79 -0.49, 9.16 -0.16 C10.53 0.17, 11.88 0.96, 12.77 2.61 C13.67 4.26, 14.67 7.84, 14.54 9.75 C14.41 11.66, 13.16 12.88, 11.99 14.06 C10.81 15.25, 8.98 16.64, 7.47 16.84 C5.96 17.04, 4 16.37, 2.94 15.26 C1.88 14.14, 1.33 12.03, 1.12 10.14 C0.9 8.26, 0.99 5.51, 1.63 3.97 C2.28 2.43, 4.31 1.4, 4.98 0.89 C5.65 0.39, 5.5 0.91, 5.66 0.95 M5.31 0.84 C6.75 -0.21, 9.3 -1.42, 10.83 -0.66 C12.35 0.09, 13.99 3.66, 14.49 5.39 C14.99 7.12, 14.02 8, 13.82 9.71 C13.62 11.42, 14.44 14.47, 13.29 15.66 C12.14 16.86, 8.52 16.96, 6.91 16.85 C5.29 16.74, 4.83 16.35, 3.62 14.99 C2.41 13.62, 0.19 10.53, -0.34 8.66 C-0.87 6.79, -0.52 5.08, 0.42 3.75 C1.36 2.43, 4.58 1.11, 5.29 0.69 C6.01 0.27, 4.92 1.14, 4.71 1.23" stroke="#fab005" stroke-width="1" fill="none"></path></g><g stroke-linecap="round" transform="translate(53.41117716670851 74.83808027093073) rotate(13.912540824884557 7.514979966314854 8.266477962946283)"><path d="M10.45 -0.01 C11.77 0.7, 13.32 2.76, 13.95 4.51 C14.58 6.26, 14.59 8.66, 14.23 10.49 C13.86 12.32, 12.81 14.63, 11.77 15.49 C10.72 16.36, 9.64 15.74, 7.97 15.69 C6.31 15.63, 2.98 16.19, 1.79 15.17 C0.59 14.15, 0.86 11.45, 0.81 9.57 C0.76 7.68, 0.81 5.36, 1.49 3.85 C2.16 2.34, 3.3 0.96, 4.86 0.49 C6.42 0.01, 9.47 0.84, 10.84 0.98 C12.2 1.12, 13.08 1.09, 13.02 1.35 M6.54 -0.48 C8.05 -0.95, 9.15 0.06, 10.55 1.31 C11.96 2.57, 14.56 5.26, 14.99 7.07 C15.41 8.88, 13.68 10.58, 13.09 12.18 C12.5 13.78, 12.82 15.99, 11.44 16.65 C10.05 17.3, 6.24 16.87, 4.79 16.12 C3.35 15.36, 3.46 13.47, 2.75 12.12 C2.04 10.77, 0.57 9.59, 0.51 8.02 C0.46 6.45, 1.59 4, 2.42 2.67 C3.25 1.34, 4.67 0.28, 5.51 0.05 C6.35 -0.19, 7.47 1.16, 7.46 1.26" stroke="none" stroke-width="0" fill="#faff6a"></path><path d="M8.92 -0.23 C10.25 -0.08, 11.69 0.77, 12.63 2.38 C13.57 4, 14.64 7.56, 14.56 9.47 C14.49 11.39, 13.3 12.64, 12.16 13.87 C11.02 15.09, 9.22 16.56, 7.72 16.82 C6.22 17.07, 4.24 16.48, 3.15 15.41 C2.06 14.35, 1.45 12.28, 1.18 10.41 C0.91 8.55, 0.99 5.76, 1.53 4.22 C2.06 2.68, 2.95 1.77, 4.38 1.18 C5.8 0.6, 9.02 0.85, 10.08 0.73 C11.15 0.61, 10.99 0.33, 10.77 0.47 M10.98 -0.6 C12.46 0.07, 14.1 3.8, 14.57 5.55 C15.04 7.3, 14.03 8.18, 13.79 9.89 C13.56 11.6, 14.34 14.62, 13.16 15.78 C11.98 16.94, 8.35 17, 6.74 16.85 C5.13 16.7, 4.67 16.26, 3.49 14.87 C2.31 13.47, 0.13 10.36, -0.37 8.48 C-0.86 6.6, -0.46 4.9, 0.51 3.6 C1.48 2.29, 3.88 1.05, 5.45 0.63 C7.03 0.22, 9.36 1.11, 9.95 1.12 C10.54 1.13, 9.19 0.85, 9 0.7" stroke="#fab005" stroke-width="1" fill="none"></path></g><g stroke-linecap="round" transform="translate(38.99975475880137 29.8591726798295) rotate(346.8816805650427 4.763996618002011 17.411668495650247)"><path d="M2.51 1.39 C3.29 -0.09, 4.49 -0.22, 5.49 0.92 C6.5 2.05, 7.7 5.31, 8.53 8.22 C9.36 11.13, 10.63 14.62, 10.47 18.4 C10.3 22.17, 8.32 28.07, 7.55 30.87 C6.79 33.67, 6.76 35.06, 5.86 35.2 C4.97 35.33, 3.23 33.93, 2.18 31.69 C1.13 29.46, -0.05 25.47, -0.43 21.79 C-0.8 18.11, -0.95 13.27, -0.06 9.59 C0.83 5.91, 4.13 1.15, 4.92 -0.28 C5.7 -1.71, 4.83 0.78, 4.65 1.03 M5.18 0.87 C6.18 2.08, 8.61 6.24, 9.1 9.55 C9.6 12.86, 8.27 17.05, 8.16 20.71 C8.06 24.37, 9.19 29.19, 8.49 31.51 C7.78 33.84, 4.82 34.91, 3.91 34.64 C3.01 34.38, 3.61 32.18, 3.06 29.91 C2.51 27.65, 0.94 24.51, 0.59 21.04 C0.23 17.57, 0.72 12.41, 0.93 9.1 C1.15 5.79, 0.85 2.34, 1.87 1.16 C2.89 -0.02, 6.55 2.01, 7.06 1.99 C7.56 1.98, 5.04 0.89, 4.9 1.06" stroke="none" stroke-width="0" fill="#5c940d"></path><path d="M3.56 -0.97 C4.51 -1.2, 6.33 1.76, 7.17 4.15 C8.02 6.53, 8.42 9.76, 8.62 13.34 C8.83 16.91, 8.77 22.22, 8.4 25.61 C8.04 29, 7.13 32.31, 6.44 33.7 C5.75 35.08, 5.06 35.16, 4.27 33.91 C3.47 32.66, 2.34 29.26, 1.66 26.22 C0.99 23.18, 0.17 19.19, 0.22 15.67 C0.26 12.14, 0.94 7.71, 1.94 5.09 C2.93 2.48, 5.6 0.58, 6.18 -0.01 C6.77 -0.61, 5.49 1.18, 5.46 1.54 M5.77 1.39 C6.43 1.76, 6.34 2.77, 7.12 5.44 C7.89 8.11, 10.3 13.63, 10.44 17.4 C10.58 21.17, 8.57 25.18, 7.96 28.06 C7.35 30.94, 7.76 34.05, 6.8 34.7 C5.83 35.35, 3.35 33.72, 2.19 31.94 C1.03 30.15, 0.1 27.19, -0.17 23.98 C-0.44 20.77, 0.23 16.1, 0.57 12.69 C0.91 9.27, 1.27 5.58, 1.86 3.48 C2.46 1.38, 3.75 0.79, 4.13 0.11 C4.52 -0.58, 3.75 -0.8, 4.18 -0.62" stroke="#862e9c" stroke-width="1" fill="none"></path></g><g stroke-linecap="round" transform="translate(69.60749902083307 21.424027262384698) rotate(17.380770083802506 6.251608492507444 18.979340966382097)"><path d="M3.49 1.44 C4.67 -0.03, 6.65 0.46, 8.17 1.65 C9.69 2.83, 11.99 4.97, 12.61 8.54 C13.23 12.11, 12.15 18.86, 11.9 23.08 C11.64 27.29, 11.97 31.33, 11.07 33.84 C10.17 36.36, 8.07 38.16, 6.51 38.15 C4.95 38.14, 2.86 36.42, 1.7 33.77 C0.54 31.11, -0.46 26.33, -0.44 22.21 C-0.43 18.1, 1.02 12.56, 1.79 9.07 C2.55 5.59, 3.61 2.83, 4.14 1.3 C4.66 -0.22, 4.74 -0.28, 4.95 -0.1 M5.41 1.41 C6.62 0.61, 6.84 1.11, 8.06 3.11 C9.27 5.11, 12.19 9.73, 12.71 13.42 C13.24 17.11, 11.53 21.76, 11.19 25.25 C10.85 28.74, 11.6 32.24, 10.68 34.36 C9.76 36.48, 7.16 38.47, 5.68 37.97 C4.2 37.46, 2.95 34.49, 1.81 31.33 C0.66 28.17, -1.25 22.93, -1.18 19.02 C-1.12 15.11, 1.37 11.02, 2.2 7.86 C3.03 4.71, 3.27 1.21, 3.78 0.08 C4.28 -1.04, 5.04 0.97, 5.26 1.12" stroke="none" stroke-width="0" fill="#5c940d"></path><path d="M4.34 1.19 C5.59 0.2, 7.09 0.12, 8.26 1.88 C9.43 3.64, 10.74 7.95, 11.37 11.75 C12 15.54, 12.18 20.83, 12.05 24.65 C11.92 28.46, 11.52 32.56, 10.58 34.64 C9.65 36.72, 7.88 37.5, 6.43 37.12 C4.98 36.74, 2.9 35.14, 1.9 32.37 C0.9 29.61, 0.42 24.66, 0.44 20.52 C0.47 16.38, 1.35 10.86, 2.05 7.54 C2.76 4.21, 3.9 1.73, 4.68 0.58 C5.45 -0.56, 6.55 0.33, 6.72 0.66 M2.81 1.42 C4.04 -0.29, 7.75 0.71, 9.11 2.02 C10.46 3.32, 10.21 5.91, 10.92 9.24 C11.62 12.57, 13.51 18.19, 13.35 21.99 C13.2 25.78, 11.22 29.42, 9.98 32.01 C8.73 34.61, 7.1 37.19, 5.9 37.54 C4.7 37.89, 3.78 36.46, 2.78 34.12 C1.77 31.78, 0.41 27.5, -0.13 23.49 C-0.66 19.48, -0.92 13.93, -0.43 10.07 C0.06 6.2, 1.84 1.81, 2.81 0.31 C3.78 -1.19, 4.97 0.51, 5.4 1.09" stroke="#862e9c" stroke-width="1" fill="none"></path></g><g stroke-linecap="round" transform="translate(98.32094426913682 39.1670734755744) rotate(44.32362209201035 5.494707460009863 17.708023949494418)"><path d="M5 0.58 C6.37 -0.03, 8.85 0.35, 9.74 2.68 C10.63 5.01, 10.08 10.67, 10.32 14.57 C10.56 18.47, 11.57 22.81, 11.17 26.07 C10.76 29.34, 9.19 32.7, 7.88 34.16 C6.58 35.62, 4.6 35.98, 3.35 34.83 C2.09 33.68, 0.75 30.52, 0.36 27.24 C-0.03 23.95, 0.86 18.74, 1.01 15.11 C1.16 11.48, 0.53 8.1, 1.26 5.46 C1.99 2.81, 4.49 0.09, 5.4 -0.76 C6.31 -1.61, 6.74 0.05, 6.72 0.35 M4.05 0.59 C5.22 0.25, 8.53 2.59, 9.51 4.83 C10.49 7.06, 9.59 10.63, 9.94 14.01 C10.29 17.4, 11.94 21.72, 11.61 25.13 C11.29 28.54, 9.26 32.9, 8 34.48 C6.75 36.06, 5.48 35.87, 4.08 34.62 C2.69 33.36, 0.17 30.03, -0.37 26.95 C-0.92 23.87, 0.66 19.92, 0.81 16.13 C0.95 12.34, -0.29 6.84, 0.48 4.23 C1.25 1.61, 4.66 1.3, 5.44 0.46 C6.22 -0.38, 5.02 -1.13, 5.16 -0.81" stroke="none" stroke-width="0" fill="#5c940d"></path><path d="M2.09 2.03 C3.01 0.06, 4.73 -0.13, 5.98 0.69 C7.23 1.51, 8.62 4.07, 9.6 6.96 C10.58 9.84, 11.72 14.37, 11.87 18 C12.02 21.63, 11.4 25.8, 10.5 28.72 C9.6 31.65, 7.73 34.81, 6.49 35.55 C5.25 36.3, 3.95 35.26, 3.06 33.19 C2.16 31.13, 1.67 26.78, 1.11 23.18 C0.55 19.58, -0.77 15.14, -0.32 11.62 C0.12 8.11, 3.16 3.64, 3.8 2.09 C4.44 0.55, 3.73 2.1, 3.52 2.37 M8.7 2.68 C9.82 4.02, 9.31 7.11, 9.82 10.41 C10.32 13.72, 11.99 19.08, 11.73 22.52 C11.46 25.96, 9.43 28.99, 8.22 31.06 C7.02 33.13, 5.52 35.05, 4.49 34.96 C3.45 34.87, 2.8 33.02, 2.02 30.52 C1.23 28.02, 0.13 23.77, -0.24 19.97 C-0.61 16.16, -0.72 11.07, -0.19 7.67 C0.33 4.27, 1.36 0.69, 2.93 -0.43 C4.49 -1.55, 8.21 0.46, 9.22 0.96 C10.23 1.46, 9.47 2.22, 8.98 2.57" stroke="#862e9c" stroke-width="1" fill="none"></path></g><g stroke-linecap="round" transform="translate(17.508240617062256 57.906029209397275) rotate(285.9951061046154 7.3594718377207755 15.321944002239434)"><path d="M9.21 -0.71 C10.66 -0.47, 11.17 3.2, 12.22 5.8 C13.26 8.41, 15.27 11.77, 15.47 14.92 C15.68 18.07, 14.62 22.14, 13.45 24.72 C12.28 27.3, 10.12 29.73, 8.45 30.41 C6.79 31.08, 4.63 30.39, 3.48 28.78 C2.33 27.18, 2.16 23.67, 1.56 20.78 C0.95 17.9, -0.41 14.67, -0.15 11.49 C0.11 8.31, 1.52 3.6, 3.13 1.71 C4.73 -0.17, 8.49 0.46, 9.46 0.19 C10.43 -0.07, 9.1 -0.19, 8.95 0.11 M10.63 2.02 C12.12 2.85, 12.01 5.25, 12.88 7.8 C13.75 10.35, 15.94 14.01, 15.87 17.3 C15.8 20.6, 13.84 25.34, 12.45 27.58 C11.06 29.82, 9.38 30.88, 7.52 30.76 C5.66 30.63, 2.43 28.84, 1.31 26.82 C0.2 24.81, 1.1 21.95, 0.83 18.67 C0.56 15.39, -1.01 10.04, -0.3 7.14 C0.41 4.23, 3.4 2.46, 5.09 1.26 C6.78 0.05, 8.87 -0.23, 9.84 -0.11 C10.82 0, 11.1 1.66, 10.93 1.95" stroke="none" stroke-width="0" fill="#5c940d"></path><path d="M9.15 1.17 C10.7 2.07, 12.42 4.99, 13.48 7.72 C14.54 10.45, 15.58 14.49, 15.51 17.57 C15.44 20.65, 14.38 23.95, 13.07 26.18 C11.76 28.42, 9.32 30.74, 7.66 30.97 C6.01 31.21, 4.27 29.75, 3.15 27.6 C2.04 25.45, 1.45 21.3, 0.96 18.08 C0.47 14.86, -0.53 11.08, 0.22 8.28 C0.97 5.48, 3.76 2.37, 5.47 1.28 C7.17 0.18, 9.7 1.55, 10.43 1.7 C11.15 1.85, 9.74 2.16, 9.8 2.19 M6.81 0.32 C8.31 0.04, 11.85 2.17, 13.07 4.08 C14.3 5.99, 14.16 8.67, 14.16 11.78 C14.17 14.89, 13.78 19.71, 13.11 22.74 C12.45 25.77, 11.6 28.72, 10.17 29.97 C8.73 31.22, 6.23 31.42, 4.49 30.22 C2.76 29.03, 0.69 25.95, -0.22 22.81 C-1.13 19.68, -1.7 14.73, -0.98 11.4 C-0.25 8.07, 2.53 4.61, 4.14 2.82 C5.76 1.03, 8.36 1.09, 8.7 0.65 C9.04 0.2, 6.58 0.08, 6.19 0.15" stroke="#862e9c" stroke-width="1" fill="none"></path></g><g stroke-linecap="round" transform="translate(31.330891241770587 98.0644408088283) rotate(235.7327107050212 7.451524523516127 14.416433853851686)"><path d="M8.95 1.48 C10.41 2.31, 13.35 4.29, 14.38 6.72 C15.4 9.15, 15.46 13.02, 15.08 16.05 C14.7 19.08, 13.35 22.81, 12.08 24.9 C10.81 27, 8.79 28.48, 7.46 28.6 C6.12 28.71, 5.35 27.24, 4.07 25.58 C2.79 23.91, 0.35 21.63, -0.24 18.59 C-0.83 15.56, -0.36 10.29, 0.52 7.38 C1.4 4.48, 3.47 2.33, 5.05 1.17 C6.64 0.01, 9.03 0.2, 10.04 0.42 C11.06 0.63, 11 2.25, 11.14 2.45 M7.97 0.1 C9.59 0.16, 13.32 1.87, 14.55 4.36 C15.79 6.84, 15.59 11.74, 15.4 15.02 C15.21 18.3, 14.72 21.77, 13.39 24.04 C12.06 26.31, 8.91 28.04, 7.4 28.66 C5.89 29.29, 5.73 29.43, 4.33 27.79 C2.93 26.15, -0.36 21.86, -0.98 18.84 C-1.61 15.81, -0.19 12.68, 0.59 9.64 C1.36 6.61, 2.13 2.07, 3.67 0.61 C5.22 -0.85, 9.14 1.03, 9.85 0.88 C10.56 0.73, 8.02 -0.4, 7.92 -0.29" stroke="none" stroke-width="0" fill="#5c940d"></path><path d="M6.82 0.3 C8.58 -0.14, 11.32 1.01, 12.78 2.69 C14.25 4.37, 15.34 7.29, 15.59 10.38 C15.84 13.47, 15.09 18.27, 14.29 21.22 C13.5 24.16, 12.2 26.9, 10.84 28.04 C9.48 29.18, 7.86 28.96, 6.14 28.08 C4.42 27.19, 1.41 25.25, 0.52 22.74 C-0.37 20.23, 0.45 16.06, 0.79 13.01 C1.13 9.96, 1.57 6.56, 2.56 4.44 C3.55 2.33, 5.69 1.13, 6.74 0.32 C7.79 -0.49, 8.71 -0.7, 8.84 -0.41 M11 1.3 C12.48 1.94, 12.96 3.73, 13.49 6.3 C14.03 8.86, 14.36 13.45, 14.2 16.7 C14.04 19.94, 13.73 23.65, 12.54 25.76 C11.36 27.88, 8.95 29.47, 7.09 29.4 C5.24 29.33, 2.78 27.63, 1.43 25.34 C0.08 23.05, -1.18 18.82, -1.01 15.67 C-0.83 12.51, 1.28 8.78, 2.49 6.41 C3.7 4.04, 5.19 2.39, 6.24 1.45 C7.3 0.52, 8.38 0.9, 8.83 0.78 C9.29 0.66, 8.83 0.63, 8.97 0.73" stroke="#862e9c" stroke-width="1" fill="none"></path></g><g stroke-linecap="round" transform="translate(52.62682676633585 107.5179381819471) rotate(189.29261734322472 8.513842150294636 16.57413748426552)"><path d="M5.86 1.81 C7.53 0.14, 9.59 -0.1, 11.12 0.86 C12.65 1.81, 14.15 4.65, 15.03 7.54 C15.92 10.43, 16.38 14.79, 16.43 18.2 C16.49 21.62, 16.67 25.43, 15.36 28.02 C14.06 30.61, 10.61 33.56, 8.59 33.75 C6.57 33.94, 4.53 31.39, 3.25 29.16 C1.97 26.93, 1.36 23.84, 0.9 20.39 C0.45 16.94, -0.57 11.82, 0.53 8.47 C1.63 5.12, 5.77 1.74, 7.48 0.28 C9.18 -1.17, 10.67 -0.59, 10.76 -0.27 M12.51 -0.18 C14.43 0.77, 15.48 4.99, 16.27 8.21 C17.07 11.43, 17.82 15.69, 17.27 19.15 C16.72 22.61, 14.27 26.48, 12.97 28.99 C11.67 31.5, 11.34 34.14, 9.48 34.19 C7.62 34.25, 3.37 31.64, 1.83 29.33 C0.3 27.02, 0.42 23.96, 0.25 20.32 C0.09 16.69, -0.18 10.59, 0.84 7.49 C1.85 4.4, 4.77 3.01, 6.34 1.76 C7.91 0.51, 9.38 0.13, 10.26 0.01 C11.15 -0.11, 11.47 0.47, 11.63 1.06" stroke="none" stroke-width="0" fill="#5c940d"></path><path d="M10.81 0.06 C12.72 0.25, 14.81 2.32, 15.88 5.11 C16.95 7.89, 17.27 13.04, 17.21 16.77 C17.15 20.51, 16.57 24.85, 15.51 27.51 C14.46 30.17, 12.87 32.08, 10.88 32.72 C8.9 33.37, 5.21 33.07, 3.61 31.39 C2.01 29.71, 1.75 25.94, 1.27 22.63 C0.79 19.32, 0.35 14.88, 0.71 11.54 C1.07 8.2, 1.65 4.57, 3.43 2.61 C5.21 0.64, 10.11 -0.11, 11.39 -0.26 C12.67 -0.4, 11.16 1.41, 11.11 1.73 M8.96 -0.98 C10.45 -0.96, 12.67 1.91, 14.08 4.67 C15.48 7.44, 17.21 11.92, 17.38 15.63 C17.56 19.34, 16.46 24.07, 15.13 26.91 C13.8 29.75, 11.31 32.08, 9.4 32.66 C7.49 33.24, 4.87 32.06, 3.67 30.39 C2.46 28.72, 2.52 25.61, 2.17 22.65 C1.83 19.69, 1.53 15.96, 1.58 12.63 C1.64 9.3, 1.38 4.83, 2.51 2.66 C3.63 0.5, 7.23 0.14, 8.35 -0.38 C9.47 -0.89, 9 -0.76, 9.23 -0.45" stroke="#862e9c" stroke-width="1" fill="none"></path></g><g stroke-linecap="round" transform="translate(90.39056067664569 104.9229627679997) rotate(346.8816805650427 7.233560741027645 17.60987461224886)"><path d="M10.72 2.1 C11.85 3.48, 12.84 7.46, 13.32 10.86 C13.8 14.27, 13.8 19.04, 13.61 22.53 C13.42 26.03, 13.44 29.63, 12.15 31.83 C10.87 34.02, 7.63 36.22, 5.9 35.72 C4.16 35.23, 2.6 31.75, 1.73 28.87 C0.86 25.99, 0.78 22.22, 0.67 18.46 C0.57 14.69, 0.28 9.25, 1.1 6.28 C1.91 3.31, 3.78 1.41, 5.54 0.63 C7.31 -0.15, 10.65 1.06, 11.66 1.58 C12.67 2.1, 11.7 3.45, 11.62 3.75 M7.3 0.32 C8.61 0.08, 10.92 1.39, 11.88 3.59 C12.85 5.79, 12.66 9.7, 13.09 13.53 C13.52 17.35, 15.17 23.21, 14.45 26.54 C13.72 29.88, 10.26 32.16, 8.73 33.56 C7.2 34.96, 6.54 36.18, 5.25 34.94 C3.96 33.7, 1.71 29.26, 1 26.14 C0.29 23.01, 0.94 19.89, 0.99 16.19 C1.04 12.5, 0.26 6.68, 1.31 3.97 C2.35 1.25, 6.3 0.33, 7.27 -0.09 C8.24 -0.5, 7.06 1.12, 7.13 1.47" stroke="none" stroke-width="0" fill="#5c940d"></path><path d="M9.11 -0.55 C10.47 -0.2, 11.82 3.15, 12.78 6.13 C13.75 9.11, 14.73 13.65, 14.89 17.34 C15.06 21.03, 14.91 25.29, 13.77 28.27 C12.63 31.25, 9.58 34.36, 8.05 35.23 C6.52 36.09, 5.8 35.19, 4.59 33.44 C3.37 31.7, 1.59 28.24, 0.76 24.75 C-0.08 21.27, -1 16.32, -0.42 12.52 C0.16 8.73, 2.64 3.84, 4.24 1.96 C5.85 0.09, 8.11 1.36, 9.19 1.26 C10.28 1.15, 10.75 1.04, 10.75 1.32 M7.54 -0.27 C9.16 0.15, 11.79 2.87, 12.9 5.79 C14.01 8.71, 14.37 13.53, 14.2 17.26 C14.02 21, 12.92 25.47, 11.85 28.21 C10.78 30.95, 8.83 32.96, 7.76 33.7 C6.68 34.44, 6.38 34.08, 5.39 32.66 C4.4 31.23, 2.88 28.53, 1.82 25.13 C0.77 21.74, -1.01 16.1, -0.94 12.3 C-0.87 8.51, 0.75 4.54, 2.23 2.37 C3.71 0.2, 6.9 -0.38, 7.94 -0.74 C8.98 -1.1, 8.31 -0.47, 8.46 0.21" stroke="#862e9c" stroke-width="1" fill="none"></path></g><g stroke-linecap="round" transform="translate(110.7079268838529 73.09919370030002) rotate(282.5646535446879 7.528924877113468 19.427301566906408)"><path d="M8.51 0.58 C9.9 1.08, 11.66 4.08, 12.91 7.24 C14.16 10.4, 16.07 15.23, 16.03 19.53 C15.98 23.83, 13.94 29.97, 12.67 33.03 C11.39 36.09, 9.78 37.43, 8.37 37.89 C6.96 38.36, 5.61 38.02, 4.21 35.82 C2.82 33.62, 0.64 28.62, 0.02 24.71 C-0.6 20.8, -0.29 16.24, 0.49 12.36 C1.28 8.48, 2.87 3, 4.73 1.42 C6.58 -0.16, 10.15 2.17, 11.62 2.9 C13.1 3.64, 13.72 5.46, 13.57 5.82 M5.31 1.27 C6.44 -0.35, 7.36 -0.4, 8.94 1.19 C10.53 2.78, 14.04 7.24, 14.81 10.82 C15.58 14.39, 13.96 18.65, 13.56 22.65 C13.17 26.65, 13.47 32.29, 12.43 34.8 C11.39 37.31, 8.78 37.68, 7.31 37.69 C5.84 37.7, 4.97 37.51, 3.62 34.88 C2.26 32.25, -0.49 26.12, -0.84 21.89 C-1.2 17.67, 0.47 12.82, 1.49 9.54 C2.51 6.27, 4.56 3.54, 5.29 2.24 C6.02 0.94, 5.64 1.82, 5.86 1.75" stroke="none" stroke-width="0" fill="#5c940d"></path><path d="M7.09 0.4 C8.53 0.01, 10.88 1.63, 12.31 3.95 C13.73 6.27, 15.41 10.31, 15.64 14.33 C15.86 18.36, 14.34 24.28, 13.63 28.12 C12.93 31.95, 12.72 35.58, 11.41 37.34 C10.1 39.1, 7.58 39.77, 5.77 38.68 C3.96 37.59, 1.39 34.44, 0.57 30.82 C-0.24 27.19, 0.61 21.01, 0.89 16.91 C1.17 12.82, 0.81 9.08, 2.25 6.24 C3.7 3.4, 8.14 0.45, 9.58 -0.12 C11.01 -0.7, 10.96 2.44, 10.86 2.78 M5.27 1.41 C6.72 -0.04, 8.52 0.33, 9.78 1.69 C11.05 3.05, 12.18 6.26, 12.86 9.57 C13.53 12.89, 13.68 17.57, 13.85 21.57 C14.02 25.57, 14.69 30.58, 13.86 33.56 C13.02 36.55, 10.9 39.39, 8.84 39.5 C6.78 39.62, 3.11 37.09, 1.48 34.26 C-0.15 31.42, -0.83 26.7, -0.94 22.49 C-1.06 18.28, -0.23 12.57, 0.8 8.98 C1.84 5.39, 4.43 1.95, 5.26 0.96 C6.09 -0.03, 6 2.82, 5.77 3.04" stroke="#862e9c" stroke-width="1" fill="none"></path></g><g stroke-linecap="round" transform="translate(69.5423516985411 89.3764846318445) rotate(13.912540824884557 7.514979966314854 8.266477962946283)"><path d="M7.69 -0.16 C9.47 -0.22, 12.7 0.53, 13.84 1.93 C14.99 3.33, 14.61 6.52, 14.54 8.24 C14.47 9.97, 14.16 10.97, 13.42 12.29 C12.67 13.61, 11.64 15.72, 10.06 16.16 C8.48 16.61, 5.5 15.69, 3.93 14.97 C2.36 14.26, 1.11 13.5, 0.63 11.87 C0.14 10.24, 0.51 6.86, 1.02 5.19 C1.52 3.52, 2.11 2.77, 3.65 1.85 C5.19 0.94, 9.08 -0.31, 10.26 -0.3 C11.45 -0.29, 11 1.62, 10.74 1.91 M7.06 0.04 C8.66 0.25, 12.53 2.3, 13.62 3.53 C14.72 4.76, 13.62 5.75, 13.63 7.41 C13.64 9.08, 14.45 12.24, 13.71 13.52 C12.97 14.81, 10.61 14.64, 9.2 15.11 C7.78 15.57, 6.8 17.04, 5.22 16.33 C3.64 15.62, 0.46 12.57, -0.28 10.84 C-1.03 9.11, 0.1 7.32, 0.74 5.93 C1.39 4.55, 2.19 3.48, 3.58 2.53 C4.96 1.59, 8.07 0.86, 9.07 0.27 C10.08 -0.31, 9.95 -1.02, 9.59 -0.98" stroke="none" stroke-width="0" fill="#faff6a"></path><path d="M5.32 0.91 C6.83 0.14, 9.53 -0.27, 10.86 0.33 C12.18 0.92, 12.49 2.88, 13.29 4.48 C14.09 6.07, 15.77 8.14, 15.66 9.9 C15.55 11.67, 14.09 13.91, 12.61 15.07 C11.14 16.23, 8.31 17.05, 6.8 16.85 C5.3 16.66, 4.69 14.99, 3.59 13.91 C2.48 12.83, 0.46 12.07, 0.15 10.38 C-0.16 8.69, 0.61 5.38, 1.7 3.76 C2.79 2.15, 5.57 1.34, 6.68 0.69 C7.78 0.04, 8.46 -0.09, 8.32 -0.12 M6.24 0.64 C7.49 0.28, 9.14 0.6, 10.37 1.27 C11.59 1.95, 12.64 3.1, 13.57 4.68 C14.49 6.26, 16.13 8.83, 15.91 10.76 C15.7 12.68, 14.14 15.32, 12.26 16.23 C10.39 17.14, 6.62 16.75, 4.66 16.19 C2.7 15.63, 1.31 14.38, 0.5 12.86 C-0.3 11.34, -0.47 8.8, -0.17 7.07 C0.13 5.33, 1.07 3.36, 2.32 2.44 C3.57 1.51, 6.83 2.02, 7.33 1.52 C7.82 1.03, 5.17 -0.63, 5.28 -0.54" stroke="#fab005" stroke-width="1" fill="none"></path></g><g stroke-linecap="round" transform="translate(166.68079928960606 103.45894518845853) rotate(0 10.718737276722322 71.19186987444209)"><path d="M3.48 1.29 L18.18 -1.41 L20.59 5.38 L21.7 138.94 L19.58 140.13 L16.71 142.83 L3.09 142.64 L1.79 138.76 L-1.62 7.02 L-0.48 1 L3.65 0.45" stroke="none" stroke-width="0" fill="#82c91e"></path><path d="M5.36 0 M5.36 0 C7.43 0.88, 11.01 -0.58, 16.08 0 M5.36 0 C9.62 -0.49, 12.86 -0.35, 16.08 0 M16.08 0 C18.26 0.29, 21.52 1.33, 21.44 5.36 M16.08 0 C19.18 0.32, 22.51 0.56, 21.44 5.36 M21.44 5.36 C22.99 55.92, 20.6 104.37, 21.44 137.02 M21.44 5.36 C20.61 45.99, 20.21 88.5, 21.44 137.02 M21.44 137.02 C19.93 140.78, 18.37 143.22, 16.08 142.38 M21.44 137.02 C21.77 142.19, 17.66 140.53, 16.08 142.38 M16.08 142.38 C12.39 142.3, 8.46 141.54, 5.36 142.38 M16.08 142.38 C13.62 142.11, 10.39 142.34, 5.36 142.38 M5.36 142.38 C3.15 143.12, 0.46 140.39, 0 137.02 M5.36 142.38 C2.8 141.16, -0.56 142.12, 0 137.02 M0 137.02 C1.37 98.07, 1.32 58.01, 0 5.36 M0 137.02 C-0.17 101.38, 0.26 66.48, 0 5.36 M0 5.36 C0.17 -0.2, 2.35 0.32, 5.36 0 M0 5.36 C1.27 3.54, 3.04 -0.24, 5.36 0" stroke="transparent" stroke-width="1" fill="none"></path></g><g stroke-linecap="round" transform="translate(118.50755525380214 108.30153479125511) rotate(0 26.940842553425 27.649425312160474)"><path d="M25.91 -1.65 C31.34 -1.57, 38.84 3.78, 43.27 7.88 C47.7 11.97, 51.31 17.15, 52.51 22.91 C53.71 28.66, 52.99 37.25, 50.46 42.41 C47.93 47.58, 42.75 51.88, 37.33 53.92 C31.92 55.97, 23.73 56.76, 17.97 54.68 C12.21 52.59, 5.51 46.61, 2.79 41.4 C0.07 36.2, 0.67 29.15, 1.66 23.47 C2.64 17.79, 2.57 10.63, 8.7 7.33 C14.82 4.03, 32.01 3.06, 38.41 3.67 C44.81 4.27, 47.57 10.83, 47.11 10.96 M42.86 3.77 C47.73 6.55, 51.73 11.69, 53.27 17.73 C54.81 23.78, 54.35 33.8, 52.1 40.03 C49.85 46.25, 44.91 52.76, 39.79 55.09 C34.67 57.41, 27.63 55.46, 21.38 53.99 C15.13 52.51, 6.22 51.23, 2.29 46.25 C-1.64 41.26, -3.56 29.98, -2.2 24.08 C-0.84 18.18, 5.99 14.37, 10.45 10.86 C14.91 7.36, 19.2 3.98, 24.54 3.08 C29.89 2.17, 39.37 4.62, 42.53 5.43 C45.68 6.24, 43.71 7.28, 43.48 7.95" stroke="none" stroke-width="0" fill="#d33210"></path><path d="M49.62 8.54 C52.97 12.69, 53.86 20.39, 53.53 26.57 C53.2 32.74, 51.36 40.81, 47.64 45.58 C43.91 50.35, 37.26 53.95, 31.17 55.18 C25.09 56.4, 16.22 56.22, 11.12 52.94 C6.03 49.65, 1.98 41.51, 0.61 35.44 C-0.77 29.38, 0.53 21.59, 2.88 16.55 C5.24 11.51, 10.13 7.9, 14.74 5.2 C19.35 2.51, 24.21 -3.11, 30.54 0.36 C36.87 3.84, 49.8 18.73, 52.72 26.06 C55.65 33.4, 48.4 44.2, 48.07 44.37 M32.93 1.23 C37.95 2.22, 41.79 6.95, 45.64 10.88 C49.48 14.82, 55.4 19.13, 56 24.84 C56.6 30.55, 53.39 39.9, 49.25 45.13 C45.12 50.36, 37.14 55.42, 31.19 56.22 C25.23 57.01, 18.7 52.7, 13.5 49.88 C8.3 47.06, 2.39 44.38, -0.02 39.29 C-2.43 34.2, -2.73 24.97, -0.94 19.33 C0.86 13.69, 5.43 8.27, 10.77 5.44 C16.12 2.61, 28.28 3.52, 31.16 2.35 C34.04 1.18, 27.96 -1.82, 28.06 -1.59" stroke="transparent" stroke-width="1" fill="none"></path></g><g stroke-linecap="round" transform="translate(137.3631990004444 42.66730998176263) rotate(0 31.249667849988327 29.411452094107062)"><path d="M44.23 3.35 C50.31 5.49, 56.98 11.37, 59.84 17.02 C62.7 22.67, 63.23 31.24, 61.39 37.26 C59.55 43.28, 54.16 49.55, 48.83 53.14 C43.5 56.73, 36.05 59.22, 29.41 58.8 C22.78 58.38, 13.83 54.94, 9.03 50.63 C4.24 46.32, 1.15 39.1, 0.64 32.93 C0.14 26.77, 2.34 18.99, 6 13.66 C9.66 8.33, 15.77 2.65, 22.61 0.93 C29.44 -0.78, 42.87 2.61, 47.02 3.36 C51.18 4.11, 47.96 4.95, 47.53 5.45 M17.19 4.7 C22.66 1.45, 32.1 -0.87, 38.32 0.44 C44.53 1.75, 50.66 7.7, 54.49 12.58 C58.33 17.47, 61.1 23.44, 61.33 29.74 C61.55 36.04, 60.11 45.34, 55.84 50.38 C51.57 55.42, 42.54 59.29, 35.71 60 C28.88 60.71, 20.46 57.97, 14.88 54.63 C9.3 51.28, 4.32 45.74, 2.21 39.91 C0.11 34.08, -0.06 25.58, 2.24 19.67 C4.53 13.75, 13.59 7.2, 16 4.39 C18.4 1.58, 16.53 2.69, 16.65 2.8" stroke="none" stroke-width="0" fill="#82c91e"></path><path d="M18.4 2.73 C23.84 0.08, 32.35 0.32, 38.72 1.91 C45.09 3.49, 52.59 7.27, 56.62 12.24 C60.64 17.22, 63.39 25.22, 62.87 31.74 C62.35 38.25, 58.5 46.83, 53.5 51.32 C48.49 55.8, 39.66 58.43, 32.83 58.65 C25.99 58.87, 17.78 56.28, 12.49 52.64 C7.21 49, 2.74 42.8, 1.13 36.78 C-0.48 30.76, -0.45 22.28, 2.83 16.51 C6.12 10.75, 17.52 4.56, 20.84 2.19 C24.17 -0.17, 22.58 2, 22.78 2.3 M40.54 1.38 C46.47 2.98, 53 8.8, 56.57 13.82 C60.14 18.84, 62.72 25.28, 61.94 31.52 C61.16 37.77, 56.84 46.75, 51.88 51.31 C46.92 55.88, 38.85 58.49, 32.17 58.89 C25.49 59.3, 16.99 57.34, 11.82 53.77 C6.64 50.19, 2.76 43.87, 1.11 37.45 C-0.54 31.02, -1.12 20.97, 1.92 15.2 C4.96 9.43, 13.16 5.16, 19.36 2.83 C25.56 0.5, 35.74 1.45, 39.14 1.22 C42.54 1, 39.97 1.09, 39.78 1.48" stroke="#e67700" stroke-width="1" fill="none"></path></g><g stroke-linecap="round" transform="translate(145.15657459456952 36.395952060326636) rotate(0 6.617576721174032 9.643127539243324)"><path d="M7.87 0.32 C9.2 0.42, 10.61 2.15, 11.41 3.6 C12.22 5.04, 12.51 7.01, 12.7 9.01 C12.88 11.02, 13.34 13.89, 12.51 15.61 C11.69 17.33, 9.16 18.78, 7.74 19.34 C6.33 19.89, 5.17 19.78, 4.04 18.93 C2.91 18.08, 1.65 16.3, 0.97 14.24 C0.29 12.19, -0.48 8.76, -0.02 6.58 C0.43 4.4, 2.42 2.19, 3.7 1.16 C4.99 0.13, 6.88 0.44, 7.68 0.4 C8.48 0.36, 8.62 0.74, 8.52 0.92 M7.97 -0.12 C8.97 -0.03, 9.36 2.85, 10.04 4.25 C10.72 5.65, 11.51 6.22, 12.05 8.28 C12.58 10.33, 13.9 14.56, 13.26 16.59 C12.63 18.62, 9.81 20.11, 8.23 20.44 C6.66 20.76, 5 19.47, 3.83 18.56 C2.67 17.64, 1.84 16.67, 1.24 14.96 C0.65 13.24, 0.07 10.31, 0.27 8.26 C0.47 6.2, 1.28 4.2, 2.43 2.62 C3.57 1.04, 6.55 -0.66, 7.15 -1.23 C7.75 -1.81, 6.12 -1.39, 6.02 -0.81" stroke="none" stroke-width="0" fill="#fab005"></path><path d="M5.18 0.86 C6.43 0.48, 8.65 0.28, 10.05 1.25 C11.44 2.22, 13.06 4.45, 13.54 6.69 C14.03 8.93, 13.8 12.75, 12.96 14.69 C12.13 16.63, 9.98 17.74, 8.53 18.33 C7.08 18.92, 5.48 18.77, 4.28 18.24 C3.08 17.71, 2.06 16.77, 1.32 15.15 C0.57 13.54, -0.33 10.51, -0.2 8.52 C-0.06 6.54, 1.04 4.54, 2.12 3.24 C3.19 1.94, 5.33 1.3, 6.28 0.74 C7.23 0.17, 7.65 -0.33, 7.83 -0.17 M3.91 1.23 C5.01 0.29, 7.46 -1.14, 8.72 -0.38 C9.98 0.38, 10.94 3.75, 11.48 5.77 C12.02 7.8, 12.25 9.76, 11.96 11.78 C11.67 13.79, 10.62 16.45, 9.73 17.87 C8.84 19.29, 8.08 20.7, 6.6 20.32 C5.13 19.94, 1.86 17.1, 0.89 15.6 C-0.08 14.1, 0.89 13.16, 0.77 11.32 C0.65 9.48, -0.47 6.44, 0.16 4.59 C0.79 2.74, 3.98 0.94, 4.54 0.22 C5.1 -0.5, 3.68 0.12, 3.51 0.24" stroke="#fab005" stroke-width="1" fill="none"></path></g><g stroke-linecap="round" transform="translate(193.54302776506984 47.584169650727745) rotate(0 7.352863023526766 8.088149325879385)"><path d="M9.71 0.91 C11 1.28, 12.23 2.31, 13.16 3.74 C14.09 5.18, 15.49 7.71, 15.27 9.5 C15.05 11.3, 13.07 13.28, 11.84 14.51 C10.62 15.75, 9.36 16.8, 7.91 16.92 C6.46 17.05, 4.5 16.52, 3.15 15.27 C1.79 14.02, 0.05 11.35, -0.22 9.43 C-0.48 7.51, 0.84 5.24, 1.58 3.77 C2.31 2.3, 2.72 1.06, 4.19 0.6 C5.65 0.15, 9.29 0.81, 10.37 1.04 C11.46 1.28, 10.64 1.83, 10.68 2.03 M8.85 2.04 C9.95 2.51, 11.52 2.27, 12.67 3.8 C13.82 5.33, 15.9 9.18, 15.75 11.21 C15.6 13.23, 13.21 15.09, 11.76 15.94 C10.32 16.79, 8.55 16.43, 7.1 16.32 C5.65 16.22, 4.22 16.31, 3.06 15.3 C1.9 14.3, 0.52 12.07, 0.13 10.29 C-0.26 8.52, -0.08 6.53, 0.74 4.67 C1.56 2.81, 3.68 -0.01, 5.05 -0.86 C6.42 -1.72, 8.22 -0.93, 8.96 -0.46 C9.7 0.02, 9.5 1.56, 9.49 2" stroke="none" stroke-width="0" fill="#fab005"></path><path d="M7.3 -0.53 C9.04 -0.78, 11.59 0.21, 12.87 1.63 C14.16 3.04, 15.05 6.18, 15.02 7.98 C14.99 9.77, 13.71 11.19, 12.69 12.38 C11.68 13.57, 10.29 14.59, 8.95 15.12 C7.61 15.65, 6.04 16.17, 4.65 15.58 C3.26 15, 1.31 13.05, 0.59 11.58 C-0.13 10.11, 0.03 8.3, 0.32 6.76 C0.62 5.23, 0.92 3.56, 2.38 2.38 C3.83 1.2, 7.73 -0.13, 9.04 -0.31 C10.35 -0.49, 10.41 1.02, 10.23 1.29 M7.49 -1.06 C8.94 -1.06, 10.47 1.53, 11.48 2.93 C12.49 4.34, 13.36 5.66, 13.53 7.38 C13.7 9.1, 13.14 11.66, 12.48 13.24 C11.83 14.83, 11.16 16.73, 9.59 16.9 C8.02 17.07, 4.42 15.09, 3.06 14.27 C1.7 13.44, 2.06 13.31, 1.45 11.96 C0.83 10.61, -0.89 7.96, -0.63 6.18 C-0.37 4.4, 1.77 2.39, 3.01 1.29 C4.24 0.19, 6.17 -0.13, 6.77 -0.4 C7.37 -0.66, 6.23 -0.38, 6.62 -0.29" stroke="#fab005" stroke-width="1" fill="none"></path></g><g stroke-linecap="round" transform="translate(132.79255813121677 57.52866302986604) rotate(0 6.617576721174032 6.889923973005807)"><path d="M6.85 -0.2 C8.33 -0.19, 11.07 1.07, 12.09 2.23 C13.11 3.39, 12.88 5.17, 12.94 6.76 C13 8.34, 13.15 10.45, 12.43 11.75 C11.71 13.05, 10.14 14.34, 8.62 14.54 C7.1 14.73, 4.56 13.8, 3.31 12.92 C2.07 12.05, 1.77 10.61, 1.16 9.29 C0.56 7.97, -0.55 6.36, -0.32 5.01 C-0.09 3.67, 1.16 1.94, 2.52 1.22 C3.88 0.5, 6.55 0.59, 7.85 0.68 C9.14 0.77, 10.02 1.6, 10.27 1.76 M5.12 -0.46 C6.86 -0.62, 10.5 1.64, 11.8 2.85 C13.11 4.07, 12.82 5.62, 12.93 6.84 C13.04 8.06, 13.01 8.91, 12.49 10.17 C11.97 11.43, 11.1 13.69, 9.81 14.42 C8.51 15.15, 6.25 15.02, 4.73 14.53 C3.22 14.04, 1.48 13.11, 0.7 11.48 C-0.08 9.85, 0 6.56, 0.04 4.78 C0.09 3, 0.04 1.4, 0.99 0.81 C1.94 0.23, 5 1.25, 5.73 1.28 C6.47 1.31, 5.18 1.29, 5.39 0.98" stroke="none" stroke-width="0" fill="#fab005"></path><path d="M9.81 0.06 C11.2 0.78, 12.52 3.35, 12.92 4.75 C13.32 6.15, 12.7 7.28, 12.21 8.45 C11.71 9.61, 10.93 10.86, 9.95 11.75 C8.97 12.65, 7.68 13.82, 6.33 13.81 C4.97 13.79, 2.84 12.61, 1.81 11.66 C0.79 10.71, 0.38 9.42, 0.18 8.1 C-0.02 6.79, -0.23 5.17, 0.59 3.79 C1.4 2.41, 3.5 0.22, 5.09 -0.18 C6.68 -0.57, 9.45 1.17, 10.12 1.43 C10.79 1.68, 9.24 1.44, 9.12 1.35 M7.29 0.88 C8.48 1.35, 10.04 1.82, 10.87 3.02 C11.7 4.21, 12.14 6.43, 12.25 8.05 C12.37 9.68, 12.61 12, 11.56 12.75 C10.51 13.5, 7.29 12.51, 5.96 12.54 C4.63 12.56, 4.67 13.53, 3.58 12.9 C2.49 12.28, -0.1 10.31, -0.6 8.79 C-1.11 7.27, 0.02 5.21, 0.57 3.79 C1.11 2.36, 1.58 0.93, 2.66 0.26 C3.74 -0.42, 5.88 -0.15, 7.03 -0.25 C8.17 -0.34, 9.28 -0.49, 9.52 -0.31" stroke="#fab005" stroke-width="1" fill="none"></path></g><g stroke-linecap="round" transform="translate(195.97243901149568 72.66501348530892) rotate(0 6.617576721174032 7.770949114201358)"><path d="M8.73 0.26 C10.1 0.6, 10.76 1.89, 11.59 3.33 C12.43 4.76, 13.67 7.1, 13.73 8.88 C13.79 10.65, 13.06 12.9, 11.96 13.98 C10.86 15.06, 8.51 15.35, 7.13 15.35 C5.75 15.35, 4.91 14.85, 3.67 13.99 C2.43 13.12, 0.31 11.7, -0.29 10.18 C-0.9 8.66, -0.42 6.37, 0.05 4.86 C0.53 3.36, 1.07 1.79, 2.58 1.15 C4.09 0.51, 7.79 0.97, 9.11 1.05 C10.43 1.13, 10.57 1.74, 10.49 1.63 M10.92 2.37 C12.32 3.35, 12.29 5.03, 12.62 6.35 C12.94 7.67, 13.2 8.78, 12.89 10.32 C12.57 11.85, 11.92 14.51, 10.73 15.54 C9.55 16.58, 7.32 16.81, 5.76 16.52 C4.19 16.23, 2.3 15.44, 1.34 13.82 C0.38 12.19, 0.18 8.76, 0 6.78 C-0.18 4.8, -0.5 2.85, 0.28 1.96 C1.06 1.06, 3.27 1.47, 4.7 1.44 C6.12 1.4, 7.88 2.01, 8.83 1.74 C9.77 1.47, 10.03 0, 10.36 -0.19" stroke="none" stroke-width="0" fill="#fab005"></path><path d="M5.24 1.18 C6.28 0.74, 7.41 0.19, 8.54 0.62 C9.67 1.05, 11.25 2.22, 12.02 3.75 C12.79 5.27, 13.47 8.08, 13.17 9.78 C12.87 11.47, 11.38 12.87, 10.22 13.9 C9.06 14.94, 7.69 15.96, 6.22 15.98 C4.76 16.01, 2.42 15.35, 1.44 14.03 C0.46 12.71, 0.3 9.71, 0.35 8.05 C0.4 6.38, 0.96 5.33, 1.74 4.06 C2.52 2.8, 4.22 1.18, 5.03 0.45 C5.84 -0.27, 6.41 -0.31, 6.61 -0.28 M3.15 0.63 C4.39 -0.02, 6.29 0.37, 7.85 1.07 C9.41 1.77, 11.86 3.72, 12.53 4.85 C13.19 5.97, 12 6.3, 11.85 7.83 C11.7 9.35, 12.63 12.71, 11.63 14 C10.63 15.29, 7.38 15.67, 5.84 15.59 C4.3 15.51, 3.53 14.66, 2.39 13.53 C1.26 12.39, -0.52 10.46, -0.99 8.79 C-1.45 7.12, -1.48 4.99, -0.39 3.49 C0.7 2, 4.72 0.32, 5.57 -0.16 C6.43 -0.64, 4.74 0.29, 4.74 0.61" stroke="#fab005" stroke-width="1" fill="none"></path></g><g stroke-linecap="round" transform="translate(168.24192764519057 58.25406117001239) rotate(0 7.352863023526766 8.088149325879385)"><path d="M6.17 0.33 C7.62 0.14, 10.41 1, 11.86 2.05 C13.31 3.11, 14.54 5.15, 14.86 6.67 C15.18 8.18, 14.37 9.74, 13.78 11.12 C13.19 12.51, 12.76 14.14, 11.31 14.96 C9.86 15.79, 6.82 16.38, 5.1 16.06 C3.39 15.74, 2.04 14.39, 1.03 13.04 C0.01 11.69, -1.17 9.6, -0.98 7.95 C-0.8 6.29, 0.65 4.36, 2.14 3.13 C3.62 1.89, 6.98 1.17, 7.91 0.55 C8.85 -0.08, 7.7 -0.56, 7.73 -0.64 M6.08 1.59 C7.34 1.02, 9.65 0.47, 11.13 1.31 C12.6 2.15, 14.39 4.86, 14.92 6.65 C15.44 8.44, 15 10.49, 14.27 12.05 C13.54 13.61, 11.93 15.56, 10.55 16.01 C9.16 16.46, 7.61 15.4, 5.93 14.76 C4.26 14.11, 1.59 13.06, 0.51 12.13 C-0.57 11.21, -0.61 10.62, -0.54 9.2 C-0.47 7.78, -0.33 5.33, 0.92 3.61 C2.16 1.88, 5.79 -0.42, 6.92 -1.14 C8.05 -1.86, 7.59 -1.22, 7.68 -0.74" stroke="none" stroke-width="0" fill="#fab005"></path><path d="M4.59 0.19 C5.86 -0.6, 8.27 -0.7, 9.87 0.05 C11.46 0.8, 13.43 3.04, 14.16 4.69 C14.88 6.34, 14.64 8.21, 14.23 9.96 C13.83 11.7, 13.06 14.02, 11.73 15.17 C10.39 16.32, 7.74 17.18, 6.2 16.88 C4.66 16.58, 3.42 14.6, 2.48 13.37 C1.55 12.14, 0.9 11.11, 0.6 9.52 C0.3 7.93, -0.32 5.49, 0.69 3.83 C1.7 2.18, 5.43 0.27, 6.67 -0.39 C7.91 -1.04, 8.27 -0.18, 8.14 -0.08 M8 0.83 C9.7 1.24, 12.51 3.15, 13.41 4.22 C14.31 5.29, 13.39 5.64, 13.4 7.25 C13.41 8.87, 14.46 12.41, 13.47 13.9 C12.47 15.38, 9.13 16.04, 7.45 16.16 C5.76 16.28, 4.73 15.66, 3.36 14.65 C1.99 13.63, -0.09 11.77, -0.77 10.08 C-1.44 8.39, -1.68 6.15, -0.67 4.51 C0.33 2.87, 3.59 0.97, 5.26 0.25 C6.93 -0.48, 8.58 0.05, 9.37 0.16 C10.15 0.27, 9.99 0.79, 9.95 0.9" stroke="#fab005" stroke-width="1" fill="none"></path></g><g stroke-linecap="round" transform="translate(172.88049385274053 36.75865113040254) rotate(0 7.352863023526766 8.088149325879385)"><path d="M8.12 0.75 C9.74 0.82, 11.72 2.01, 12.75 3.03 C13.78 4.04, 14.06 5.34, 14.3 6.85 C14.54 8.35, 15.08 10.55, 14.2 12.05 C13.32 13.56, 10.7 15.27, 9.02 15.88 C7.34 16.48, 5.66 16.29, 4.14 15.67 C2.61 15.05, 0.5 13.61, -0.14 12.16 C-0.77 10.7, -0.3 8.6, 0.32 6.95 C0.95 5.3, 2.17 3.51, 3.59 2.25 C5.02 0.99, 7.61 -0.25, 8.88 -0.62 C10.15 -0.99, 11.27 -0.35, 11.21 0.05 M10.78 1.09 C12.26 1.72, 14.17 4.48, 14.77 6.24 C15.38 8, 15.05 10.04, 14.4 11.63 C13.76 13.23, 12.24 15.25, 10.89 15.78 C9.55 16.32, 8.02 15.38, 6.33 14.83 C4.64 14.28, 1.92 13.33, 0.77 12.47 C-0.37 11.61, -0.52 11.07, -0.54 9.65 C-0.56 8.23, -0.52 5.73, 0.66 3.95 C1.84 2.17, 4.59 -0.39, 6.52 -1.06 C8.45 -1.73, 11.36 -0.55, 12.24 -0.05 C13.13 0.45, 12.15 1.84, 11.83 1.93" stroke="none" stroke-width="0" fill="#fab005"></path><path d="M9.98 0.11 C11.53 0.76, 13.51 3.16, 14.21 4.82 C14.91 6.48, 14.63 8.35, 14.2 10.09 C13.77 11.83, 12.98 14.12, 11.62 15.25 C10.27 16.38, 7.61 17.2, 6.07 16.87 C4.53 16.54, 3.31 14.52, 2.4 13.27 C1.48 12.02, 0.86 10.98, 0.59 9.38 C0.31 7.79, -0.09 5.32, 0.76 3.72 C1.62 2.12, 3.83 0.24, 5.7 -0.19 C7.56 -0.63, 11 0.84, 11.96 1.12 C12.92 1.41, 11.53 1.51, 11.45 1.54 M7.9 1.05 C9.34 0.71, 9.78 -0.13, 11.03 0.92 C12.27 1.98, 15.07 5.45, 15.35 7.37 C15.63 9.3, 13.67 11.13, 12.7 12.49 C11.73 13.86, 11.07 15.11, 9.53 15.55 C7.98 15.99, 5.09 15.84, 3.43 15.14 C1.77 14.44, -0.09 12.93, -0.41 11.35 C-0.74 9.77, 0.85 7.29, 1.46 5.67 C2.08 4.05, 2.08 2.48, 3.29 1.63 C4.49 0.78, 7.92 0.83, 8.71 0.56 C9.5 0.29, 8.09 0.11, 8.02 0.02" stroke="#fab005" stroke-width="1" fill="none"></path></g><g stroke-linecap="round" transform="translate(132.9000361183455 79.16651585425006) rotate(0 7.352863023526766 8.088149325879385)"><path d="M8.82 1.02 C10.18 0.99, 11.38 1.46, 12.46 2.53 C13.54 3.6, 15.3 5.67, 15.32 7.44 C15.34 9.21, 13.71 11.7, 12.57 13.14 C11.43 14.57, 10.06 15.68, 8.46 16.08 C6.85 16.47, 4.22 16.25, 2.93 15.52 C1.64 14.8, 1.01 13.26, 0.71 11.7 C0.41 10.14, 0.68 8.04, 1.11 6.16 C1.55 4.28, 1.82 1.54, 3.33 0.43 C4.83 -0.69, 9.09 -0.7, 10.14 -0.53 C11.18 -0.35, 9.62 1.23, 9.59 1.47 M11.47 2.17 C12.85 3.02, 13.84 4.63, 14.25 6.18 C14.67 7.74, 14.47 10.24, 13.96 11.5 C13.45 12.76, 12.66 13.13, 11.19 13.72 C9.72 14.31, 6.79 14.89, 5.14 15.05 C3.49 15.22, 2.31 15.7, 1.3 14.71 C0.3 13.72, -1.06 11.28, -0.89 9.13 C-0.72 6.98, 0.94 3.47, 2.31 1.81 C3.68 0.15, 5.72 -0.83, 7.33 -0.83 C8.94 -0.83, 11.41 1.7, 11.97 1.82 C12.52 1.95, 10.8 0.09, 10.66 -0.07" stroke="none" stroke-width="0" fill="#fab005"></path><path d="M7.18 0.05 C8.73 -0.04, 10.36 0.34, 11.61 1.47 C12.85 2.6, 14.38 4.96, 14.67 6.81 C14.96 8.66, 14.04 11.18, 13.34 12.56 C12.64 13.94, 11.75 14.45, 10.48 15.11 C9.21 15.77, 7.36 16.9, 5.7 16.51 C4.04 16.13, 1.44 14.45, 0.52 12.8 C-0.4 11.14, -0.19 8.41, 0.2 6.59 C0.6 4.77, 1.8 3.08, 2.89 1.87 C3.99 0.66, 5.85 -0.25, 6.75 -0.65 C7.66 -1.06, 8.21 -0.71, 8.34 -0.57 M7.59 -1.03 C9.15 -0.91, 12.81 1.87, 13.85 3.44 C14.9 5.02, 14.03 6.79, 13.85 8.43 C13.68 10.06, 13.88 12.04, 12.79 13.25 C11.69 14.46, 9.03 15.48, 7.27 15.68 C5.51 15.89, 3.15 15.44, 2.21 14.48 C1.27 13.52, 1.86 11.5, 1.65 9.92 C1.43 8.35, 0.39 6.43, 0.94 5.02 C1.49 3.62, 3.55 2.33, 4.93 1.49 C6.31 0.66, 8.47 0.35, 9.23 0.02 C10 -0.3, 9.66 -0.78, 9.52 -0.46" stroke="#fab005" stroke-width="1" fill="none"></path></g><g stroke-linecap="round" transform="translate(177.28891561278897 93.40206484409191) rotate(0 7.352863023526766 8.088149325879385)"><path d="M9.7 0.43 C11.15 0.73, 13.72 2.33, 14.43 3.89 C15.14 5.45, 14.46 8.02, 13.96 9.78 C13.47 11.55, 12.78 13.38, 11.48 14.5 C10.18 15.61, 7.65 16.42, 6.18 16.45 C4.7 16.49, 3.54 15.81, 2.65 14.71 C1.76 13.6, 1.12 11.78, 0.84 9.84 C0.56 7.89, 0.12 4.75, 0.98 3.05 C1.83 1.35, 4.3 -0.2, 5.99 -0.35 C7.68 -0.5, 9.86 1.68, 11.12 2.16 C12.37 2.63, 13.35 2.5, 13.5 2.48 M7.77 1.06 C9.11 0.98, 10.85 2.21, 11.99 3 C13.14 3.79, 14.57 4.41, 14.64 5.81 C14.71 7.22, 13.35 9.56, 12.41 11.44 C11.47 13.32, 10.45 16.26, 8.98 17.09 C7.51 17.91, 4.85 17.47, 3.6 16.38 C2.36 15.29, 1.85 12.39, 1.52 10.54 C1.19 8.69, 1.21 6.64, 1.63 5.3 C2.04 3.95, 3.02 3.56, 4.01 2.48 C5.01 1.4, 6.87 -0.66, 7.58 -1.19 C8.3 -1.71, 8.19 -0.81, 8.32 -0.68" stroke="none" stroke-width="0" fill="#fab005"></path><path d="M4.62 0.28 C5.99 -0.31, 8.59 0.21, 10.02 0.96 C11.45 1.71, 12.38 3.44, 13.19 4.78 C14.01 6.13, 15 7.35, 14.91 9.05 C14.82 10.75, 14.01 13.75, 12.64 15 C11.27 16.25, 8.36 16.74, 6.72 16.55 C5.07 16.35, 3.78 15.06, 2.76 13.84 C1.74 12.62, 1.03 10.98, 0.61 9.23 C0.2 7.49, -0.6 5, 0.27 3.38 C1.14 1.77, 4.86 0.16, 5.83 -0.46 C6.79 -1.08, 6.03 -0.61, 6.06 -0.33 M10.55 0.81 C12.06 1.48, 12.19 2.67, 12.86 4.07 C13.53 5.47, 14.88 7.58, 14.57 9.21 C14.26 10.84, 12.4 12.77, 11 13.85 C9.59 14.93, 7.31 15.74, 6.14 15.71 C4.96 15.68, 4.87 14.68, 3.93 13.64 C3 12.61, 0.84 10.99, 0.52 9.49 C0.2 7.98, 1.22 6.14, 2 4.62 C2.77 3.09, 3.74 1.17, 5.16 0.34 C6.58 -0.48, 9.79 -0.53, 10.51 -0.32 C11.22 -0.1, 9.56 1.43, 9.43 1.62" stroke="#fab005" stroke-width="1" fill="none"></path></g><g stroke-linecap="round" transform="translate(154.06111977739374 64.51882698331883) rotate(0 7.352863023526766 8.088149325879385)"><path d="M11.31 0.55 C12.65 1.24, 13.09 3.36, 13.53 5.02 C13.96 6.69, 14.46 8.85, 13.93 10.54 C13.4 12.23, 11.58 14.13, 10.36 15.15 C9.14 16.17, 7.89 16.84, 6.62 16.67 C5.35 16.5, 3.85 15.64, 2.73 14.15 C1.62 12.65, -0.05 9.64, -0.09 7.69 C-0.14 5.74, 1.54 3.56, 2.46 2.45 C3.37 1.33, 3.6 1.1, 5.39 1.01 C7.18 0.92, 11.69 1.48, 13.17 1.91 C14.65 2.34, 14.5 3.38, 14.28 3.56 M9.82 1.47 C11.23 1.62, 13.28 1.88, 13.88 3.11 C14.48 4.33, 13.84 6.71, 13.41 8.82 C12.97 10.94, 12.49 14.42, 11.27 15.79 C10.06 17.15, 7.48 17.5, 6.12 17 C4.75 16.5, 3.85 14.28, 3.08 12.8 C2.31 11.32, 1.64 9.5, 1.5 8.13 C1.37 6.76, 1.68 6.06, 2.26 4.56 C2.85 3.07, 3.61 -0.03, 5.03 -0.83 C6.45 -1.63, 9.83 -0.29, 10.8 -0.22 C11.76 -0.15, 10.93 -0.48, 10.83 -0.4" stroke="none" stroke-width="0" fill="#fab005"></path><path d="M7.64 0.47 C9.09 0.56, 10.45 1.74, 11.66 2.73 C12.88 3.72, 14.51 4.69, 14.94 6.39 C15.36 8.1, 15.18 11.37, 14.21 12.99 C13.24 14.6, 10.66 15.74, 9.1 16.11 C7.54 16.48, 6.12 15.92, 4.84 15.19 C3.56 14.46, 2.32 13.29, 1.42 11.74 C0.51 10.18, -0.88 7.65, -0.58 5.87 C-0.29 4.08, 1.68 2.1, 3.18 1.03 C4.68 -0.04, 7.36 -0.49, 8.42 -0.57 C9.48 -0.65, 9.45 0.45, 9.53 0.54 M3.62 0.7 C4.84 -0.14, 8 -0.33, 9.47 0.1 C10.93 0.52, 11.75 1.84, 12.41 3.26 C13.07 4.67, 13.2 6.92, 13.41 8.6 C13.62 10.28, 14.54 12.08, 13.66 13.34 C12.79 14.59, 9.77 15.84, 8.15 16.13 C6.53 16.43, 5.23 16.16, 3.96 15.1 C2.69 14.04, 0.95 11.68, 0.54 9.76 C0.12 7.85, 0.86 4.98, 1.46 3.63 C2.05 2.28, 3.57 2.18, 4.1 1.64 C4.63 1.1, 4.46 0.29, 4.64 0.37" stroke="#fab005" stroke-width="1" fill="none"></path></g><g stroke-linecap="round" transform="translate(132.0231939914022 25.576289684830954) rotate(332.96913974015825 4.661225277209951 17.036055190224488)"><path d="M3.77 0.13 C4.54 -0.24, 6.24 1.21, 6.97 3.41 C7.71 5.61, 7.86 9.69, 8.2 13.31 C8.54 16.94, 9.15 21.86, 9 25.17 C8.85 28.48, 8.25 31.96, 7.29 33.19 C6.33 34.42, 4.16 33.81, 3.24 32.56 C2.32 31.31, 2.34 28.46, 1.75 25.69 C1.17 22.92, -0.39 19.45, -0.28 15.93 C-0.17 12.42, 1.38 7.26, 2.42 4.61 C3.47 1.96, 5.45 0.61, 6 0.03 C6.55 -0.55, 5.76 0.82, 5.72 1.12 M6.26 -0.23 C7.05 0.45, 7.17 3.93, 7.58 7.51 C7.99 11.1, 8.85 17.39, 8.71 21.3 C8.57 25.2, 7.31 29.02, 6.76 30.95 C6.2 32.87, 5.97 33.15, 5.36 32.83 C4.75 32.52, 3.8 31.07, 3.1 29.07 C2.4 27.06, 1.61 24.43, 1.17 20.8 C0.74 17.17, 0.08 10.73, 0.5 7.29 C0.92 3.85, 2.61 1.4, 3.69 0.17 C4.77 -1.07, 6.5 -0.15, 6.97 -0.14 C7.44 -0.13, 6.66 -0.47, 6.53 0.23" stroke="none" stroke-width="0" fill="#5c940d"></path><path d="M3.65 0.82 C4.62 0.1, 6.58 0.44, 7.59 2.48 C8.6 4.52, 9.6 9.43, 9.71 13.08 C9.83 16.73, 8.77 21.22, 8.29 24.36 C7.81 27.5, 7.55 30.43, 6.84 31.92 C6.13 33.41, 5.14 34.23, 4.03 33.31 C2.92 32.38, 0.76 29.41, 0.17 26.37 C-0.43 23.33, 0.25 18.7, 0.45 15.06 C0.66 11.42, 0.62 7.02, 1.4 4.54 C2.19 2.05, 4.39 0.96, 5.15 0.14 C5.91 -0.68, 6.16 -0.72, 5.95 -0.38 M5.15 -0.15 C6.06 -0.06, 6.44 2.25, 6.93 4.86 C7.42 7.46, 7.61 11.88, 8.07 15.48 C8.53 19.08, 10.02 23.46, 9.7 26.47 C9.39 29.48, 7.18 32.49, 6.17 33.56 C5.15 34.62, 4.52 34.49, 3.62 32.85 C2.71 31.21, 1.2 27.29, 0.74 23.72 C0.28 20.15, 0.69 14.76, 0.85 11.45 C1.01 8.14, 0.97 5.81, 1.71 3.85 C2.45 1.89, 4.64 0.12, 5.28 -0.32 C5.93 -0.76, 5.41 0.72, 5.57 1.19" stroke="#82c91e" stroke-width="1" fill="none"></path></g><g stroke-linecap="round" transform="translate(159.43381315620672 9.969682272082537) rotate(3.468229258917947 6.116745637136432 18.569909038766127)"><path d="M4.66 0.34 C5.81 -0.49, 7 0.76, 8.23 2.86 C9.46 4.96, 11.32 9.14, 12.05 12.94 C12.78 16.73, 13.11 22.13, 12.61 25.63 C12.1 29.12, 10.13 32.18, 9.02 33.92 C7.92 35.66, 7.3 36.51, 5.97 36.05 C4.65 35.6, 1.92 34.13, 1.08 31.17 C0.25 28.21, 0.75 22.42, 0.98 18.31 C1.21 14.19, 1.56 9.47, 2.46 6.48 C3.37 3.5, 5.43 1.35, 6.39 0.41 C7.35 -0.53, 8.13 0.65, 8.23 0.86 M6.69 -0.31 C7.82 0.93, 9.88 5.86, 10.65 9.47 C11.42 13.08, 11.24 17.83, 11.31 21.37 C11.38 24.91, 11.62 28.25, 11.07 30.7 C10.51 33.16, 9.22 35.48, 7.98 36.1 C6.74 36.72, 4.94 36.8, 3.62 34.42 C2.3 32.04, 0.44 25.99, 0.05 21.84 C-0.35 17.7, 0.52 13.13, 1.23 9.56 C1.95 5.99, 3.19 2.08, 4.34 0.42 C5.49 -1.24, 7.52 -0.75, 8.11 -0.4 C8.71 -0.05, 7.85 2.17, 7.92 2.52" stroke="none" stroke-width="0" fill="#5c940d"></path><path d="M7.85 0.06 C9.27 0.7, 10.97 4.88, 11.6 8.21 C12.22 11.55, 11.74 16.27, 11.59 20.05 C11.44 23.83, 11.41 28.11, 10.7 30.89 C9.99 33.68, 8.77 36.35, 7.32 36.77 C5.88 37.19, 3.13 35.69, 2.03 33.41 C0.92 31.14, 0.93 26.93, 0.7 23.11 C0.46 19.3, 0.08 14.05, 0.59 10.55 C1.11 7.05, 2.39 3.79, 3.8 2.11 C5.21 0.42, 8.31 0.24, 9.06 0.43 C9.8 0.62, 8.4 2.89, 8.28 3.23 M5.12 -0.41 C6.16 -0.62, 7.5 1.51, 8.89 4.08 C10.27 6.65, 12.96 10.99, 13.44 14.99 C13.92 18.99, 12.48 24.48, 11.77 28.09 C11.05 31.7, 10.38 35.39, 9.14 36.67 C7.89 37.95, 5.56 37.41, 4.28 35.76 C2.99 34.11, 2.19 30.08, 1.43 26.79 C0.68 23.5, -0.41 19.88, -0.26 16.03 C-0.1 12.19, 1.23 6.27, 2.37 3.72 C3.52 1.18, 5.8 1.19, 6.63 0.75 C7.45 0.32, 7.17 0.99, 7.34 1.09" stroke="#82c91e" stroke-width="1" fill="none"></path></g><g stroke-linecap="round" transform="translate(190.60042688197564 20.280296339041342) rotate(30.411081267125798 5.376172855935806 17.32601751456332)"><path d="M4.63 0.3 C5.83 0.32, 8.04 2.58, 9.18 5.14 C10.32 7.7, 11.37 12.21, 11.47 15.66 C11.57 19.12, 10.38 22.96, 9.8 25.86 C9.21 28.77, 9.09 31.72, 7.95 33.09 C6.82 34.47, 4.05 35.43, 2.99 34.11 C1.93 32.79, 1.89 28.62, 1.58 25.19 C1.26 21.75, 1.02 17.04, 1.13 13.51 C1.23 9.97, 1.27 6.18, 2.22 3.95 C3.16 1.73, 5.99 0.75, 6.8 0.16 C7.6 -0.44, 7.11 0.12, 7.06 0.4 M2.63 2.79 C3.64 1.45, 4.63 0.9, 5.95 1.49 C7.26 2.08, 9.49 3.59, 10.53 6.35 C11.57 9.12, 12.22 14.05, 12.17 18.09 C12.12 22.13, 11.31 28.04, 10.23 30.59 C9.14 33.14, 6.87 33.42, 5.63 33.41 C4.4 33.4, 3.64 32.7, 2.84 30.53 C2.05 28.36, 1.2 24.04, 0.87 20.4 C0.54 16.75, 0.43 11.56, 0.84 8.66 C1.25 5.75, 2.78 4.23, 3.31 2.96 C3.85 1.69, 3.93 1.13, 4.06 1.04" stroke="none" stroke-width="0" fill="#5c940d"></path><path d="M7.87 1.86 C8.76 3.05, 8.96 6.23, 9.45 9.29 C9.94 12.34, 10.82 16.64, 10.79 20.18 C10.76 23.72, 10.3 28.23, 9.27 30.53 C8.23 32.84, 5.73 34.14, 4.57 33.99 C3.4 33.85, 3.03 32.08, 2.29 29.65 C1.56 27.22, 0.34 22.92, 0.16 19.4 C-0.03 15.89, 0.49 11.77, 1.19 8.55 C1.88 5.33, 3.35 1.13, 4.31 0.08 C5.28 -0.97, 6.29 1.9, 6.96 2.28 C7.64 2.66, 8.28 2.17, 8.38 2.35 M3.68 -0.4 C5.17 -0.96, 8.54 0.29, 9.76 2.5 C10.98 4.71, 10.73 9.07, 10.98 12.86 C11.23 16.65, 11.76 21.9, 11.27 25.24 C10.77 28.58, 9.09 31.56, 7.98 32.9 C6.88 34.23, 5.86 34.03, 4.63 33.25 C3.4 32.47, 1.35 31.2, 0.6 28.22 C-0.15 25.23, -0.1 19.08, 0.13 15.34 C0.36 11.61, 1.01 8.22, 1.99 5.79 C2.98 3.36, 5.32 1.76, 6.04 0.77 C6.77 -0.21, 6.56 -0.42, 6.35 -0.1" stroke="#82c91e" stroke-width="1" fill="none"></path></g><g stroke-linecap="round" transform="translate(117.64419253589017 56.71841194059289) rotate(272.0825652797309 7.200709594811997 14.991411288866402)"><path d="M7.67 0.57 C9.43 0.55, 11.72 2.53, 12.82 4.47 C13.91 6.4, 14 9.23, 14.23 12.19 C14.47 15.16, 15.12 19.27, 14.26 22.25 C13.39 25.23, 10.54 29, 9.07 30.08 C7.6 31.17, 6.64 30.12, 5.43 28.76 C4.22 27.4, 2.68 24.68, 1.82 21.92 C0.95 19.15, -0.03 15.3, 0.27 12.17 C0.56 9.05, 2.16 5.19, 3.6 3.15 C5.04 1.1, 7.92 0.31, 8.88 -0.1 C9.85 -0.51, 9.65 0.52, 9.38 0.69 M3.87 1.72 C5.43 0.09, 8.56 -1.12, 10.4 -0.31 C12.23 0.49, 14.06 3.42, 14.89 6.55 C15.73 9.69, 15.93 15.36, 15.39 18.49 C14.85 21.62, 12.94 23.54, 11.67 25.32 C10.41 27.09, 9.19 29.14, 7.78 29.14 C6.38 29.13, 4.49 27.38, 3.26 25.26 C2.03 23.14, 0.76 19.14, 0.41 16.41 C0.05 13.68, 0.25 11.61, 1.12 8.89 C1.98 6.17, 4.87 1.49, 5.6 0.08 C6.34 -1.32, 5.45 -0.04, 5.51 0.47" stroke="none" stroke-width="0" fill="#5c940d"></path><path d="M4.96 0.75 C6.3 -0.31, 9.06 -0.15, 10.62 1.21 C12.18 2.56, 13.88 5.98, 14.34 8.9 C14.79 11.83, 13.83 15.75, 13.36 18.74 C12.9 21.73, 12.72 25.07, 11.55 26.82 C10.39 28.57, 7.94 29.47, 6.4 29.23 C4.87 28.98, 3.3 27.73, 2.35 25.34 C1.4 22.95, 0.98 18.04, 0.7 14.89 C0.42 11.73, -0.47 9, 0.65 6.42 C1.77 3.85, 6.05 0.4, 7.41 -0.56 C8.76 -1.53, 8.85 0.42, 8.79 0.64 M7.49 -0.51 C9.2 -1.05, 10.16 0.35, 11.42 2.25 C12.69 4.16, 14.61 7.88, 15.07 10.92 C15.54 13.95, 14.86 17.71, 14.22 20.46 C13.58 23.22, 12.72 25.74, 11.24 27.44 C9.76 29.13, 6.93 31.25, 5.33 30.65 C3.73 30.04, 2.45 26.36, 1.63 23.79 C0.81 21.22, 0.19 18.23, 0.41 15.21 C0.64 12.19, 1.77 8.26, 2.97 5.67 C4.18 3.07, 7.11 0.35, 7.62 -0.36 C8.13 -1.08, 6.34 1.19, 6.04 1.37" stroke="#82c91e" stroke-width="1" fill="none"></path></g><g stroke-linecap="round" transform="translate(140.00364294104793 91.61033535056322) rotate(221.82016988013672 7.290776473584174 14.105435262668834)"><path d="M9.07 0.68 C10.51 0.67, 11.53 1.82, 12.61 3.85 C13.69 5.88, 15.53 9.55, 15.55 12.84 C15.57 16.13, 13.69 21.1, 12.72 23.59 C11.76 26.09, 11.09 27.32, 9.78 27.81 C8.47 28.3, 6.39 27.88, 4.86 26.54 C3.34 25.2, 1.25 22.58, 0.63 19.79 C0.01 17, 0.56 12.76, 1.15 9.78 C1.73 6.8, 2.8 3.49, 4.13 1.9 C5.46 0.31, 8.49 0.56, 9.13 0.21 C9.76 -0.13, 8.17 -0.33, 7.94 -0.16 M10.99 0 C12.77 0.71, 14.55 3.91, 15.3 6.98 C16.04 10.05, 16.11 15.52, 15.46 18.41 C14.81 21.31, 12.77 22.87, 11.42 24.35 C10.07 25.84, 8.78 27.54, 7.36 27.33 C5.95 27.11, 4.08 25.19, 2.91 23.04 C1.74 20.88, 0.59 16.97, 0.34 14.4 C0.09 11.83, 0.43 10.06, 1.4 7.61 C2.37 5.17, 4.55 0.91, 6.15 -0.27 C7.75 -1.45, 10.14 0.11, 10.98 0.55 C11.83 0.98, 11.26 1.88, 11.22 2.35" stroke="none" stroke-width="0" fill="#5c940d"></path><path d="M9.97 0.45 C11.58 1.17, 13.51 4.29, 14.13 6.88 C14.76 9.48, 14.03 13.1, 13.74 15.99 C13.45 18.88, 13.45 22.29, 12.38 24.22 C11.31 26.15, 8.9 27.44, 7.33 27.57 C5.77 27.7, 4.08 26.99, 2.99 24.99 C1.9 23, 1.26 18.52, 0.79 15.59 C0.33 12.67, -0.52 10, 0.2 7.44 C0.91 4.88, 3.28 1.19, 5.06 0.25 C6.85 -0.68, 9.84 1.44, 10.93 1.83 C12.02 2.23, 11.73 2.55, 11.61 2.62 M6.57 0.14 C7.97 -0.28, 10.75 1.03, 12.08 2.58 C13.41 4.12, 14.09 6.75, 14.54 9.38 C14.98 12.02, 15.44 15.37, 14.75 18.39 C14.07 21.4, 11.91 25.92, 10.45 27.45 C8.99 28.97, 7.4 28.15, 6 27.52 C4.59 26.9, 2.84 25.88, 2.02 23.72 C1.21 21.55, 0.93 17.78, 1.12 14.55 C1.32 11.32, 2.4 6.57, 3.21 4.33 C4.02 2.09, 5.56 1.89, 5.97 1.1 C6.39 0.3, 5.62 -0.41, 5.69 -0.44" stroke="#82c91e" stroke-width="1" fill="none"></path></g><g stroke-linecap="round" transform="translate(162.9299936976763 95.26675809562857) rotate(175.38007651834022 8.330177248063023 16.216591820758822)"><path d="M10.5 -0.2 C12.2 0.28, 15.23 3.2, 16.2 6.34 C17.17 9.49, 16.49 15.1, 16.31 18.67 C16.12 22.24, 16.17 25.48, 15.11 27.76 C14.04 30.05, 11.85 32.04, 9.93 32.37 C8 32.71, 5.03 31.79, 3.55 29.76 C2.07 27.74, 1.38 23.69, 1.04 20.21 C0.71 16.74, 0.8 12.03, 1.54 8.9 C2.28 5.77, 3.89 2.75, 5.48 1.41 C7.08 0.08, 9.96 0.61, 11.11 0.87 C12.27 1.13, 12.19 2.69, 12.41 2.96 M12.06 -0.37 C13.79 0.69, 15.6 5.13, 16.33 7.98 C17.07 10.82, 16.75 13.53, 16.48 16.7 C16.21 19.88, 15.88 24.61, 14.73 27.03 C13.59 29.44, 11.46 31.02, 9.62 31.22 C7.79 31.41, 5.28 29.82, 3.74 28.22 C2.2 26.61, 0.73 24.91, 0.39 21.59 C0.05 18.28, 0.81 11.8, 1.68 8.32 C2.55 4.84, 3.98 1.85, 5.64 0.71 C7.29 -0.43, 10.66 1.3, 11.62 1.48 C12.57 1.65, 11.69 1.89, 11.35 1.77" stroke="none" stroke-width="0" fill="#5c940d"></path><path d="M10.36 0.02 C11.91 0.39, 12.92 2.66, 14.04 5.26 C15.17 7.86, 16.98 12.15, 17.1 15.62 C17.22 19.1, 15.91 23.33, 14.75 26.12 C13.58 28.91, 11.77 31.83, 10.11 32.36 C8.45 32.89, 6.52 31.02, 4.78 29.31 C3.04 27.6, 0.34 25.3, -0.33 22.08 C-1 18.85, -0.01 13.29, 0.75 9.95 C1.52 6.62, 2.66 3.76, 4.27 2.07 C5.88 0.39, 9.29 0.12, 10.4 -0.14 C11.51 -0.4, 10.99 -0.01, 10.93 0.52 M7.54 0.94 C9.16 0, 10.99 0.29, 12.51 1.67 C14.04 3.04, 16.12 5.79, 16.68 9.19 C17.25 12.59, 16.54 18.69, 15.91 22.06 C15.29 25.44, 14.3 27.63, 12.92 29.46 C11.55 31.29, 9.26 33.31, 7.66 33.05 C6.06 32.79, 4.36 30.67, 3.32 27.9 C2.28 25.13, 1.72 19.88, 1.42 16.44 C1.12 13.01, 0.76 10.12, 1.53 7.29 C2.29 4.47, 5.16 0.71, 6.02 -0.5 C6.88 -1.72, 6.56 -0.14, 6.69 0.02" stroke="#82c91e" stroke-width="1" fill="none"></path></g><g stroke-linecap="round" transform="translate(198.4650585022605 84.1896544283727) rotate(332.96913974015825 7.077514715879943 17.22998550438524)"><path d="M9.95 -0.14 C11.33 0.86, 11.75 5.13, 12.6 8.28 C13.46 11.44, 15.03 15.27, 15.1 18.81 C15.17 22.34, 14.26 26.85, 13.03 29.51 C11.8 32.18, 9.27 34.52, 7.73 34.81 C6.18 35.11, 4.89 33.54, 3.75 31.28 C2.62 29.03, 1.34 24.87, 0.93 21.29 C0.51 17.71, 0.86 13.21, 1.25 9.8 C1.65 6.38, 1.84 2.08, 3.3 0.8 C4.77 -0.48, 8.43 1.4, 10.04 2.11 C11.65 2.81, 12.81 4.63, 12.96 5.02 M5.34 2.29 C6.36 0.64, 7.56 -1.26, 8.94 -0.5 C10.31 0.26, 12.6 3.76, 13.58 6.84 C14.56 9.91, 15.04 14.34, 14.82 17.96 C14.6 21.58, 13.46 25.59, 12.26 28.57 C11.07 31.56, 9.09 35.58, 7.67 35.87 C6.24 36.16, 4.85 32.85, 3.72 30.31 C2.59 27.76, 1.23 23.91, 0.9 20.6 C0.57 17.29, 1.05 13.49, 1.73 10.43 C2.42 7.38, 4.73 3.96, 5.01 2.28 C5.3 0.59, 3.67 0.43, 3.44 0.34" stroke="none" stroke-width="0" fill="#5c940d"></path><path d="M4.82 -0.24 C6.19 -1.3, 9.3 -0.52, 10.78 1.18 C12.26 2.89, 13.13 6.42, 13.7 9.98 C14.28 13.54, 14.6 19.05, 14.25 22.54 C13.9 26.02, 13.06 28.84, 11.58 30.89 C10.1 32.93, 6.94 35.21, 5.36 34.78 C3.77 34.36, 2.97 31.12, 2.09 28.32 C1.2 25.52, 0.17 21.7, 0.04 17.98 C-0.09 14.26, 0.21 9.15, 1.29 6.02 C2.37 2.89, 5.43 -0.03, 6.5 -0.81 C7.56 -1.59, 7.71 0.88, 7.69 1.35 M7.35 -0.15 C8.73 -0.63, 11.18 0.58, 12.23 3.11 C13.28 5.65, 13.48 11.36, 13.67 15.05 C13.85 18.74, 13.97 22.08, 13.35 25.26 C12.74 28.44, 11.23 32.62, 9.98 34.11 C8.73 35.6, 7.11 35.63, 5.85 34.2 C4.59 32.76, 3.39 28.64, 2.4 25.5 C1.41 22.36, -0.02 19.06, -0.09 15.35 C-0.16 11.64, 0.77 5.93, 1.97 3.26 C3.18 0.59, 6.28 0.05, 7.14 -0.68 C8 -1.42, 7.08 -1.59, 7.13 -1.14" stroke="#82c91e" stroke-width="1" fill="none"></path></g><g stroke-linecap="round" transform="translate(210.6933754247998 49.06446482426236) rotate(268.6521127198034 7.366507107667644 19.008206007002627)"><path d="M4.12 2.37 C5.46 0.72, 8.71 -0.33, 10.44 0.69 C12.17 1.72, 13.78 5.03, 14.51 8.51 C15.23 11.99, 15 17.52, 14.78 21.57 C14.57 25.63, 14.27 30.14, 13.23 32.84 C12.18 35.53, 10.13 37.5, 8.52 37.74 C6.9 37.98, 5.07 36.79, 3.54 34.28 C2.02 31.77, -0.06 26.71, -0.64 22.69 C-1.22 18.67, -1.08 13.94, 0.08 10.16 C1.25 6.38, 5.17 1.56, 6.35 0.02 C7.54 -1.51, 7.44 0.38, 7.19 0.95 M4.84 -0.16 C6.14 -1.93, 9.01 -1.05, 10.62 0.42 C12.23 1.88, 13.8 5.1, 14.52 8.62 C15.23 12.14, 15.29 17.08, 14.9 21.51 C14.5 25.95, 13.28 32.61, 12.14 35.23 C11 37.84, 9.56 37.64, 8.08 37.21 C6.59 36.78, 4.4 35.05, 3.23 32.65 C2.07 30.26, 1.32 26.6, 1.09 22.83 C0.85 19.06, 1.32 13.91, 1.83 10.04 C2.33 6.17, 3.73 1.26, 4.11 -0.39 C4.49 -2.05, 3.8 -0.54, 4.11 0.1" stroke="none" stroke-width="0" fill="#5c940d"></path><path d="M6.89 -0.61 C8.5 -1.33, 10.13 0.03, 11.45 2.39 C12.77 4.75, 14.26 9.68, 14.82 13.54 C15.39 17.39, 15.66 21.7, 14.85 25.51 C14.03 29.32, 11.41 34.48, 9.93 36.39 C8.44 38.3, 7.35 37.96, 5.95 36.98 C4.55 35.99, 2.55 33.75, 1.53 30.48 C0.51 27.2, -0.19 21.54, -0.16 17.34 C-0.13 13.14, 0.44 8.01, 1.69 5.26 C2.93 2.52, 6.19 1.58, 7.3 0.87 C8.4 0.16, 8.25 0.7, 8.29 0.99 M9.37 -0.48 C10.74 0.18, 11.77 4.7, 12.68 7.9 C13.59 11.11, 14.73 14.71, 14.84 18.74 C14.96 22.78, 14.23 28.81, 13.38 32.1 C12.52 35.39, 11.1 38, 9.71 38.47 C8.32 38.93, 6.62 36.91, 5.04 34.88 C3.47 32.85, 1.08 30.19, 0.24 26.29 C-0.61 22.39, -0.64 15.55, -0.03 11.47 C0.58 7.38, 2.4 3.89, 3.88 1.79 C5.35 -0.32, 7.96 -1.03, 8.83 -1.17 C9.7 -1.31, 9 0.18, 9.1 0.93" stroke="#82c91e" stroke-width="1" fill="none"></path></g><g stroke-linecap="round" transform="translate(172.8014990183442 74.53138490425681) rotate(0 7.352863023526766 8.088149325879385)"><path d="M5.56 0.51 C7.12 -0.35, 9.25 -0.24, 10.6 0.37 C11.96 0.99, 12.87 2.71, 13.68 4.19 C14.48 5.66, 15.54 7.62, 15.43 9.23 C15.31 10.84, 14.2 12.69, 12.99 13.84 C11.78 15, 10.02 16.19, 8.19 16.17 C6.36 16.15, 3.45 14.85, 2 13.73 C0.54 12.61, -0.48 11.1, -0.53 9.43 C-0.58 7.76, 0.57 5.17, 1.7 3.71 C2.82 2.26, 5.52 1.11, 6.24 0.68 C6.95 0.25, 6.18 0.97, 6 1.14 M10 -0.53 C11.6 -0.17, 13.33 1, 14.16 2.39 C14.99 3.78, 15.23 5.65, 14.97 7.81 C14.71 9.97, 13.64 14.09, 12.6 15.35 C11.55 16.61, 10.18 15.59, 8.7 15.36 C7.22 15.12, 4.98 14.68, 3.73 13.93 C2.48 13.19, 1.58 12.32, 1.21 10.89 C0.85 9.46, 1.14 7.3, 1.52 5.37 C1.9 3.43, 2.35 0.33, 3.51 -0.73 C4.67 -1.79, 7.38 -1.28, 8.47 -0.97 C9.57 -0.67, 10.11 0.52, 10.1 1.1" stroke="none" stroke-width="0" fill="#fab005"></path><path d="M5.08 -0.21 C6.46 -0.69, 8.87 0.1, 10.44 0.69 C12 1.28, 13.94 1.75, 14.49 3.33 C15.04 4.9, 14.14 8.38, 13.76 10.13 C13.37 11.88, 13.27 12.83, 12.18 13.83 C11.09 14.83, 8.87 16.22, 7.23 16.16 C5.59 16.09, 3.57 14.71, 2.34 13.44 C1.1 12.16, 0.07 9.94, -0.19 8.49 C-0.46 7.05, -0.11 6.08, 0.75 4.75 C1.62 3.43, 4.12 1.18, 4.97 0.56 C5.82 -0.07, 5.69 0.89, 5.85 1.01 M6.61 1 C8.01 0.88, 10.51 0.21, 11.89 1.21 C13.28 2.22, 14.4 5.15, 14.93 7.03 C15.45 8.91, 15.57 11.15, 15.02 12.48 C14.47 13.81, 13.3 14.32, 11.63 15.03 C9.96 15.74, 6.83 17.32, 5.01 16.75 C3.18 16.18, 1.49 13.31, 0.69 11.59 C-0.12 9.87, -0.1 8.23, 0.2 6.41 C0.49 4.59, 1.27 1.7, 2.47 0.68 C3.67 -0.35, 6.51 0.15, 7.4 0.25 C8.29 0.36, 7.74 1.25, 7.82 1.31" stroke="#fab005" stroke-width="1" fill="none"></path></g><g stroke-linecap="round" transform="translate(131.61225979032747 126.01308714707648) rotate(343.09484190136453 15.28289584058166 60.6937210215242)"><path d="M14.46 -1.64 C17.02 -2.15, 20.41 4.67, 22.7 10.78 C24.99 16.9, 26.91 25.24, 28.19 35.05 C29.48 44.86, 30.48 58.8, 30.4 69.64 C30.33 80.48, 29.53 91.78, 27.74 100.09 C25.95 108.4, 22.57 116.39, 19.64 119.5 C16.71 122.61, 12.57 121.75, 10.17 118.73 C7.77 115.71, 6.99 109.35, 5.24 101.39 C3.48 93.42, 0.12 81.5, -0.37 70.93 C-0.86 60.36, 0.92 47.76, 2.27 37.95 C3.63 28.15, 4.88 17.95, 7.74 12.11 C10.61 6.26, 16.46 2.71, 19.46 2.89 C22.46 3.07, 25.92 12.16, 25.75 13.19 M9.41 6.66 C11.9 2.21, 15.85 1.56, 18.72 2.69 C21.58 3.83, 25.17 6.43, 26.61 13.47 C28.05 20.52, 27.18 34.68, 27.37 44.98 C27.56 55.29, 27.63 64.73, 27.74 75.31 C27.84 85.88, 29.69 100.38, 28 108.42 C26.3 116.45, 20.71 122.1, 17.59 123.51 C14.47 124.91, 11.54 121.23, 9.26 116.85 C6.97 112.47, 5.39 105.96, 3.86 97.22 C2.34 88.49, 0.51 75.46, 0.11 64.41 C-0.28 53.36, 0.08 41.06, 1.49 30.93 C2.89 20.8, 7.73 7.93, 8.56 3.64 C9.39 -0.65, 6.53 3.44, 6.46 5.19" stroke="none" stroke-width="0" fill="#82c91e"></path><path d="M16.41 1.17 C18.79 1.81, 23.29 7.26, 25.64 14.54 C27.98 21.82, 29.49 34.67, 30.5 44.86 C31.51 55.04, 32.29 65.72, 31.72 75.64 C31.14 85.56, 29.47 97.16, 27.05 104.38 C24.64 111.6, 20.18 117.08, 17.25 118.98 C14.33 120.89, 11.95 119.95, 9.52 115.81 C7.08 111.67, 4.55 102.98, 2.66 94.16 C0.77 85.35, -1.64 74.05, -1.82 62.9 C-2.01 51.76, -0.41 36.98, 1.54 27.27 C3.48 17.57, 6.23 7.7, 9.85 4.66 C13.47 1.62, 20.75 6.24, 23.25 9.02 C25.75 11.8, 25.31 20.97, 24.87 21.33 M16.9 1.08 C19.74 1.61, 24.2 6.11, 26.74 13.4 C29.29 20.69, 31.86 33.74, 32.16 44.8 C32.47 55.85, 29.37 69.73, 28.58 79.74 C27.78 89.75, 29.06 97.93, 27.38 104.84 C25.7 111.76, 21.8 119.15, 18.5 121.23 C15.2 123.3, 10.37 122.32, 7.56 117.31 C4.75 112.29, 3.23 100.39, 1.64 91.13 C0.05 81.87, -1.72 72.3, -1.97 61.76 C-2.21 51.23, -1.31 37.12, 0.19 27.94 C1.7 18.75, 4.11 10.84, 7.07 6.64 C10.03 2.44, 16.65 3.93, 17.95 2.73 C19.25 1.53, 14.75 -1.33, 14.88 -0.56" stroke="transparent" stroke-width="1" fill="none"></path></g><g stroke-linecap="round" transform="translate(191.6712761321876 82.52428448984756) rotate(17.061061687677096 12.864725963955948 65.81351214173856)"><path d="M18.76 7.1 C20.67 11.32, 22.56 21.12, 23.63 31.09 C24.7 41.05, 25.31 54.5, 25.16 66.88 C25.02 79.27, 24.16 95.3, 22.77 105.37 C21.38 115.44, 18.89 122.88, 16.84 127.3 C14.79 131.72, 12.48 134.06, 10.46 131.88 C8.45 129.69, 6.49 122.4, 4.78 114.19 C3.06 105.98, 1.04 94.27, 0.18 82.61 C-0.68 70.94, -1.38 55.54, -0.38 44.18 C0.62 32.83, 4.28 21.69, 6.17 14.48 C8.07 7.26, 8.56 1.31, 11 0.88 C13.44 0.45, 19.04 9.19, 20.81 11.91 C22.59 14.62, 22.05 16.54, 21.65 17.17 M20.61 10.85 C22.72 16.44, 24.11 27.07, 25.06 38.39 C26.02 49.71, 26.54 66.25, 26.34 78.78 C26.13 91.3, 25.3 105.08, 23.83 113.53 C22.36 121.98, 20.46 126.57, 17.52 129.47 C14.58 132.37, 9.04 134.92, 6.19 130.93 C3.35 126.94, 1.05 114.87, 0.43 105.55 C-0.19 96.22, 2.34 86.13, 2.46 74.98 C2.58 63.82, 0.51 49.6, 1.16 38.63 C1.82 27.65, 4.13 15.13, 6.39 9.1 C8.64 3.08, 12.35 1.58, 14.69 2.45 C17.04 3.32, 19.65 12.24, 20.44 14.32 C21.23 16.41, 19.6 14.85, 19.46 14.97" stroke="none" stroke-width="0" fill="#82c91e"></path><path d="M11.32 0.76 C14.09 -1.48, 18.43 0.8, 20.37 6.01 C22.3 11.22, 21.95 21.81, 22.92 32.01 C23.89 42.22, 25.98 55.2, 26.18 67.25 C26.38 79.31, 25.21 94.77, 24.13 104.32 C23.05 113.88, 21.65 120.51, 19.7 124.61 C17.75 128.71, 15.06 130.87, 12.43 128.93 C9.8 126.98, 5.82 120.64, 3.9 112.94 C1.98 105.24, 1.43 93.85, 0.9 82.72 C0.38 71.59, 0.43 57.14, 0.75 46.16 C1.07 35.18, 0.34 24.3, 2.82 16.85 C5.29 9.41, 12.43 1.85, 15.6 1.49 C18.78 1.13, 21.66 13.15, 21.86 14.69 M1.2 22.3 C2.6 13.47, 7.1 4.82, 9.58 1.67 C12.06 -1.47, 13.66 0.03, 16.09 3.42 C18.51 6.81, 22.18 12.81, 24.14 21.99 C26.09 31.18, 27.99 46.22, 27.82 58.54 C27.65 70.86, 24.13 85.66, 23.12 95.89 C22.11 106.12, 23.33 113.88, 21.77 119.9 C20.2 125.93, 16.64 131.68, 13.75 132.04 C10.86 132.4, 6.65 129.08, 4.41 122.06 C2.17 115.05, 1.35 100.85, 0.32 89.95 C-0.72 79.04, -1.92 67.94, -1.8 56.64 C-1.68 45.33, 0.46 27.57, 1.02 22.12 C1.58 16.68, 0.95 22.96, 1.56 24" stroke="transparent" stroke-width="1" fill="none"></path></g><g stroke-linecap="round" transform="translate(178.5421076436753 131.09941774683284) rotate(0 26.940842553425 27.649425312160474)"><path d="M12.19 2.82 C16.53 -0.76, 24.3 -2.73, 29.97 -1.41 C35.65 -0.09, 42.39 6, 46.23 10.74 C50.06 15.48, 52.65 21.19, 52.98 27.05 C53.31 32.91, 51.49 41.23, 48.23 45.9 C44.97 50.58, 39.1 53.94, 33.43 55.12 C27.77 56.31, 19.65 55.93, 14.23 53.02 C8.82 50.11, 2.9 43.28, 0.96 37.67 C-0.98 32.07, -2.45 25.52, 2.59 19.41 C7.63 13.3, 23.45 2.09, 31.19 0.99 C38.92 -0.11, 48.84 12.13, 49.01 12.81 M17.01 -0.22 C22.18 -2.96, 31.1 -1.48, 36.71 0.41 C42.32 2.29, 47.74 5.63, 50.67 11.1 C53.59 16.58, 55.09 26.53, 54.26 33.23 C53.43 39.93, 50.03 47.68, 45.7 51.3 C41.36 54.93, 34.74 54.94, 28.28 54.99 C21.82 55.03, 11.98 55.53, 6.94 51.57 C1.9 47.6, -1.83 37.07, -1.96 31.22 C-2.09 25.38, 2.88 20.94, 6.16 16.49 C9.44 12.05, 15.73 6.91, 17.73 4.56 C19.73 2.2, 17.73 2.05, 18.13 2.39" stroke="none" stroke-width="0" fill="#d33210"></path><path d="M29.72 -1.6 C35.39 -2.33, 42.78 1.39, 46.71 5.35 C50.63 9.32, 52.71 16.08, 53.29 22.21 C53.87 28.33, 53.18 36.75, 50.19 42.08 C47.19 47.4, 41.19 52.04, 35.32 54.18 C29.44 56.31, 20.43 57.36, 14.92 54.9 C9.42 52.45, 4.5 45.15, 2.29 39.46 C0.08 33.77, 0.17 26.05, 1.66 20.74 C3.14 15.43, 4.2 9.86, 11.18 7.6 C18.16 5.34, 36.73 4.59, 43.54 7.16 C50.34 9.74, 51.97 22.66, 52 23.05 M22.29 -0.88 C28.02 -2.41, 36.68 0.73, 41.37 3.97 C46.05 7.21, 48.14 13.57, 50.39 18.55 C52.63 23.53, 56.12 28.39, 54.84 33.85 C53.56 39.3, 48.14 47.47, 42.72 51.26 C37.3 55.05, 28.38 57.76, 22.34 56.61 C16.3 55.45, 10.53 48.71, 6.48 44.34 C2.44 39.98, -1.37 35.93, -1.93 30.42 C-2.48 24.91, -0.32 16.02, 3.16 11.28 C6.64 6.54, 15.91 3.29, 18.96 1.97 C22 0.64, 21.44 3.49, 21.43 3.32" stroke="transparent" stroke-width="1" fill="none"></path></g><g stroke-linecap="round" transform="translate(34.105189691460055 126.96289085785611) rotate(23.192914553826174 14.974632997937988 38.20616382232765)"><path d="M24.03 8.2 C26.47 12.32, 29.43 20.25, 29.94 27.83 C30.45 35.41, 28.63 46.11, 27.1 53.71 C25.56 61.3, 23.35 69.88, 20.72 73.39 C18.08 76.89, 14.18 77.21, 11.3 74.73 C8.42 72.24, 5.31 65.38, 3.44 58.47 C1.57 51.56, 0.13 40.85, 0.06 33.28 C-0.02 25.7, 0.86 18.27, 2.99 13.02 C5.13 7.78, 8.63 1.37, 12.86 1.8 C17.09 2.23, 25.66 11.05, 28.37 15.63 C31.09 20.22, 29.61 28.72, 29.15 29.31 M8.38 9.21 C10.28 4.35, 10.83 -2.15, 14.21 -1.31 C17.6 -0.47, 25.84 7.93, 28.67 14.24 C31.5 20.55, 31.35 29.07, 31.17 36.57 C30.98 44.08, 29.61 53.08, 27.57 59.27 C25.53 65.47, 22.24 71.07, 18.93 73.74 C15.61 76.41, 10.9 78.91, 7.68 75.29 C4.46 71.66, 0.48 60.09, -0.38 51.99 C-1.24 43.88, 1.72 33.92, 2.52 26.64 C3.32 19.36, 3.75 11.76, 4.43 8.3 C5.1 4.84, 6.44 5.72, 6.58 5.89" stroke="none" stroke-width="0" fill="#be4bdb"></path><path d="M4.76 12.93 C6.48 6.54, 10.62 1.03, 13.5 -0.33 C16.38 -1.69, 19.66 0.52, 22.03 4.76 C24.4 8.99, 26.44 17.28, 27.74 25.06 C29.04 32.83, 30.93 43.3, 29.83 51.41 C28.72 59.53, 24.03 69.42, 21.12 73.74 C18.22 78.05, 15.7 79.68, 12.4 77.32 C9.09 74.95, 3.6 66.23, 1.28 59.55 C-1.05 52.87, -3.74 47.18, -1.55 37.23 C0.65 27.28, 10.22 4.5, 14.47 -0.17 C18.71 -4.85, 24.25 8.83, 23.91 9.17 M8.11 1.96 C10.61 -1.56, 16.35 -2.17, 19.65 0.59 C22.96 3.35, 26.32 11.34, 27.95 18.52 C29.58 25.71, 30.14 35.88, 29.41 43.69 C28.68 51.5, 25.55 59.77, 23.56 65.41 C21.58 71.04, 20.12 76.37, 17.48 77.52 C14.84 78.66, 10.6 77.44, 7.71 72.27 C4.81 67.1, 0.98 54.4, 0.11 46.47 C-0.76 38.55, 0.99 31.73, 2.51 24.73 C4.04 17.73, 7.99 8.23, 9.26 4.47 C10.53 0.71, 9.99 1.29, 10.13 2.18" stroke="transparent" stroke-width="1" fill="none"></path></g></svg>