<svg version="1.1" xmlns="http://www.w3.org/2000/svg" viewBox="0 0 158.59186435848846 430.48436376606696" width="317.18372871697693" height="860.9687275321339">
  <!-- svg-source:excalidraw -->
  
  <defs>
    <style class="style-fonts">
      @font-face {
        font-family: "Virgil";
        src: url("https://excalidraw.com/Virgil.woff2");
      }
      @font-face {
        font-family: "Cascadia";
        src: url("https://excalidraw.com/Cascadia.woff2");
      }
    </style>
  </defs>
  <g stroke-linecap="round" transform="translate(100.89186018769306 127.08518680668112) rotate(17.061061687677096 15.519085169708319 65.81351214173856)"><path d="M13.33 -1.78 C16.33 -3.31, 20.87 2.02, 23.64 7.16 C26.41 12.29, 28.99 19.81, 29.95 29.02 C30.91 38.24, 29.39 51.88, 29.39 62.45 C29.39 73.02, 30.81 82.83, 29.95 92.43 C29.1 102.03, 26.42 113.74, 24.27 120.05 C22.11 126.37, 19.37 129.42, 17.04 130.32 C14.7 131.23, 12.72 129.99, 10.23 125.48 C7.74 120.97, 3.78 112.2, 2.11 103.26 C0.44 94.32, 0.49 82.76, 0.22 71.84 C-0.04 60.92, -0.9 47.89, 0.51 37.73 C1.93 27.56, 5.49 17.08, 8.71 10.86 C11.93 4.65, 17.88 1.4, 19.83 0.44 C21.77 -0.52, 20.52 4.21, 20.39 5.09 M4.11 18.22 C5.47 10.6, 7.08 7.34, 9.36 4.91 C11.64 2.48, 14.47 0.96, 17.79 3.62 C21.11 6.29, 26.9 13.59, 29.28 20.91 C31.66 28.23, 31.55 37.18, 32.06 47.55 C32.57 57.91, 33.22 72.62, 32.33 83.11 C31.44 93.59, 28.86 103.05, 26.7 110.46 C24.53 117.86, 21.82 124.64, 19.35 127.53 C16.88 130.43, 14.78 130.26, 11.9 127.81 C9.02 125.35, 3.51 120.36, 2.05 112.8 C0.59 105.23, 3.35 92.71, 3.16 82.42 C2.96 72.13, 0.9 61.83, 0.91 51.07 C0.91 40.3, 2.93 23.5, 3.19 17.83 C3.44 12.16, 2.29 16.46, 2.45 17.04" stroke="none" stroke-width="0" fill="#82c91e"></path><path d="M16.86 -1.29 C19.19 -2.02, 20.29 3.73, 22.14 9.32 C23.98 14.92, 26.48 23.08, 27.93 32.28 C29.37 41.48, 30.94 53.45, 30.8 64.52 C30.66 75.59, 28.46 89.29, 27.11 98.7 C25.75 108.11, 24.49 115.63, 22.69 120.99 C20.9 126.35, 18.64 130.65, 16.34 130.88 C14.05 131.11, 11.25 127.83, 8.92 122.37 C6.59 116.91, 3.73 107.13, 2.37 98.09 C1.01 89.05, 0.92 78.85, 0.75 68.12 C0.58 57.39, 0.12 43.67, 1.35 33.72 C2.57 23.77, 4.43 12.35, 8.11 8.43 C11.78 4.5, 20.18 5.49, 23.4 10.18 C26.62 14.86, 27.37 35.49, 27.43 36.53 M11.75 4.73 C14.12 -1.03, 13.33 -2.25, 15.46 -0.87 C17.59 0.52, 22.43 7, 24.53 13.04 C26.63 19.07, 27.24 25.66, 28.06 35.35 C28.89 45.04, 29.48 60.23, 29.49 71.17 C29.5 82.11, 29.47 91.62, 28.13 101.01 C26.79 110.41, 23.47 122.84, 21.44 127.55 C19.41 132.25, 18.69 130.78, 15.96 129.25 C13.23 127.71, 7.14 124.45, 5.07 118.33 C2.99 112.2, 4.18 102.14, 3.53 92.5 C2.87 82.87, 1.14 71.33, 1.12 60.52 C1.11 49.71, 1.98 36.46, 3.45 27.63 C4.92 18.8, 8.6 10.7, 9.94 7.54 C11.27 4.38, 11.29 8.08, 11.46 8.7" stroke="transparent" stroke-width="1" fill="none"></path></g><g stroke-linecap="round" transform="translate(76.89517309449047 95.06271062938595) rotate(0 9.039490364907806 162.7108265683405)"><path d="M5.19 0.51 L15.51 0.04 L16.9 6.08 L16.79 319.95 L17.91 323.37 L13.73 325.19 L2.17 323.18 L0.78 320.13 L-1.35 5.13 L0.39 2.1 L3.62 0.18" stroke="none" stroke-width="0" fill="#82c91e"></path><path d="M4.52 0 M4.52 0 C6.31 -0.06, 8.9 -0.45, 13.56 0 M4.52 0 C7.54 0.33, 10.35 -0.13, 13.56 0 M13.56 0 C14.71 1.09, 19.99 0.46, 18.08 4.52 M13.56 0 C15.55 -0.83, 18.21 2.52, 18.08 4.52 M18.08 4.52 C16.29 83.68, 15.24 162.64, 18.08 320.9 M18.08 4.52 C18.98 122.48, 19.84 240.86, 18.08 320.9 M18.08 320.9 C18.79 324, 17.03 324.96, 13.56 325.42 M18.08 320.9 C18.88 324.86, 18.44 326.35, 13.56 325.42 M13.56 325.42 C9.91 325.41, 6.37 325.19, 4.52 325.42 M13.56 325.42 C11.46 325.85, 9.13 325.12, 4.52 325.42 M4.52 325.42 C3.21 325.86, -1.81 323.89, 0 320.9 M4.52 325.42 C1.44 325.79, -1.28 325.54, 0 320.9 M0 320.9 C0.8 221.74, -0.04 121.46, 0 4.52 M0 320.9 C0.55 194.5, 0.09 69.44, 0 4.52 M0 4.52 C-1.73 -0.04, 0.96 0.52, 4.52 0 M0 4.52 C-0.42 1.09, -0.26 2.18, 4.52 0" stroke="transparent" stroke-width="1" fill="none"></path></g><g stroke-linecap="round" transform="translate(34.1432466738961 165.461906839947) rotate(343.09484190136453 18.078980729815612 60.6937210215242)"><path d="M15.69 -1.8 C19.33 -3.22, 24.77 2.38, 28.07 7.96 C31.38 13.55, 34.45 21.97, 35.53 31.71 C36.6 41.45, 34.93 55.84, 34.52 66.38 C34.1 76.93, 34.73 86.49, 33.05 94.99 C31.38 103.49, 27.54 113.39, 24.47 117.38 C21.4 121.38, 17.61 121.16, 14.66 118.96 C11.71 116.76, 9.25 111.63, 6.78 104.16 C4.31 96.7, 0.75 84.75, -0.17 74.18 C-1.09 63.61, 0.23 51.02, 1.28 40.77 C2.34 30.51, 2.45 19.36, 6.16 12.65 C9.86 5.93, 19.94 1.42, 23.53 0.48 C27.11 -0.46, 28.29 6.2, 27.68 7 M27.25 10.9 C30.31 16.24, 33.02 25.39, 34.08 35.76 C35.14 46.12, 34.37 61.98, 33.63 73.07 C32.89 84.16, 30.99 94.44, 29.65 102.31 C28.31 110.18, 28.15 117.9, 25.58 120.3 C23.01 122.71, 17.48 120.24, 14.24 116.74 C10.99 113.24, 8.4 107.77, 6.11 99.32 C3.81 90.87, 1.2 77.15, 0.47 66.04 C-0.26 54.92, 0.29 42.34, 1.73 32.63 C3.16 22.92, 6.72 13.04, 9.09 7.76 C11.47 2.49, 12.36 0.52, 15.97 0.96 C19.58 1.4, 28.71 8.2, 30.75 10.4 C32.79 12.59, 29.07 13.48, 28.21 14.12" stroke="none" stroke-width="0" fill="#82c91e"></path><path d="M6.27 12.4 C8.71 5.25, 13.42 0.52, 16.49 -0.2 C19.57 -0.91, 21.95 3.06, 24.73 8.11 C27.5 13.15, 31.14 20.74, 33.14 30.07 C35.14 39.4, 36.65 53.08, 36.72 64.07 C36.79 75.06, 35.57 87.34, 33.56 96 C31.55 104.67, 27.72 111.82, 24.64 116.06 C21.55 120.3, 18.37 123.48, 15.05 121.43 C11.73 119.38, 7.06 111.85, 4.72 103.77 C2.37 95.69, 1.56 83.44, 0.96 72.94 C0.37 62.44, -1.14 52.67, 1.14 40.79 C3.42 28.91, 10.39 7.09, 14.64 1.68 C18.88 -3.74, 26.48 7.82, 26.61 8.3 M26.12 7.72 C28.45 12.86, 33.1 25.77, 34.5 35.39 C35.9 45.01, 35.21 54.79, 34.55 65.42 C33.89 76.06, 32.39 90.73, 30.55 99.19 C28.7 107.65, 26.45 112.45, 23.47 116.18 C20.5 119.91, 15.56 124.36, 12.73 121.57 C9.89 118.78, 8.79 108.16, 6.44 99.45 C4.1 90.74, -0.86 79.95, -1.36 69.29 C-1.85 58.63, 1.76 45.27, 3.49 35.49 C5.21 25.71, 6.52 16.64, 8.99 10.62 C11.46 4.59, 15.05 -0.58, 18.3 -0.68 C21.55 -0.77, 26.6 8.09, 28.5 10.05 C30.41 12, 29.8 10.56, 29.71 11.05" stroke="transparent" stroke-width="1" fill="none"></path></g><g stroke-linecap="round" transform="translate(99.96913250522584 233.4819888656575) rotate(25.144785630678015 18.078980729815612 60.6937210215242)"><path d="M13.77 3.83 C17.06 0.13, 21.5 -0.59, 24.16 2.27 C26.81 5.12, 27.67 13.35, 29.69 20.97 C31.72 28.6, 35.46 37.56, 36.3 48.03 C37.15 58.5, 36.03 73.56, 34.77 83.78 C33.51 94.01, 31.17 103.08, 28.73 109.39 C26.3 115.7, 23.57 121.02, 20.16 121.66 C16.75 122.29, 11.28 118.65, 8.27 113.19 C5.26 107.73, 3.63 98.66, 2.1 88.9 C0.57 79.14, -1.55 65.77, -0.91 54.63 C-0.27 43.48, 3.29 30.86, 5.95 22.02 C8.6 13.18, 13.82 5.15, 15.01 1.58 C16.21 -1.98, 13.13 -0.13, 13.12 0.65 M4.88 16.76 C6.67 9.23, 9.16 6.02, 12.12 4.1 C15.09 2.18, 18.8 1.61, 22.67 5.25 C26.54 8.9, 32.84 17.67, 35.34 25.98 C37.83 34.29, 37.57 44.44, 37.63 55.1 C37.7 65.75, 37.51 80.46, 35.72 89.93 C33.93 99.39, 30.09 107.01, 26.89 111.88 C23.7 116.75, 19.78 119.88, 16.57 119.15 C13.36 118.42, 10.63 113.64, 7.65 107.49 C4.67 101.34, -0.55 92.25, -1.31 82.24 C-2.06 72.22, 1.95 57.74, 3.13 47.41 C4.3 37.09, 5.59 25.32, 5.77 20.29 C5.95 15.26, 4.46 17.46, 4.21 17.24" stroke="none" stroke-width="0" fill="#82c91e"></path><path d="M26.2 6.51 C28.89 10.66, 30.29 22.04, 31.82 31.37 C33.34 40.7, 35.1 51.83, 35.36 62.5 C35.62 73.17, 34.98 86.42, 33.37 95.38 C31.75 104.34, 28.79 112.34, 25.69 116.25 C22.59 120.15, 17.99 120.55, 14.76 118.81 C11.53 117.07, 8.77 113.16, 6.29 105.81 C3.81 98.47, 0.66 85.76, -0.13 74.74 C-0.92 63.73, 0.37 49.86, 1.56 39.72 C2.74 29.59, 4.75 20.28, 6.99 13.92 C9.22 7.56, 11.04 1.39, 14.96 1.57 C18.89 1.74, 27.91 11.84, 30.53 14.98 C33.16 18.11, 30.91 19.55, 30.71 20.37 M9.23 9.43 C11.76 3.29, 14.49 -2.59, 17.47 -2.29 C20.44 -1.99, 24.21 4.86, 27.08 11.22 C29.96 17.59, 33.39 25.36, 34.73 35.89 C36.07 46.43, 35.43 63.69, 35.12 74.45 C34.81 85.21, 35.27 93.18, 32.87 100.46 C30.47 107.73, 23.83 115.42, 20.71 118.11 C17.6 120.8, 16.82 119.92, 14.19 116.62 C11.56 113.31, 7.17 106.78, 4.93 98.29 C2.69 89.81, 1.08 76.42, 0.76 65.72 C0.45 55.01, 1.27 43.48, 3.06 34.08 C4.85 24.67, 10.22 13.63, 11.49 9.31 C12.76 4.99, 10.58 7.77, 10.66 8.17" stroke="transparent" stroke-width="1" fill="none"></path></g><g stroke-linecap="round" transform="translate(27.560658090763354 283.21710260487816) rotate(328.36021844476466 18.078980729815612 60.6937210215242)"><path d="M4.6 27.78 C5.58 18.8, 6.35 11.75, 9.13 6.94 C11.91 2.13, 17.78 -2.47, 21.27 -1.1 C24.75 0.27, 27.61 7.8, 30.03 15.16 C32.45 22.52, 34.67 32.47, 35.8 43.05 C36.92 53.64, 37.89 67.98, 36.79 78.67 C35.69 89.36, 31.87 100.01, 29.18 107.2 C26.49 114.39, 23.95 120.35, 20.65 121.82 C17.36 123.28, 12.05 120.9, 9.4 115.99 C6.75 111.08, 6.03 101.75, 4.74 92.35 C3.45 82.95, 1.76 72.39, 1.66 59.57 C1.56 46.76, 2.75 23.98, 4.11 15.47 C5.48 6.96, 9.69 7.59, 9.86 8.53 M20.39 4.86 C23.22 6.98, 26.47 13.11, 29.5 20.89 C32.53 28.67, 37.44 41.27, 38.56 51.53 C39.69 61.79, 37.64 72.64, 36.23 82.45 C34.83 92.26, 33.02 104.31, 30.13 110.4 C27.24 116.48, 22.47 118.93, 18.9 118.96 C15.33 119, 11.45 116.09, 8.7 110.6 C5.96 105.11, 4.24 95.35, 2.41 86.02 C0.58 76.7, -2.98 65.26, -2.26 54.67 C-1.53 44.08, 4.25 30.61, 6.77 22.49 C9.28 14.37, 10.44 9.5, 12.84 5.93 C15.25 2.36, 19.99 1.98, 21.21 1.07 C22.44 0.17, 20.27 -0.26, 20.17 0.51" stroke="none" stroke-width="0" fill="#82c91e"></path><path d="M17.65 1 C20.67 0.88, 25.33 4.84, 28.34 11.26 C31.35 17.68, 34.32 29.15, 35.71 39.52 C37.1 49.9, 37.47 62.97, 36.66 73.51 C35.85 84.05, 33.24 94.76, 30.87 102.77 C28.5 110.78, 25.76 119.14, 22.43 121.55 C19.1 123.97, 13.98 121.61, 10.91 117.27 C7.83 112.94, 5.8 104.2, 3.99 95.54 C2.18 86.87, 0.57 75.86, 0.05 65.3 C-0.47 54.74, -0.94 41.63, 0.85 32.2 C2.64 22.77, 6.94 13.66, 10.8 8.73 C14.66 3.81, 20.75 1.31, 24.02 2.63 C27.3 3.96, 30.58 15.6, 30.44 16.7 M10.17 1.59 C12.7 -3.12, 16.91 -1.02, 20.32 1.25 C23.74 3.52, 28.2 7.17, 30.64 15.23 C33.09 23.3, 33.99 38.96, 35.01 49.66 C36.04 60.36, 38.05 69.77, 36.77 79.41 C35.5 89.05, 29.93 100.75, 27.39 107.48 C24.84 114.21, 24.32 118.66, 21.52 119.79 C18.72 120.92, 13.68 119.32, 10.58 114.26 C7.49 109.19, 4.53 98.78, 2.95 89.4 C1.36 80.02, 0.58 68.56, 1.08 57.96 C1.59 47.36, 3.98 34.98, 5.98 25.82 C7.98 16.65, 11.79 6.7, 13.09 2.96 C14.39 -0.77, 13.97 2.8, 13.8 3.41" stroke="transparent" stroke-width="1" fill="none"></path></g><g stroke-linecap="round" transform="translate(94.63384563991167 89.95786840737583) rotate(0 26.940842553425 27.649425312160474)"><path d="M41.68 5.34 C46.22 8.25, 50.61 14.09, 52.34 20.11 C54.06 26.14, 54.37 35.9, 52.06 41.51 C49.75 47.11, 44.36 51.41, 38.48 53.76 C32.61 56.11, 22.51 57.82, 16.83 55.58 C11.16 53.34, 7.19 45.67, 4.43 40.33 C1.67 34.99, -0.56 29.29, 0.27 23.55 C1.09 17.8, 4.82 9.73, 9.38 5.86 C13.94 1.99, 20.76 -1.31, 27.61 0.32 C34.46 1.95, 46.16 11.01, 50.48 15.64 C54.8 20.27, 53.99 27.88, 53.52 28.1 M48.53 10.27 C51.58 14.63, 51.9 26.55, 50.98 32.38 C50.06 38.22, 46.85 41.34, 43 45.28 C39.16 49.21, 33.33 55.32, 27.91 56.01 C22.49 56.7, 15.39 52.57, 10.49 49.42 C5.58 46.27, 0.08 42.57, -1.53 37.1 C-3.13 31.64, -2.53 22.25, 0.85 16.64 C4.22 11.04, 12.88 6.39, 18.73 3.48 C24.58 0.57, 30.55 -2.22, 35.96 -0.83 C41.37 0.56, 48.98 9.99, 51.19 11.82 C53.39 13.66, 49.89 10.18, 49.2 10.17" stroke="none" stroke-width="0" fill="#d33210"></path><path d="M21.23 -0.89 C26.99 -2.52, 35.48 -0.16, 40.79 2.83 C46.11 5.82, 51.18 11.61, 53.14 17.05 C55.09 22.48, 54.49 29.46, 52.53 35.43 C50.57 41.4, 46.49 49.59, 41.38 52.84 C36.28 56.09, 27.62 56.28, 21.89 54.93 C16.17 53.59, 10.65 49.08, 7.01 44.77 C3.36 40.45, 0.41 34.58, 0.02 29.02 C-0.37 23.46, -1.36 15.75, 4.66 11.4 C10.67 7.06, 29.43 3.74, 36.12 2.95 C42.8 2.16, 44.92 6.2, 44.77 6.67 M13.66 5.01 C18.22 1.68, 24.75 -2.74, 30.15 -1.94 C35.56 -1.13, 42.17 5.28, 46.1 9.83 C50.03 14.39, 53.61 19.08, 53.74 25.38 C53.87 31.69, 50.26 43.1, 46.86 47.66 C43.45 52.22, 39.15 52.34, 33.32 52.73 C27.48 53.12, 16.78 52.85, 11.84 50 C6.9 47.16, 5.18 40.95, 3.66 35.67 C2.13 30.38, 0.95 23.74, 2.7 18.29 C4.46 12.85, 12.16 5.14, 14.17 3 C16.19 0.85, 14.29 4.69, 14.8 5.41" stroke="transparent" stroke-width="1" fill="none"></path></g><g stroke-linecap="round" transform="translate(30.401175970501754 115.85814589441998) rotate(0 26.940842553425 27.649425312160474)"><path d="M23.87 -1.9 C29.88 -2.46, 38.91 2.02, 44.04 5.87 C49.17 9.71, 53.73 15.26, 54.66 21.17 C55.6 27.07, 52.33 36.31, 49.64 41.29 C46.95 46.27, 43.51 48.87, 38.51 51.02 C33.52 53.18, 25.26 55.7, 19.68 54.22 C14.1 52.75, 8.06 46.99, 5.04 42.16 C2.01 37.34, 1.13 30.94, 1.54 25.27 C1.95 19.6, 2.09 12.05, 7.48 8.15 C12.88 4.25, 28.39 2.31, 33.89 1.85 C39.4 1.39, 40.34 5.23, 40.52 5.4 M44.08 10.75 C47.73 14.61, 50.7 18.39, 51.27 24.15 C51.83 29.9, 50.65 40.28, 47.47 45.28 C44.29 50.27, 38.08 52.48, 32.19 54.1 C26.31 55.72, 17.52 57.46, 12.17 55.01 C6.83 52.56, 1.5 45.16, 0.13 39.4 C-1.25 33.63, 1.61 26.6, 3.92 20.43 C6.23 14.27, 9.26 5.82, 14 2.39 C18.74 -1.05, 26.82 -0.9, 32.35 -0.19 C37.87 0.51, 44.8 5.33, 47.15 6.59 C49.49 7.84, 46.69 6.85, 46.4 7.33" stroke="none" stroke-width="0" fill="#d33210"></path><path d="M37.84 1.35 C43.33 3.26, 49.2 8.83, 51.8 13.97 C54.4 19.11, 54.71 26.03, 53.43 32.19 C52.15 38.36, 48.81 47.11, 44.1 50.96 C39.39 54.81, 30.96 55.91, 25.16 55.28 C19.35 54.65, 13.44 51, 9.29 47.19 C5.14 43.37, 1.35 37.89, 0.25 32.38 C-0.84 26.87, -0.56 19.02, 2.73 14.13 C6.02 9.23, 14.07 5.15, 19.99 2.99 C25.92 0.82, 34.63 0.56, 38.26 1.14 C41.89 1.71, 42.01 5.85, 41.78 6.43 M15.89 -0.56 C20.61 -3.12, 28.63 -0.48, 34.31 1.48 C39.98 3.44, 46.85 5.74, 49.94 11.21 C53.03 16.67, 53.44 28.42, 52.83 34.29 C52.21 40.16, 50.78 43.19, 46.26 46.43 C41.74 49.66, 31.42 53.51, 25.7 53.72 C19.98 53.92, 15.98 51.12, 11.95 47.66 C7.93 44.2, 2.86 38.65, 1.55 32.95 C0.24 27.25, 1.3 18.45, 4.11 13.46 C6.92 8.48, 15.77 4.7, 18.42 3.04 C21.07 1.38, 19.78 3.46, 20.01 3.52" stroke="transparent" stroke-width="1" fill="none"></path></g><g stroke-linecap="round" transform="translate(68.43391000638121 169.2502532909466) rotate(0 26.940842553425 27.649425312160474)"><path d="M19.82 2.13 C25.35 0.41, 33.58 -0.01, 38.45 2.33 C43.32 4.67, 46.46 11.32, 49.02 16.16 C51.57 21, 54.67 25.85, 53.78 31.36 C52.89 36.87, 48.22 45.43, 43.69 49.23 C39.15 53.04, 32.08 54.27, 26.55 54.18 C21.02 54.08, 14.98 52.36, 10.5 48.67 C6.02 44.97, 0.75 37.73, -0.31 31.98 C-1.37 26.23, 0.89 19.29, 4.15 14.16 C7.41 9.03, 15.89 3.51, 19.22 1.21 C22.56 -1.1, 23.6 0.03, 24.16 0.34 M7.79 3.52 C12.22 -0.38, 20.98 0.28, 27.09 0.79 C33.19 1.3, 40.4 2.26, 44.44 6.58 C48.48 10.89, 50.75 20.53, 51.32 26.68 C51.89 32.84, 50.09 38.79, 47.86 43.52 C45.62 48.25, 42.83 53.78, 37.9 55.08 C32.98 56.38, 23.81 53.83, 18.33 51.34 C12.85 48.86, 7.91 45.48, 5 40.17 C2.1 34.85, 0.03 25.53, 0.92 19.47 C1.81 13.41, 8.63 6.24, 10.36 3.81 C12.08 1.38, 11.39 4.03, 11.27 4.89" stroke="none" stroke-width="0" fill="#d33210"></path><path d="M11.04 5.19 C15.03 1.28, 21.97 -1.93, 27.71 -1.42 C33.44 -0.91, 41.24 4.1, 45.45 8.24 C49.66 12.38, 52.1 17.96, 52.94 23.45 C53.79 28.93, 53.4 35.88, 50.51 41.13 C47.62 46.38, 41.43 52.67, 35.63 54.94 C29.83 57.2, 20.89 56.79, 15.7 54.74 C10.51 52.69, 7.17 48.38, 4.49 42.66 C1.82 36.93, -3.06 27.02, -0.37 20.4 C2.33 13.79, 15.74 6.39, 20.64 2.97 C25.55 -0.46, 29.26 -0.29, 29.08 -0.14 M36.92 2.57 C42.25 4.66, 48.7 8, 51.25 13.76 C53.81 19.52, 53.43 31.38, 52.23 37.12 C51.03 42.86, 48.93 45.45, 44.04 48.2 C39.15 50.95, 28.58 54.02, 22.89 53.6 C17.19 53.19, 13.49 49.64, 9.87 45.72 C6.25 41.8, 1.88 35.87, 1.17 30.09 C0.46 24.3, 2.29 15.67, 5.61 11.02 C8.93 6.36, 15.23 3.35, 21.1 2.16 C26.98 0.96, 37.76 3.84, 40.85 3.84 C43.93 3.83, 39.87 2.21, 39.61 2.14" stroke="transparent" stroke-width="1" fill="none"></path></g><g stroke-linecap="round" transform="translate(43.5663531367677 276.0344680839835) rotate(0 26.940842553425 27.649425312160474)"><path d="M6.05 12.88 C8.27 8.14, 12.26 4.94, 17.59 2.87 C22.92 0.8, 32.46 -1.6, 38.03 0.45 C43.6 2.5, 48.41 9.76, 50.98 15.16 C53.56 20.57, 54.57 27.07, 53.48 32.89 C52.4 38.72, 49.24 46.36, 44.46 50.13 C39.68 53.89, 30.76 55.74, 24.79 55.51 C18.82 55.28, 12.91 52.79, 8.65 48.74 C4.38 44.69, -1.22 38.29, -0.82 31.22 C-0.43 24.15, 8.07 11.05, 11.01 6.32 C13.95 1.6, 17.06 2.73, 16.81 2.88 M41.01 5.39 C46.11 8.5, 50.84 13.26, 52.23 19.28 C53.62 25.31, 51.86 35.84, 49.33 41.56 C46.79 47.28, 41.36 51.25, 37.01 53.6 C32.67 55.95, 28.32 57.56, 23.28 55.65 C18.24 53.74, 10.33 47.16, 6.77 42.14 C3.21 37.11, 1.75 31.48, 1.92 25.49 C2.08 19.5, 4.08 10.75, 7.75 6.19 C11.41 1.63, 18.13 -1.36, 23.91 -1.86 C29.68 -2.35, 39.86 1.91, 42.4 3.22 C44.95 4.54, 39.06 5.37, 39.17 6.03" stroke="none" stroke-width="0" fill="#d33210"></path><path d="M17.34 0.46 C22.28 -1.53, 30.99 0.7, 36.33 2.84 C41.66 4.98, 46.37 8.6, 49.34 13.29 C52.3 17.98, 54.87 24.93, 54.11 30.97 C53.34 37.01, 49.42 45.25, 44.74 49.53 C40.07 53.8, 31.65 56.38, 26.07 56.61 C20.49 56.84, 15.67 55.16, 11.27 50.93 C6.86 46.7, 0.78 36.98, -0.36 31.21 C-1.5 25.43, -0.45 21.6, 4.4 16.28 C9.25 10.95, 22.66 1.12, 28.72 -0.74 C34.77 -2.6, 40.45 4.68, 40.72 5.13 M7.72 5.84 C11.48 1.98, 17.79 2.83, 23.85 2.33 C29.91 1.83, 39.5 0.07, 44.08 2.82 C48.67 5.58, 49.79 13.03, 51.34 18.88 C52.9 24.72, 55.4 32.23, 53.41 37.89 C51.43 43.54, 44.89 50.18, 39.43 52.81 C33.98 55.44, 26.27 55.01, 20.69 53.67 C15.11 52.33, 8.96 49.31, 5.94 44.78 C2.91 40.25, 1.98 32.76, 2.54 26.48 C3.1 20.21, 8.01 10.41, 9.29 7.13 C10.58 3.86, 10.22 6.84, 10.26 6.83" stroke="transparent" stroke-width="1" fill="none"></path></g><g stroke-linecap="round" transform="translate(37.50209133444241 42.66730998176354) rotate(0 31.249667849988327 29.411452094107062)"><path d="M35.91 1.3 C42.14 1.79, 51 4.94, 55.43 9.63 C59.86 14.31, 62.5 23.05, 62.49 29.41 C62.47 35.77, 59.52 42.93, 55.33 47.78 C51.14 52.64, 44.02 57.33, 37.35 58.54 C30.68 59.74, 21.19 58.1, 15.3 54.99 C9.4 51.89, 4.28 45.84, 1.96 39.93 C-0.35 34.01, -1.05 25.55, 1.39 19.49 C3.84 13.44, 9.97 6.67, 16.63 3.6 C23.29 0.53, 36.9 1.28, 41.34 1.06 C45.78 0.83, 43.44 1.88, 43.25 2.25 M19.17 1.9 C24.79 -0.53, 33.4 0.76, 39.66 2.84 C45.92 4.91, 52.76 9.15, 56.74 14.34 C60.72 19.53, 64.17 27.99, 63.54 33.97 C62.92 39.96, 58.02 46.14, 52.99 50.24 C47.96 54.34, 40.16 58.38, 33.37 58.58 C26.59 58.79, 17.7 55.44, 12.25 51.45 C6.81 47.45, 2.09 40.68, 0.69 34.6 C-0.7 28.53, 0.96 20.32, 3.89 14.99 C6.82 9.67, 15.41 4.68, 18.26 2.66 C21.11 0.63, 20.6 2.23, 21.02 2.86" stroke="none" stroke-width="0" fill="#82c91e"></path><path d="M24.68 1.43 C30.73 -0.15, 39.27 0.56, 45.21 3.25 C51.15 5.94, 57.67 11.67, 60.32 17.57 C62.97 23.47, 63.26 32.44, 61.12 38.65 C58.97 44.85, 52.98 51.32, 47.45 54.78 C41.92 58.25, 34.53 60.5, 27.93 59.44 C21.34 58.39, 12.45 53.08, 7.89 48.48 C3.33 43.87, 0.93 38.03, 0.58 31.82 C0.24 25.6, 1.1 16.48, 5.83 11.2 C10.55 5.91, 24.12 1.94, 28.94 0.12 C33.75 -1.71, 34.76 -0.16, 34.72 0.23 M30.58 1.11 C37.09 0.69, 46.86 1.93, 51.95 5.61 C57.05 9.3, 59.91 16.97, 61.16 23.22 C62.42 29.48, 62.55 37.52, 59.49 43.15 C56.42 48.78, 49.15 54.73, 42.77 57.01 C36.39 59.28, 27.52 58.8, 21.2 56.8 C14.88 54.8, 8.13 50.26, 4.87 44.99 C1.61 39.73, 0.51 31.6, 1.64 25.2 C2.77 18.8, 6.59 10.92, 11.64 6.58 C16.69 2.24, 28.74 0.41, 31.94 -0.84 C35.14 -2.09, 31.07 -1.41, 30.83 -0.91" stroke="#e67700" stroke-width="1" fill="none"></path></g><g stroke-linecap="round" transform="translate(45.29546692856729 36.395952060327545) rotate(0 6.6175767211739185 9.643127539243324)"><path d="M7.5 -0.85 C8.98 -0.93, 10.37 1.35, 11.35 2.89 C12.33 4.42, 13.15 6.28, 13.38 8.37 C13.6 10.46, 13.6 13.64, 12.7 15.43 C11.79 17.22, 9.42 18.55, 7.94 19.12 C6.47 19.68, 5.14 19.7, 3.83 18.81 C2.52 17.92, 0.51 15.79, 0.08 13.77 C-0.35 11.75, 0.62 8.76, 1.23 6.7 C1.84 4.64, 2.55 2.58, 3.72 1.41 C4.9 0.24, 7.07 -0.25, 8.28 -0.3 C9.48 -0.36, 11.01 0.81, 10.96 1.07 M6.32 1.51 C7.55 1.78, 9.16 2.33, 10.53 3.71 C11.91 5.09, 14.21 7.96, 14.56 9.77 C14.91 11.57, 13.56 13.02, 12.63 14.53 C11.7 16.05, 10.48 18.42, 8.99 18.84 C7.51 19.25, 5.15 18.09, 3.74 17 C2.32 15.92, 1.02 14.16, 0.5 12.33 C-0.03 10.51, 0.36 7.79, 0.58 6.07 C0.81 4.34, 0.49 2.97, 1.86 2 C3.23 1.02, 7.84 0.25, 8.8 0.21 C9.76 0.17, 7.98 1.7, 7.62 1.76" stroke="none" stroke-width="0" fill="#fab005"></path><path d="M4 0.61 C5.21 -0.38, 7.71 -0.66, 9.1 0.13 C10.49 0.91, 11.79 3.35, 12.34 5.31 C12.89 7.28, 12.54 9.82, 12.4 11.91 C12.26 13.99, 12.52 16.76, 11.49 17.84 C10.46 18.91, 7.65 18.32, 6.22 18.36 C4.8 18.39, 4.05 19.26, 2.95 18.03 C1.84 16.79, -0.01 13.12, -0.41 10.94 C-0.82 8.76, -0.49 6.8, 0.5 4.94 C1.49 3.08, 4.76 0.63, 5.53 -0.24 C6.3 -1.1, 5.18 -0.48, 5.12 -0.25 M5.01 -0.38 C6.16 -1.55, 6.5 -1.02, 7.87 -0.31 C9.25 0.39, 12.29 1.95, 13.26 3.85 C14.23 5.74, 14.02 8.97, 13.7 11.07 C13.39 13.18, 12.43 15.01, 11.37 16.48 C10.32 17.95, 8.62 19.67, 7.35 19.9 C6.08 20.13, 4.83 19.29, 3.75 17.83 C2.67 16.37, 1.18 13.39, 0.86 11.13 C0.53 8.87, 1.26 6.24, 1.79 4.25 C2.32 2.27, 3.72 -0.11, 4.04 -0.8 C4.36 -1.49, 3.91 -0.45, 3.72 0.12" stroke="#fab005" stroke-width="1" fill="none"></path></g><g stroke-linecap="round" transform="translate(93.68192009906807 47.584169650728654) rotate(0 7.352863023526652 8.088149325879385)"><path d="M10.37 0.69 C11.76 1.33, 13.34 2.44, 14.14 4.03 C14.94 5.62, 15.65 8.45, 15.18 10.25 C14.72 12.04, 12.72 13.72, 11.34 14.79 C9.95 15.85, 8.49 16.76, 6.89 16.64 C5.28 16.51, 2.69 15.39, 1.71 14.04 C0.73 12.7, 0.95 10.35, 1.02 8.56 C1.08 6.76, 1.5 4.79, 2.11 3.26 C2.73 1.73, 3.17 -0.08, 4.71 -0.61 C6.25 -1.15, 10.42 -0.21, 11.35 0.06 C12.28 0.33, 10.4 0.78, 10.29 1.02 M5.73 0.63 C7.62 0.23, 11.3 1.28, 12.88 2.01 C14.46 2.73, 14.86 3.46, 15.2 5 C15.55 6.54, 15.72 9.73, 14.96 11.26 C14.2 12.79, 12.23 13.6, 10.65 14.2 C9.07 14.81, 6.97 15.25, 5.47 14.89 C3.96 14.54, 2.73 13.23, 1.63 12.06 C0.52 10.89, -1.47 9.48, -1.16 7.89 C-0.86 6.31, 2.13 3.59, 3.47 2.53 C4.8 1.46, 6.43 1.99, 6.85 1.53 C7.26 1.06, 6.18 0.06, 5.96 -0.27" stroke="none" stroke-width="0" fill="#fab005"></path><path d="M10.11 0.05 C11.6 0.6, 13.09 2.89, 13.72 4.57 C14.34 6.25, 14.03 8.37, 13.86 10.12 C13.69 11.88, 13.84 14.26, 12.68 15.12 C11.53 15.97, 8.52 15.22, 6.94 15.25 C5.36 15.27, 4.42 16.28, 3.19 15.26 C1.97 14.23, 0.02 10.93, -0.41 9.08 C-0.84 7.22, -0.33 5.64, 0.61 4.13 C1.55 2.62, 3.7 0.62, 5.25 0 C6.8 -0.62, 8.89 0.14, 9.92 0.39 C10.94 0.64, 11.46 1.34, 11.4 1.5 M9.21 -0.24 C10.66 0.32, 13.83 1.82, 14.82 3.48 C15.8 5.14, 15.52 7.96, 15.1 9.72 C14.68 11.48, 13.53 12.87, 12.3 14.04 C11.07 15.22, 9.15 16.67, 7.72 16.79 C6.29 16.92, 4.88 16.1, 3.73 14.78 C2.58 13.45, 1.08 10.78, 0.8 8.83 C0.52 6.88, 1.39 4.71, 2.07 3.06 C2.75 1.41, 3.63 -0.52, 4.87 -1.06 C6.11 -1.61, 8.93 -0.67, 9.53 -0.2 C10.13 0.27, 8.35 1.31, 8.47 1.76" stroke="#fab005" stroke-width="1" fill="none"></path></g><g stroke-linecap="round" transform="translate(32.93145046521431 57.52866302986695) rotate(0 6.6175767211739185 6.889923973005807)"><path d="M3.89 0.13 C5.19 -0.53, 7.64 -0.11, 8.94 0.36 C10.24 0.84, 10.95 1.73, 11.68 2.98 C12.41 4.23, 13.44 6.39, 13.31 7.87 C13.17 9.35, 11.7 10.93, 10.86 11.86 C10.02 12.78, 9.46 13.34, 8.27 13.42 C7.09 13.49, 5.18 13.26, 3.73 12.33 C2.29 11.4, 0.02 9.38, -0.41 7.86 C-0.84 6.34, 0.38 4.53, 1.16 3.21 C1.95 1.88, 3.37 0.46, 4.31 -0.09 C5.24 -0.63, 6.64 -0.07, 6.76 -0.05 M10.98 1.32 C12.5 1.63, 12.99 2.03, 13.47 3.26 C13.96 4.49, 14.39 7.34, 13.87 8.71 C13.35 10.08, 11.71 10.82, 10.36 11.48 C9.01 12.15, 7.16 12.81, 5.78 12.71 C4.39 12.61, 3.2 11.71, 2.04 10.88 C0.88 10.04, -1.29 9.04, -1.18 7.7 C-1.07 6.37, 1.6 3.86, 2.68 2.86 C3.77 1.85, 4.28 2.09, 5.32 1.66 C6.36 1.23, 8.4 0.65, 8.9 0.29 C9.41 -0.06, 8.43 -0.45, 8.37 -0.45" stroke="none" stroke-width="0" fill="#fab005"></path><path d="M6.64 0.55 C7.82 0.65, 8.96 1.28, 10.14 2.28 C11.32 3.28, 13.43 5.37, 13.72 6.56 C14.01 7.75, 12.62 8.12, 11.9 9.42 C11.18 10.71, 10.76 13.74, 9.41 14.32 C8.07 14.91, 5.3 13.57, 3.82 12.91 C2.34 12.26, 1.06 11.67, 0.52 10.38 C-0.03 9.09, 0.36 6.73, 0.54 5.18 C0.72 3.64, 0.43 1.97, 1.59 1.11 C2.74 0.24, 6.49 0.18, 7.48 0.01 C8.48 -0.15, 7.45 -0.08, 7.56 0.14 M5.31 -0.27 C6.77 -0.7, 8.13 -0.1, 9.35 0.45 C10.58 1, 11.94 1.67, 12.66 3.04 C13.38 4.4, 13.75 7.02, 13.67 8.64 C13.58 10.25, 13.19 11.95, 12.14 12.73 C11.1 13.5, 8.85 13.51, 7.4 13.28 C5.95 13.06, 4.65 12.48, 3.42 11.37 C2.19 10.27, 0.51 8.1, 0 6.66 C-0.51 5.22, -0.1 3.62, 0.37 2.76 C0.84 1.9, 2.06 1.67, 2.81 1.5 C3.56 1.34, 4.53 2.06, 4.86 1.79" stroke="#fab005" stroke-width="1" fill="none"></path></g><g stroke-linecap="round" transform="translate(96.11133134549345 72.66501348530983) rotate(0 6.6175767211739185 7.770949114201358)"><path d="M7.23 0.16 C8.5 0.15, 9.5 0.77, 10.5 1.87 C11.49 2.98, 12.97 5.15, 13.21 6.79 C13.44 8.44, 12.43 10.41, 11.89 11.73 C11.35 13.05, 11.05 14.19, 9.95 14.71 C8.85 15.23, 6.89 15.49, 5.27 14.85 C3.66 14.2, 1.04 12.37, 0.27 10.84 C-0.49 9.31, 0.46 7.21, 0.67 5.67 C0.88 4.13, 0.4 2.59, 1.52 1.61 C2.64 0.64, 6.39 0.19, 7.39 -0.16 C8.39 -0.51, 7.42 -0.56, 7.53 -0.5 M8.68 -0.81 C9.95 -0.73, 11.93 1.44, 12.72 2.7 C13.51 3.96, 13.59 5.23, 13.4 6.76 C13.2 8.29, 12.49 10.56, 11.57 11.89 C10.66 13.22, 9.49 14.26, 7.89 14.76 C6.29 15.26, 3.02 15.61, 1.98 14.88 C0.95 14.16, 1.91 11.8, 1.68 10.39 C1.45 8.98, 0.45 8.08, 0.62 6.43 C0.79 4.78, 1.69 1.75, 2.71 0.48 C3.72 -0.79, 5.97 -0.97, 6.71 -1.18 C7.44 -1.4, 6.78 -0.9, 7.1 -0.79" stroke="none" stroke-width="0" fill="#fab005"></path><path d="M4.47 0.84 C5.86 0.45, 8.97 1.23, 10.28 1.74 C11.58 2.25, 11.77 2.33, 12.3 3.89 C12.83 5.45, 13.91 9.42, 13.47 11.08 C13.02 12.75, 10.98 13.15, 9.63 13.89 C8.28 14.63, 6.62 15.76, 5.37 15.53 C4.13 15.3, 3.19 13.83, 2.16 12.51 C1.14 11.18, -0.65 9.18, -0.78 7.59 C-0.92 6, 0.31 4.28, 1.36 2.97 C2.41 1.67, 4.41 0.14, 5.54 -0.23 C6.67 -0.59, 8.13 0.7, 8.14 0.78 M5.43 0.33 C6.6 -0.12, 8.46 -0.42, 9.75 0.37 C11.03 1.17, 12.39 3.43, 13.13 5.09 C13.88 6.76, 14.56 8.95, 14.23 10.37 C13.9 11.8, 12.33 12.92, 11.14 13.63 C9.94 14.35, 8.61 14.98, 7.06 14.67 C5.51 14.36, 3.08 12.94, 1.83 11.78 C0.58 10.62, -0.1 8.94, -0.46 7.71 C-0.81 6.48, -1.27 5.43, -0.29 4.39 C0.69 3.35, 4.5 2.35, 5.42 1.49 C6.34 0.63, 5.08 -0.76, 5.23 -0.78" stroke="#fab005" stroke-width="1" fill="none"></path></g><g stroke-linecap="round" transform="translate(68.38081997918789 58.2540611700133) rotate(0 7.352863023526652 8.088149325879385)"><path d="M5.03 0.44 C6.35 -0.06, 9.04 0.47, 10.44 1.19 C11.85 1.9, 12.63 3.3, 13.46 4.72 C14.3 6.15, 15.63 8.12, 15.47 9.73 C15.3 11.34, 14.05 13.46, 12.5 14.38 C10.95 15.29, 7.78 15.46, 6.17 15.24 C4.55 15.02, 3.97 14.13, 2.82 13.03 C1.67 11.94, -0.52 10.26, -0.74 8.65 C-0.95 7.03, 0.35 4.93, 1.52 3.37 C2.69 1.81, 5.1 -0.07, 6.27 -0.71 C7.44 -1.35, 8.42 -0.88, 8.53 -0.47 M9.66 -0.08 C11.04 0.09, 12.37 0.56, 13.21 1.77 C14.05 2.98, 14.69 5.36, 14.69 7.18 C14.69 8.99, 14.43 11.11, 13.21 12.67 C11.98 14.23, 8.73 16.13, 7.35 16.55 C5.97 16.97, 6.06 15.89, 4.93 15.17 C3.8 14.46, 1.44 13.98, 0.58 12.25 C-0.29 10.51, -0.59 6.85, -0.26 4.75 C0.06 2.66, 1.18 0.65, 2.54 -0.3 C3.91 -1.26, 6.76 -0.81, 7.93 -0.95 C9.1 -1.09, 9.6 -1.69, 9.55 -1.15" stroke="none" stroke-width="0" fill="#fab005"></path><path d="M9.95 1.16 C11.46 1.24, 12.12 1.17, 13 2.62 C13.87 4.07, 15.39 8.06, 15.21 9.87 C15.04 11.67, 13.23 12.39, 11.95 13.45 C10.67 14.5, 8.93 16.1, 7.52 16.21 C6.11 16.33, 4.83 15.26, 3.49 14.15 C2.14 13.04, -0.1 11.17, -0.56 9.57 C-1.03 7.96, 0.02 6.03, 0.72 4.51 C1.41 3, 1.88 1.02, 3.58 0.47 C5.28 -0.08, 9.82 1.17, 10.92 1.19 C12.02 1.22, 10.43 0.5, 10.17 0.64 M5.98 -0.12 C7.41 -0.52, 9.6 0.54, 11.15 1.47 C12.71 2.4, 14.65 4.06, 15.31 5.46 C15.97 6.87, 15.6 8.47, 15.12 9.89 C14.64 11.31, 13.87 13.2, 12.42 13.99 C10.97 14.78, 8.22 14.81, 6.41 14.63 C4.59 14.45, 2.85 13.74, 1.54 12.91 C0.22 12.08, -1.54 11.05, -1.47 9.65 C-1.4 8.25, 0.73 6.27, 1.97 4.5 C3.2 2.73, 5.11 -0.34, 5.93 -0.98 C6.76 -1.61, 7.19 0.38, 6.94 0.71" stroke="#fab005" stroke-width="1" fill="none"></path></g><g stroke-linecap="round" transform="translate(73.0193861867383 36.75865113040345) rotate(0 7.352863023526652 8.088149325879385)"><path d="M8.01 0.51 C9.48 0.54, 10.73 1.41, 12 2.48 C13.27 3.56, 15.28 5.33, 15.65 6.98 C16.03 8.63, 15.41 11.07, 14.25 12.4 C13.08 13.73, 10.22 14.6, 8.66 14.97 C7.1 15.33, 6.35 15.2, 4.89 14.59 C3.44 13.98, 0.68 12.75, -0.06 11.3 C-0.79 9.85, 0 7.64, 0.49 5.88 C0.98 4.12, 1.3 1.79, 2.9 0.74 C4.49 -0.31, 8.78 -0.56, 10.06 -0.4 C11.35 -0.24, 10.72 1.37, 10.59 1.69 M5.19 -0.79 C6.43 -1.54, 8.56 -1.17, 10.05 -0.45 C11.53 0.27, 13.55 1.77, 14.1 3.54 C14.65 5.32, 13.51 8.35, 13.37 10.19 C13.23 12.03, 14.27 13.31, 13.26 14.56 C12.25 15.8, 9.24 17.81, 7.32 17.66 C5.4 17.52, 3.14 15.29, 1.73 13.67 C0.32 12.05, -0.9 9.75, -1.14 7.94 C-1.38 6.12, -0.88 4.25, 0.29 2.76 C1.46 1.26, 5.25 -0.89, 5.89 -1.04 C6.52 -1.18, 4.45 1.34, 4.1 1.9" stroke="none" stroke-width="0" fill="#fab005"></path><path d="M9.29 -0.49 C10.73 -0.04, 13.39 3.3, 14.19 4.86 C14.99 6.43, 14.49 7.33, 14.09 8.89 C13.7 10.45, 12.85 13.11, 11.82 14.24 C10.8 15.37, 9.58 15.74, 7.94 15.68 C6.29 15.62, 3.25 14.9, 1.95 13.89 C0.65 12.87, 0.42 11.26, 0.12 9.6 C-0.18 7.94, -0.74 5.36, 0.15 3.95 C1.04 2.53, 3.89 1.76, 5.44 1.12 C7 0.48, 8.72 0, 9.49 0.1 C10.27 0.2, 10.09 1.42, 10.08 1.7 M8.02 0.62 C9.67 0.71, 12.19 1.65, 13.41 2.6 C14.63 3.56, 15.13 4.88, 15.33 6.35 C15.54 7.82, 15.6 10.12, 14.65 11.43 C13.7 12.75, 11.35 13.67, 9.61 14.25 C7.87 14.82, 5.91 15.08, 4.22 14.88 C2.52 14.68, 0.02 14.24, -0.57 13.05 C-1.16 11.87, 0.06 9.82, 0.67 7.75 C1.27 5.67, 1.69 1.82, 3.04 0.59 C4.39 -0.65, 8.26 0.4, 8.78 0.33 C9.29 0.26, 6.37 0.03, 6.14 0.15" stroke="#fab005" stroke-width="1" fill="none"></path></g><g stroke-linecap="round" transform="translate(33.0389284523435 79.16651585425097) rotate(0 7.352863023526652 8.088149325879385)"><path d="M7.31 0.18 C8.96 0.05, 12.04 0.78, 13.41 1.91 C14.77 3.03, 15.59 5.3, 15.49 6.93 C15.39 8.55, 13.73 10.31, 12.81 11.65 C11.9 13, 11.54 14.39, 10.01 14.98 C8.48 15.58, 5.13 15.8, 3.63 15.22 C2.13 14.64, 1.62 13.13, 1.02 11.5 C0.42 9.86, -0.46 7.17, 0.02 5.41 C0.51 3.65, 2.44 1.67, 3.94 0.94 C5.45 0.2, 8.07 1.01, 9.04 1.02 C10.02 1.03, 9.99 0.91, 9.79 1 M6.81 -0.99 C8.32 -1.13, 10.86 -0.43, 11.94 0.84 C13.02 2.1, 12.73 4.77, 13.29 6.59 C13.85 8.41, 15.77 10.02, 15.3 11.75 C14.84 13.48, 12.31 16.35, 10.53 16.96 C8.74 17.57, 6.35 16.34, 4.61 15.4 C2.86 14.45, 0.95 12.83, 0.05 11.29 C-0.84 9.75, -1.26 7.91, -0.76 6.17 C-0.25 4.43, 1.99 1.64, 3.09 0.83 C4.19 0.03, 5.47 1.28, 5.85 1.35 C6.23 1.43, 5.22 1.21, 5.36 1.3" stroke="none" stroke-width="0" fill="#fab005"></path><path d="M10.93 1.68 C12.32 2.34, 12.93 2.73, 13.46 4.15 C13.99 5.56, 14.34 8.49, 14.11 10.16 C13.88 11.83, 13.43 13.25, 12.07 14.17 C10.72 15.08, 7.65 15.71, 6 15.65 C4.36 15.6, 3.31 14.99, 2.19 13.82 C1.07 12.65, -0.7 10.27, -0.73 8.64 C-0.75 7.02, 1.13 5.57, 2.02 4.09 C2.92 2.61, 3.08 0.03, 4.66 -0.24 C6.23 -0.51, 10.12 1.82, 11.46 2.48 C12.79 3.15, 12.67 3.72, 12.69 3.75 M7.72 0.66 C9.23 0.18, 10.83 0.12, 12.11 0.84 C13.39 1.55, 15.09 3.44, 15.4 4.93 C15.72 6.42, 14.86 8.19, 13.99 9.8 C13.12 11.4, 11.8 13.37, 10.17 14.57 C8.53 15.77, 5.53 17.09, 4.17 17.02 C2.81 16.95, 2.62 15.91, 1.98 14.14 C1.34 12.37, 0.1 8.29, 0.31 6.41 C0.53 4.54, 2.47 3.93, 3.28 2.86 C4.09 1.8, 4.62 0.44, 5.15 0.04 C5.68 -0.36, 6.37 0.14, 6.48 0.46" stroke="#fab005" stroke-width="1" fill="none"></path></g><g stroke-linecap="round" transform="translate(77.42780794678629 93.40206484409191) rotate(0 7.352863023526652 8.088149325879385)"><path d="M10.09 -0.09 C11.79 0.13, 13.46 1.75, 14.12 3.05 C14.77 4.35, 14.17 6.08, 14.03 7.71 C13.88 9.34, 14.35 11.47, 13.24 12.82 C12.13 14.18, 8.99 15.55, 7.37 15.85 C5.75 16.15, 4.73 15.67, 3.52 14.62 C2.31 13.58, 0.43 11.31, 0.11 9.57 C-0.22 7.83, 0.84 5.49, 1.58 4.18 C2.31 2.87, 3.01 2.23, 4.51 1.72 C6 1.21, 9.57 1.09, 10.57 1.13 C11.57 1.17, 10.63 1.91, 10.5 1.97 M4.77 -0.06 C5.92 -0.54, 6.64 0.19, 8.32 0.83 C10 1.48, 13.78 2.2, 14.86 3.83 C15.94 5.45, 15.36 8.96, 14.82 10.58 C14.28 12.2, 13 12.83, 11.62 13.54 C10.24 14.25, 8.1 14.84, 6.51 14.83 C4.93 14.81, 3.04 14.51, 2.12 13.45 C1.21 12.38, 1.42 9.73, 1.04 8.45 C0.66 7.16, -0.5 6.85, -0.17 5.74 C0.16 4.62, 2.27 2.4, 3.02 1.75 C3.77 1.1, 3.81 1.69, 4.34 1.83" stroke="none" stroke-width="0" fill="#fab005"></path><path d="M3.53 0.41 C4.68 -0.57, 7 -0.11, 8.69 0.28 C10.38 0.67, 12.82 1.47, 13.69 2.77 C14.56 4.06, 14.08 6.26, 13.91 8.06 C13.74 9.87, 13.76 12.29, 12.68 13.59 C11.6 14.9, 8.88 15.58, 7.44 15.89 C6 16.19, 5.36 16.42, 4.05 15.42 C2.74 14.41, 0.25 11.51, -0.41 9.87 C-1.07 8.22, -0.72 7.07, 0.08 5.56 C0.88 4.06, 3.44 1.67, 4.38 0.84 C5.33 0.01, 5.68 0.47, 5.76 0.6 M9.57 -0.32 C11.02 -0.33, 13.3 1.05, 14.14 2.25 C14.97 3.44, 14.88 5.1, 14.59 6.85 C14.29 8.6, 13.63 11.02, 12.35 12.73 C11.07 14.45, 8.31 16.58, 6.91 17.16 C5.52 17.73, 5.04 17.47, 4 16.18 C2.96 14.89, 1.03 11.21, 0.67 9.41 C0.3 7.62, 1.49 6.82, 1.8 5.41 C2.11 4, 1.36 1.78, 2.53 0.94 C3.7 0.11, 7.9 0.34, 8.82 0.41 C9.73 0.49, 7.97 1.37, 8 1.39" stroke="#fab005" stroke-width="1" fill="none"></path></g><g stroke-linecap="round" transform="translate(54.20001211139106 64.51882698331883) rotate(0 7.352863023526652 8.088149325879385)"><path d="M8.8 -0.23 C10.03 -0.3, 10.8 0.32, 11.87 1.44 C12.95 2.56, 15.14 4.66, 15.26 6.5 C15.39 8.33, 13.57 10.9, 12.61 12.43 C11.66 13.97, 10.96 15.34, 9.53 15.71 C8.11 16.08, 5.4 15.46, 4.08 14.66 C2.77 13.86, 2.22 12.18, 1.65 10.89 C1.07 9.6, 0.33 8.39, 0.64 6.91 C0.95 5.42, 2.26 3, 3.49 1.98 C4.73 0.95, 7.1 0.99, 8.05 0.76 C9.01 0.53, 9.27 0.56, 9.22 0.59 M3.72 0.94 C5.28 0.43, 9.57 -0.13, 11.27 0.65 C12.97 1.43, 13.5 4.2, 13.93 5.61 C14.35 7.02, 14.36 7.87, 13.84 9.11 C13.32 10.34, 12.03 12.01, 10.81 13 C9.58 14, 7.71 15.12, 6.48 15.08 C5.25 15.04, 4.65 13.5, 3.42 12.78 C2.2 12.05, -0.23 12.02, -0.88 10.74 C-1.52 9.46, -1.38 6.62, -0.45 5.09 C0.48 3.55, 3.56 2.04, 4.7 1.51 C5.84 0.97, 6.09 1.91, 6.38 1.86" stroke="none" stroke-width="0" fill="#fab005"></path><path d="M10.36 0.96 C11.9 1.62, 14.04 2.97, 14.58 4.47 C15.11 5.98, 14.13 8.27, 13.59 10 C13.04 11.73, 12.62 13.87, 11.3 14.85 C9.98 15.83, 7.09 15.99, 5.65 15.87 C4.22 15.76, 3.75 15.47, 2.69 14.14 C1.63 12.82, -0.43 9.64, -0.71 7.93 C-1 6.22, -0.02 5.09, 0.98 3.86 C1.98 2.64, 3.51 0.93, 5.27 0.55 C7.03 0.18, 10.43 1.31, 11.54 1.63 C12.64 1.95, 11.88 2.27, 11.87 2.48 M9.83 -0.68 C11.17 -0.62, 12.26 0.19, 12.99 1.56 C13.72 2.93, 14.49 5.39, 14.22 7.55 C13.95 9.71, 12.25 12.89, 11.37 14.51 C10.5 16.14, 10.23 17.43, 8.96 17.31 C7.7 17.19, 5.03 14.84, 3.81 13.78 C2.59 12.73, 2.43 12.43, 1.65 10.98 C0.88 9.54, -1.2 6.73, -0.84 5.11 C-0.48 3.48, 2.33 1.87, 3.8 1.22 C5.27 0.57, 7.12 1.45, 7.99 1.22 C8.86 1, 8.88 -0.11, 9.02 -0.13" stroke="#fab005" stroke-width="1" fill="none"></path></g><g stroke-linecap="round" transform="translate(32.162086325400196 25.576289684830954) rotate(332.96913974015825 4.661225277209951 17.036055190224488)"><path d="M3.24 -0.69 C4.12 -1.57, 6.78 -0.46, 7.62 1.51 C8.46 3.47, 8.01 7.55, 8.28 11.1 C8.56 14.66, 9.54 19.51, 9.28 22.85 C9.03 26.18, 7.52 29.39, 6.77 31.11 C6.01 32.83, 5.64 33.54, 4.75 33.14 C3.87 32.75, 2.19 31.37, 1.46 28.74 C0.73 26.11, 0.54 21.06, 0.38 17.36 C0.21 13.67, -0.29 9.43, 0.48 6.57 C1.24 3.71, 4.13 1.05, 4.96 0.19 C5.79 -0.68, 5.55 1.08, 5.45 1.38 M4.93 0.59 C6.06 -0.25, 6.38 1.77, 6.92 3.31 C7.47 4.85, 8.04 6.96, 8.2 9.84 C8.37 12.72, 8.21 17.21, 7.91 20.6 C7.61 24, 6.91 28.2, 6.42 30.19 C5.93 32.17, 5.99 32.53, 4.97 32.5 C3.95 32.48, 1.36 32.27, 0.29 30.04 C-0.78 27.81, -1.53 22.81, -1.46 19.12 C-1.39 15.43, -0.36 10.8, 0.72 7.89 C1.8 4.99, 4.32 2.89, 5.01 1.7 C5.71 0.51, 5.27 0.8, 4.9 0.74" stroke="none" stroke-width="0" fill="#5c940d"></path><path d="M4.07 -0.07 C4.91 -1.15, 5.2 -0.35, 6.01 1.39 C6.82 3.14, 8.55 6.99, 8.94 10.4 C9.33 13.81, 8.52 18.26, 8.35 21.85 C8.18 25.44, 8.76 30.01, 7.92 31.93 C7.09 33.86, 4.56 33.84, 3.36 33.4 C2.15 32.96, 1.35 31.81, 0.71 29.28 C0.08 26.75, -0.51 21.94, -0.47 18.22 C-0.42 14.49, 0.26 9.92, 0.99 6.96 C1.72 4, 3.22 1.43, 3.9 0.46 C4.57 -0.51, 4.93 0.85, 5.05 1.15 M3.78 -1.26 C4.46 -2.03, 5.91 -0.67, 6.55 1.62 C7.18 3.9, 7.07 8.66, 7.57 12.43 C8.07 16.2, 9.61 21.2, 9.55 24.24 C9.5 27.28, 8 29.02, 7.25 30.67 C6.51 32.32, 6.34 34.58, 5.08 34.11 C3.82 33.64, 0.56 30.68, -0.29 27.84 C-1.15 25.01, -0.14 20.58, -0.04 17.11 C0.05 13.64, -0.41 9.91, 0.29 7.02 C0.98 4.13, 3.49 0.83, 4.13 -0.22 C4.77 -1.28, 4.01 0.47, 4.1 0.7" stroke="#82c91e" stroke-width="1" fill="none"></path></g><g stroke-linecap="round" transform="translate(59.572705490204044 9.969682272082537) rotate(3.468229258917947 6.116745637136319 18.569909038766127)"><path d="M5.9 -0.7 C7.1 -1.33, 7.57 0.38, 8.62 2.62 C9.68 4.87, 11.71 9.08, 12.21 12.79 C12.7 16.5, 11.97 21.29, 11.59 24.89 C11.2 28.5, 10.96 32.28, 9.9 34.4 C8.83 36.51, 6.57 38.26, 5.19 37.59 C3.82 36.92, 2.61 33.59, 1.64 30.39 C0.67 27.19, -0.61 22.44, -0.64 18.4 C-0.67 14.36, 0.4 9.21, 1.46 6.14 C2.52 3.08, 4.79 0.86, 5.7 0.03 C6.62 -0.8, 6.92 0.99, 6.97 1.16 M7.25 1.73 C8.15 1.99, 9.38 3.41, 10 5.95 C10.63 8.49, 11.01 13.08, 11.02 16.95 C11.03 20.83, 10.55 26.13, 10.07 29.2 C9.58 32.26, 9.44 34.2, 8.13 35.36 C6.81 36.51, 3.7 37.63, 2.16 36.12 C0.63 34.61, -0.73 30.06, -1.07 26.3 C-1.41 22.53, -0.78 17.27, 0.13 13.53 C1.04 9.79, 3.03 6.1, 4.4 3.87 C5.77 1.65, 8.08 0.86, 8.37 0.19 C8.67 -0.48, 6.32 -0.5, 6.17 -0.17" stroke="none" stroke-width="0" fill="#5c940d"></path><path d="M5.51 -0.49 C6.68 -0.54, 9.18 1.96, 10.16 4.65 C11.15 7.34, 11.09 11.6, 11.41 15.64 C11.72 19.68, 12.74 25.56, 12.06 28.89 C11.38 32.23, 8.78 34.39, 7.32 35.66 C5.87 36.93, 4.51 37.83, 3.33 36.51 C2.15 35.19, 0.79 31.32, 0.26 27.74 C-0.27 24.16, -0.14 18.94, 0.17 15.04 C0.47 11.14, 0.91 6.7, 2.09 4.35 C3.27 2, 6.3 1.46, 7.24 0.94 C8.18 0.42, 7.86 0.94, 7.73 1.22 M3.94 -0.02 C4.89 -0.87, 5.75 0.72, 7.12 2.66 C8.48 4.61, 11.27 8.44, 12.14 11.64 C13.01 14.84, 12.55 18.13, 12.35 21.85 C12.16 25.56, 12.33 31.37, 10.99 33.91 C9.65 36.45, 5.87 37.37, 4.34 37.08 C2.81 36.79, 2.68 34.76, 1.83 32.18 C0.97 29.6, -0.71 25.66, -0.8 21.59 C-0.89 17.51, 0.37 11.2, 1.28 7.74 C2.18 4.29, 3.96 2.09, 4.62 0.86 C5.27 -0.38, 5.14 -0.2, 5.18 0.32" stroke="#82c91e" stroke-width="1" fill="none"></path></g><g stroke-linecap="round" transform="translate(90.73931921597386 20.280296339041342) rotate(30.411081267125798 5.37617285593592 17.32601751456332)"><path d="M2.23 1.51 C3.12 -0.14, 5.7 -0.49, 6.92 0.32 C8.13 1.12, 8.74 3.4, 9.53 6.32 C10.33 9.24, 11.67 13.85, 11.69 17.83 C11.71 21.82, 10.55 27.34, 9.65 30.21 C8.76 33.08, 7.65 34.7, 6.33 35.05 C5.01 35.41, 2.79 34.48, 1.74 32.35 C0.7 30.22, 0.42 25.94, 0.07 22.27 C-0.28 18.6, -0.77 13.79, -0.34 10.33 C0.09 6.87, 2.05 3.15, 2.65 1.5 C3.24 -0.15, 3.02 0.06, 3.23 0.45 M4.88 -0.45 C5.74 -0.99, 6.96 0.82, 7.8 3.23 C8.64 5.63, 9.42 10.32, 9.91 13.99 C10.41 17.65, 11.41 21.66, 10.76 25.2 C10.11 28.73, 7.5 33.65, 6.01 35.19 C4.53 36.73, 2.78 35.91, 1.84 34.44 C0.91 32.97, 0.45 29.63, 0.4 26.36 C0.35 23.09, 1.05 18.61, 1.55 14.8 C2.05 11, 2.86 6.12, 3.39 3.52 C3.92 0.93, 4.26 -0.24, 4.71 -0.75 C5.17 -1.26, 6.19 0.18, 6.11 0.48" stroke="none" stroke-width="0" fill="#5c940d"></path><path d="M4.04 0.48 C5.08 -0.55, 5.79 -0.23, 6.95 1.49 C8.12 3.21, 10.54 7.46, 11.02 10.8 C11.5 14.13, 10.36 17.92, 9.83 21.51 C9.31 25.09, 8.78 30.1, 7.87 32.34 C6.96 34.57, 5.41 35.37, 4.36 34.92 C3.31 34.47, 2.33 32.3, 1.56 29.63 C0.8 26.97, -0.2 22.55, -0.22 18.94 C-0.24 15.34, 0.48 11.08, 1.43 8 C2.38 4.93, 4.75 1.65, 5.47 0.51 C6.19 -0.63, 5.9 0.97, 5.74 1.17 M1.32 3.17 C2.42 1.62, 5.54 1.21, 6.97 1.57 C8.4 1.92, 9.04 2.57, 9.88 5.32 C10.72 8.08, 12.33 14.18, 12.02 18.09 C11.72 22, 9.03 26.01, 8.05 28.78 C7.07 31.54, 7.19 33.97, 6.13 34.7 C5.08 35.43, 2.68 35.22, 1.74 33.17 C0.8 31.12, 0.71 26.06, 0.51 22.39 C0.32 18.72, 0.06 14.63, 0.56 11.13 C1.06 7.62, 3.1 2.56, 3.53 1.35 C3.95 0.15, 3.27 3.3, 3.11 3.88" stroke="#82c91e" stroke-width="1" fill="none"></path></g><g stroke-linecap="round" transform="translate(17.78308486988726 56.718411940594706) rotate(272.0825652797309 7.200709594811997 14.991411288866402)"><path d="M4.45 1.19 C5.84 -0.34, 7.31 -1.01, 8.91 -0.24 C10.52 0.53, 13.09 2.9, 14.07 5.81 C15.04 8.73, 15.01 13.87, 14.77 17.26 C14.53 20.65, 13.91 23.93, 12.64 26.14 C11.37 28.36, 8.78 30.35, 7.15 30.55 C5.53 30.75, 4.18 29.3, 2.9 27.34 C1.61 25.38, -0.08 21.89, -0.56 18.8 C-1.04 15.7, -0.84 11.93, 0.01 8.78 C0.87 5.63, 3.52 1.13, 4.56 -0.09 C5.6 -1.32, 6.12 1.04, 6.24 1.43 M9.42 0.48 C10.74 1.66, 12.19 5.43, 13.1 8.4 C14.02 11.37, 15.4 14.84, 14.89 18.29 C14.37 21.74, 11.69 27, 9.99 29.1 C8.29 31.21, 6.07 31.45, 4.67 30.93 C3.27 30.41, 2.14 28.36, 1.6 25.98 C1.06 23.59, 1.21 20.02, 1.42 16.63 C1.63 13.24, 2.28 8.47, 2.85 5.62 C3.42 2.77, 3.48 0.15, 4.86 -0.47 C6.24 -1.08, 10.41 1.62, 11.13 1.93 C11.85 2.24, 9.45 1.29, 9.17 1.37" stroke="none" stroke-width="0" fill="#5c940d"></path><path d="M4.66 0.23 C6.19 -0.61, 9.67 0.72, 11.07 2.06 C12.47 3.41, 12.62 5.35, 13.05 8.29 C13.47 11.24, 13.98 16.5, 13.6 19.74 C13.23 22.98, 11.96 26.01, 10.78 27.74 C9.6 29.47, 8.02 30.46, 6.52 30.14 C5.03 29.81, 2.83 28.01, 1.81 25.8 C0.8 23.6, 0.44 20.1, 0.43 16.92 C0.42 13.74, 0.92 9.37, 1.76 6.71 C2.6 4.05, 4.82 2.02, 5.46 0.96 C6.1 -0.09, 5.71 0.3, 5.62 0.38 M5.95 1.69 C7.65 0.37, 9.11 -0.96, 10.63 0.28 C12.14 1.53, 14.68 6.03, 15.04 9.16 C15.4 12.28, 13.42 15.96, 12.78 19.04 C12.14 22.11, 12.4 25.63, 11.21 27.62 C10.03 29.61, 7.14 31.4, 5.65 30.97 C4.16 30.53, 3.19 27.46, 2.28 25.01 C1.37 22.55, 0.24 19.5, 0.21 16.24 C0.18 12.99, 1.17 7.87, 2.08 5.48 C2.99 3.1, 5.2 2.51, 5.68 1.93 C6.16 1.35, 5.05 2.17, 4.97 2" stroke="#82c91e" stroke-width="1" fill="none"></path></g><g stroke-linecap="round" transform="translate(40.14253527504616 91.61033535056322) rotate(221.82016988013672 7.290776473584174 14.105435262668834)"><path d="M6.11 -0.63 C7.68 -1.28, 10.7 -0.36, 12.12 1.52 C13.54 3.4, 14.24 7.59, 14.63 10.66 C15.01 13.73, 15.18 17.16, 14.42 19.92 C13.66 22.67, 11.53 25.84, 10.06 27.19 C8.59 28.54, 7.17 28.74, 5.62 28.01 C4.06 27.27, 1.79 25.13, 0.74 22.76 C-0.31 20.39, -0.79 16.93, -0.67 13.78 C-0.56 10.62, 0.15 5.99, 1.42 3.86 C2.69 1.72, 6.01 1.52, 6.96 0.95 C7.9 0.37, 6.96 0.4, 7.09 0.4 M5.36 -0.92 C7.16 -1.57, 10.6 -1.4, 11.91 0.57 C13.21 2.53, 13.09 7.57, 13.21 10.85 C13.33 14.14, 13.06 17.51, 12.63 20.28 C12.19 23.06, 11.5 26.01, 10.61 27.49 C9.73 28.98, 8.6 29.95, 7.32 29.19 C6.03 28.43, 4.28 25.61, 2.91 22.93 C1.54 20.24, -0.8 16.08, -0.9 13.08 C-1 10.09, 1.34 7.23, 2.29 4.96 C3.23 2.69, 4.25 0.34, 4.75 -0.54 C5.26 -1.41, 5.23 -0.47, 5.3 -0.28" stroke="none" stroke-width="0" fill="#5c940d"></path><path d="M7.86 0.58 C9.35 0.28, 10.12 0.65, 11.13 2.55 C12.13 4.46, 13.56 8.9, 13.91 12.01 C14.26 15.12, 13.87 18.65, 13.22 21.22 C12.56 23.8, 11.4 26.37, 9.99 27.47 C8.57 28.57, 6.15 28.69, 4.73 27.82 C3.31 26.95, 2.18 24.82, 1.48 22.26 C0.77 19.7, 0.37 15.47, 0.48 12.46 C0.6 9.45, 1 6.27, 2.14 4.19 C3.29 2.11, 6.44 0.64, 7.37 -0.02 C8.3 -0.68, 7.72 0.15, 7.71 0.24 M10.12 -0.32 C11.67 0.36, 14.4 4.63, 14.9 7.45 C15.4 10.28, 13.61 13.66, 13.11 16.62 C12.61 19.58, 13.02 23.1, 11.9 25.21 C10.79 27.31, 7.93 29.4, 6.42 29.27 C4.9 29.14, 3.83 26.52, 2.81 24.4 C1.79 22.29, 0.47 19.64, 0.29 16.61 C0.11 13.58, 0.92 8.61, 1.72 6.23 C2.52 3.84, 3.82 2.98, 5.09 2.29 C6.36 1.61, 8.62 2.48, 9.33 2.12 C10.05 1.77, 9.57 -0.01, 9.38 0.15" stroke="#82c91e" stroke-width="1" fill="none"></path></g><g stroke-linecap="round" transform="translate(63.06888603167363 95.26675809562948) rotate(175.38007651834022 8.33017724806291 16.216591820758822)"><path d="M8.51 -0.57 C10.29 -0.8, 12.1 1.61, 13.47 3.78 C14.84 5.95, 16.44 9.14, 16.74 12.45 C17.04 15.75, 16.09 20.53, 15.25 23.62 C14.42 26.71, 13.38 29.61, 11.74 30.99 C10.1 32.37, 7.23 32.76, 5.41 31.89 C3.6 31.02, 1.83 28.74, 0.85 25.77 C-0.12 22.8, -0.75 17.43, -0.43 14.09 C-0.12 10.74, 1.18 8.02, 2.73 5.69 C4.28 3.37, 7.51 1.06, 8.89 0.14 C10.27 -0.78, 11.06 0.05, 10.99 0.16 M5.6 0.13 C7.05 -1.07, 8.1 0.55, 9.44 1.85 C10.78 3.14, 12.47 5.13, 13.64 7.91 C14.8 10.69, 16.08 15.04, 16.43 18.53 C16.77 22.01, 16.7 26.52, 15.69 28.82 C14.69 31.12, 12.58 32.31, 10.42 32.31 C8.25 32.31, 4.32 30.76, 2.71 28.82 C1.11 26.88, 1.36 24.01, 0.8 20.67 C0.24 17.34, -1.16 12.09, -0.65 8.79 C-0.14 5.49, 3.13 2.16, 3.86 0.85 C4.59 -0.46, 3.68 0.34, 3.73 0.92" stroke="none" stroke-width="0" fill="#5c940d"></path><path d="M6.63 -0.42 C8.09 -1, 10.84 1.28, 12.37 3.33 C13.9 5.39, 15.23 8.65, 15.83 11.9 C16.44 15.15, 16.69 19.65, 16.02 22.84 C15.36 26.03, 13.38 29.38, 11.85 31.04 C10.32 32.71, 8.47 33.59, 6.83 32.81 C5.2 32.04, 3.25 29.21, 2.06 26.4 C0.87 23.59, -0.26 19.53, -0.32 15.97 C-0.38 12.41, 0.51 7.74, 1.7 5.03 C2.9 2.32, 5.82 0.65, 6.84 -0.29 C7.87 -1.24, 7.54 -1.05, 7.83 -0.67 M12.91 1.66 C14.23 2.97, 13.84 5.84, 14.42 8.93 C15 12.02, 16.72 16.64, 16.39 20.2 C16.07 23.76, 13.86 28.33, 12.47 30.29 C11.08 32.25, 9.69 32.31, 8.08 31.95 C6.47 31.59, 4.02 30.58, 2.8 28.14 C1.59 25.71, 0.98 20.57, 0.78 17.34 C0.58 14.11, 0.85 11.34, 1.62 8.77 C2.4 6.2, 3.85 3.33, 5.45 1.92 C7.05 0.52, 10.45 0.24, 11.24 0.34 C12.03 0.43, 10.4 2.29, 10.19 2.51" stroke="#82c91e" stroke-width="1" fill="none"></path></g><g stroke-linecap="round" transform="translate(98.60395083625826 84.18965442837361) rotate(332.96913974015825 7.077514715879943 17.22998550438524)"><path d="M4.82 2.15 C6.03 0.82, 8.37 0.25, 9.64 1.34 C10.91 2.44, 11.72 5.65, 12.44 8.72 C13.15 11.78, 14.18 16.18, 13.94 19.73 C13.7 23.28, 12.23 27.54, 11.02 30.02 C9.8 32.51, 8.11 34.64, 6.65 34.64 C5.19 34.64, 3.29 32.17, 2.26 30.02 C1.23 27.86, 0.7 25.17, 0.47 21.71 C0.25 18.25, -0.03 12.85, 0.92 9.26 C1.87 5.66, 5.38 1.72, 6.17 0.14 C6.96 -1.45, 5.95 -0.52, 5.67 -0.25 M3.58 2.47 C4.5 1.44, 6.36 0.9, 7.92 2.06 C9.48 3.22, 11.68 6.24, 12.94 9.43 C14.2 12.62, 15.48 17.73, 15.49 21.2 C15.5 24.66, 14.53 28.12, 13 30.21 C11.46 32.29, 7.94 33.6, 6.29 33.69 C4.64 33.78, 4.37 33.04, 3.11 30.72 C1.85 28.4, -0.76 23.55, -1.27 19.78 C-1.79 16.01, -0.78 11.38, 0.01 8.12 C0.8 4.85, 2.86 1.07, 3.47 0.18 C4.08 -0.72, 3.71 2.32, 3.68 2.75" stroke="none" stroke-width="0" fill="#5c940d"></path><path d="M8.55 1.38 C10 2.31, 11.57 5.06, 12.5 8.06 C13.44 11.06, 14.28 15.72, 14.15 19.38 C14.02 23.05, 12.76 27.42, 11.72 30.06 C10.69 32.7, 9.34 34.99, 7.93 35.24 C6.52 35.49, 4.62 33.79, 3.28 31.57 C1.93 29.36, 0.38 25.63, -0.13 21.95 C-0.65 18.27, -0.38 12.96, 0.18 9.49 C0.74 6.02, 1.64 2.53, 3.25 1.12 C4.86 -0.3, 8.38 0.42, 9.86 0.97 C11.34 1.53, 11.97 3.98, 12.14 4.43 M2.97 1.35 C4.04 -0.24, 7.57 -0.26, 9.11 1 C10.65 2.26, 11.31 5.94, 12.18 8.92 C13.05 11.9, 14.35 15.39, 14.33 18.89 C14.32 22.4, 13.12 27.51, 12.09 29.98 C11.06 32.44, 9.67 33.27, 8.16 33.68 C6.66 34.09, 4.48 34.34, 3.07 32.45 C1.65 30.56, 0.14 26.34, -0.31 22.33 C-0.76 18.32, -0.16 11.75, 0.38 8.4 C0.92 5.05, 2.5 3.56, 2.95 2.24 C3.4 0.93, 2.87 0.34, 3.08 0.52" stroke="#82c91e" stroke-width="1" fill="none"></path></g><g stroke-linecap="round" transform="translate(110.83226775879803 49.06446482426418) rotate(268.6521127198034 7.366507107667644 19.008206007002627)"><path d="M5.43 1.46 C6.65 -0.03, 8.07 0.53, 9.45 1.97 C10.83 3.41, 12.99 6.63, 13.71 10.11 C14.43 13.59, 14.19 18.86, 13.78 22.86 C13.37 26.86, 12.44 31.73, 11.25 34.12 C10.07 36.51, 8.09 37.22, 6.68 37.22 C5.27 37.21, 3.87 36.65, 2.78 34.09 C1.7 31.53, 0.28 26.12, 0.17 21.86 C0.05 17.6, 1.14 12.26, 2.09 8.52 C3.05 4.78, 5.16 0.87, 5.89 -0.57 C6.62 -2.02, 6.54 -0.69, 6.49 -0.15 M2.47 3.3 C3.88 1.23, 6.7 0.59, 8.72 1.48 C10.75 2.37, 13.4 5.58, 14.61 8.62 C15.83 11.66, 16.46 15.98, 16.01 19.72 C15.56 23.45, 13.11 27.99, 11.92 31.03 C10.72 34.07, 10.5 37.4, 8.85 37.96 C7.2 38.52, 3.6 36.69, 2.03 34.37 C0.47 32.05, -0.1 27.98, -0.53 24.06 C-0.96 20.14, -1.12 14.28, -0.53 10.85 C0.06 7.42, 2.51 4.86, 3.02 3.48 C3.53 2.09, 2.14 2.52, 2.52 2.55" stroke="none" stroke-width="0" fill="#5c940d"></path><path d="M4.94 1.04 C6.45 -0.3, 9 0.26, 10.47 1.95 C11.95 3.65, 13.05 7.43, 13.79 11.2 C14.53 14.98, 15.2 20.65, 14.91 24.61 C14.62 28.58, 13.45 32.64, 12.04 34.98 C10.63 37.31, 8.18 39.04, 6.45 38.63 C4.71 38.21, 2.87 35.49, 1.63 32.46 C0.4 29.44, -0.83 24.68, -0.96 20.47 C-1.1 16.27, -0.46 10.52, 0.8 7.22 C2.07 3.93, 5.56 1.8, 6.64 0.71 C7.72 -0.37, 7.52 0.33, 7.3 0.72 M8.13 0.36 C9.72 0.72, 10.72 4.1, 11.86 6.93 C12.99 9.76, 14.68 13.41, 14.95 17.32 C15.22 21.23, 14.35 27.16, 13.49 30.39 C12.64 33.62, 11.36 35.53, 9.84 36.72 C8.31 37.91, 5.98 38.99, 4.36 37.52 C2.74 36.05, 0.87 32.04, 0.13 27.9 C-0.61 23.76, -0.4 16.66, -0.1 12.69 C0.2 8.72, 0.74 6.37, 1.91 4.08 C3.07 1.79, 5.9 -0.51, 6.88 -1.05 C7.85 -1.58, 7.59 0.42, 7.74 0.88" stroke="#82c91e" stroke-width="1" fill="none"></path></g><g stroke-linecap="round" transform="translate(72.94039135234198 74.53138490425681) rotate(0 7.352863023526652 8.088149325879385)"><path d="M9.87 1.41 C11.18 1.96, 13.27 3.37, 13.9 4.84 C14.53 6.31, 14.15 8.56, 13.64 10.24 C13.13 11.92, 12.08 14.09, 10.84 14.94 C9.6 15.79, 7.59 15.4, 6.19 15.35 C4.79 15.3, 3.44 15.73, 2.43 14.65 C1.42 13.56, 0.12 10.8, 0.11 8.84 C0.1 6.88, 1.51 4.47, 2.36 2.9 C3.21 1.34, 3.84 -0.2, 5.2 -0.55 C6.55 -0.9, 9.46 0.25, 10.49 0.79 C11.51 1.32, 11.42 2.57, 11.34 2.67 M10.3 1.83 C12.18 2.47, 14.56 4.57, 15.46 5.97 C16.36 7.36, 16.53 8.86, 15.73 10.19 C14.92 11.53, 12.05 12.97, 10.62 13.98 C9.19 14.99, 8.8 16.41, 7.15 16.26 C5.5 16.1, 2.05 14.43, 0.71 13.06 C-0.62 11.68, -0.78 9.77, -0.86 8 C-0.93 6.23, -0.63 3.52, 0.28 2.44 C1.19 1.37, 3.13 1.83, 4.58 1.56 C6.04 1.28, 7.88 0.96, 9.02 0.81 C10.16 0.67, 11.28 0.54, 11.44 0.69" stroke="none" stroke-width="0" fill="#fab005"></path><path d="M9.85 0.69 C11.33 1.14, 12.59 2.74, 13.45 4.33 C14.32 5.92, 15.17 8.5, 15.02 10.23 C14.86 11.96, 13.85 13.61, 12.53 14.71 C11.21 15.82, 8.83 16.92, 7.09 16.85 C5.35 16.77, 3.44 15.52, 2.12 14.25 C0.79 12.99, -0.6 11.1, -0.87 9.24 C-1.15 7.39, -0.61 4.51, 0.45 3.12 C1.51 1.72, 3.71 1.24, 5.49 0.86 C7.26 0.49, 10.37 0.7, 11.11 0.87 C11.84 1.05, 10.04 1.98, 9.89 1.92 M6.48 1.06 C8.02 0.83, 10.9 0.46, 12.28 1.41 C13.66 2.36, 14.41 5.12, 14.78 6.77 C15.14 8.43, 15.23 9.61, 14.46 11.34 C13.69 13.07, 11.84 16.21, 10.16 17.14 C8.48 18.08, 5.97 17.94, 4.38 16.95 C2.79 15.95, 1.55 12.73, 0.61 11.18 C-0.33 9.62, -1.38 9.34, -1.27 7.61 C-1.15 5.87, -0.06 1.96, 1.3 0.76 C2.66 -0.44, 5.94 0.53, 6.9 0.39 C7.86 0.24, 7.16 -0.42, 7.04 -0.11" stroke="#fab005" stroke-width="1" fill="none"></path></g></svg>