<svg version="1.1" xmlns="http://www.w3.org/2000/svg" viewBox="0 0 165.90584183802412 439.5347798969178" width="331.81168367604823" height="879.0695597938357">
  <!-- svg-source:excalidraw -->
  
  <defs>
    <style class="style-fonts">
      @font-face {
        font-family: "Virgil";
        src: url("https://excalidraw.com/Virgil.woff2");
      }
      @font-face {
        font-family: "Cascadia";
        src: url("https://excalidraw.com/Cascadia.woff2");
      }
    </style>
  </defs>
  <g stroke-linecap="round" transform="translate(103.56129412447626 129.66669722924144) rotate(17.061061687677096 20.717972831097313 84.04054269707513)"><path d="M13.94 4.4 C17.04 -0.44, 21.25 -0.99, 24.63 0.97 C28 2.93, 31.7 8.35, 34.2 16.15 C36.69 23.96, 38.61 35.37, 39.58 47.8 C40.54 60.23, 40.3 77.22, 39.97 90.74 C39.65 104.26, 38.9 118.36, 37.63 128.93 C36.36 139.49, 34.99 147.87, 32.36 154.13 C29.73 160.39, 25.29 165.41, 21.84 166.48 C18.39 167.56, 14.75 165.55, 11.66 160.57 C8.57 155.59, 5.23 146.59, 3.29 136.59 C1.34 126.59, 0.06 113.74, -0.01 100.59 C-0.08 87.43, 2.01 69.99, 2.84 57.67 C3.68 45.36, 0.91 35.77, 4.97 26.71 C9.04 17.65, 22.14 3.33, 27.24 3.31 C32.34 3.29, 36.13 25.33, 35.6 26.6 M8.37 10.75 C11.24 2.69, 18.26 -0.27, 21.35 -0.5 C24.43 -0.73, 24.34 4.09, 26.9 9.36 C29.46 14.63, 34.72 21.21, 36.71 31.1 C38.69 40.98, 38.11 55.32, 38.83 68.67 C39.55 82.02, 42.03 98.56, 41.02 111.21 C40.01 123.87, 34.92 135.43, 32.76 144.6 C30.61 153.76, 31.02 162.57, 28.08 166.2 C25.14 169.82, 18.05 169.37, 15.12 166.36 C12.2 163.36, 12.59 156.03, 10.54 148.16 C8.49 140.3, 4.47 130.66, 2.83 119.18 C1.19 107.69, 1.08 92.37, 0.71 79.27 C0.34 66.18, -1.18 51.46, 0.62 40.62 C2.41 29.78, 10.34 18.83, 11.48 14.26 C12.62 9.68, 7.49 12.17, 7.45 13.17" stroke="none" stroke-width="0" fill="#5c940d"></path><path d="M6.42 20.44 C8.21 11, 12.54 4.11, 15.89 1.05 C19.25 -2.02, 23.11 -1.18, 26.54 2.05 C29.96 5.28, 33.89 11.25, 36.44 20.41 C38.99 29.58, 40.91 44.39, 41.83 57.03 C42.76 69.68, 42.64 83.73, 41.99 96.27 C41.35 108.81, 40.12 122.05, 37.94 132.29 C35.77 142.53, 32.15 152.07, 28.96 157.71 C25.78 163.36, 21.68 166.41, 18.83 166.15 C15.98 165.89, 14.52 161.8, 11.85 156.14 C9.18 150.47, 4.63 142.4, 2.8 132.16 C0.98 121.91, 1.39 108.15, 0.88 94.67 C0.37 81.19, -2.59 66.55, -0.28 51.26 C2.02 35.97, 10.24 10.71, 14.69 2.93 C19.15 -4.85, 26.26 3.5, 26.46 4.55 M5.89 32.64 C7.87 21.79, 8.39 12.58, 11.1 7.05 C13.8 1.52, 18.71 -1.56, 22.12 -0.56 C25.52 0.44, 28.96 6.23, 31.52 13.04 C34.09 19.86, 36.22 29.81, 37.5 40.31 C38.77 50.82, 38.61 63.35, 39.19 76.07 C39.76 88.8, 41.59 104.25, 40.94 116.65 C40.3 129.05, 38 142.61, 35.31 150.48 C32.63 158.36, 27.96 161.07, 24.83 163.9 C21.71 166.72, 19.46 170.34, 16.57 167.44 C13.67 164.55, 9.78 156.1, 7.48 146.53 C5.17 136.96, 3.79 121.96, 2.74 110.02 C1.69 98.07, 1.33 87.37, 1.16 74.87 C0.99 62.38, 0.88 41.17, 1.7 35.05 C2.52 28.92, 5.64 37.21, 6.08 38.13" stroke="transparent" stroke-width="1" fill="none"></path></g><g stroke-linecap="round" transform="translate(79.0355247491566 96.93818506000935) rotate(0 9.23879430102511 166.29829741845424)"><path d="M3.82 1.46 L14.46 2.01 L20.06 3.8 L18.69 327.78 L16.25 331.97 L13.12 334.32 L0.95 333.93 L1.5 328.73 L0.73 4.99 L0.53 0.08 L3.25 -1.55" stroke="none" stroke-width="0" fill="#40c057"></path><path d="M4.62 0 M4.62 0 C6.19 0.78, 8.75 0.94, 13.86 0 M4.62 0 C6.8 0.13, 8.49 -0.11, 13.86 0 M13.86 0 C16 -1.89, 16.49 0.64, 18.48 4.62 M13.86 0 C18.47 -1.79, 18.21 0.13, 18.48 4.62 M18.48 4.62 C19.27 112.17, 19.28 219.19, 18.48 327.98 M18.48 4.62 C19.49 108.14, 19.12 210.02, 18.48 327.98 M18.48 327.98 C19.27 332.53, 17.47 333.04, 13.86 332.6 M18.48 327.98 C19.65 329.29, 17.67 334.57, 13.86 332.6 M13.86 332.6 C12.43 332.26, 9.86 333.21, 4.62 332.6 M13.86 332.6 C10.68 332.41, 7.98 332.59, 4.62 332.6 M4.62 332.6 C1.19 333.36, -1.55 331.05, 0 327.98 M4.62 332.6 C-0.15 330.95, 2.21 330.07, 0 327.98 M0 327.98 C-1.11 203.05, -1.4 79.93, 0 4.62 M0 327.98 C-0.16 250.5, -1.12 171.31, 0 4.62 M0 4.62 C1.88 3.07, 2.37 0.43, 4.62 0 M0 4.62 C0.44 0.23, 1.91 -1.25, 4.62 0" stroke="#087f5b" stroke-width="1" fill="none"></path></g><g stroke-linecap="round" transform="translate(35.34099793094401 168.88955250344588) rotate(343.09484190136453 18.477588602050446 62.031904592598494)"><path d="M11.34 4.92 C13.81 -0.59, 16.61 -1.91, 19.73 -0.1 C22.86 1.71, 27.29 8.36, 30.08 15.78 C32.87 23.19, 35.32 33.99, 36.47 44.39 C37.61 54.78, 37.94 67.61, 36.95 78.14 C35.96 88.67, 33.42 99.69, 30.53 107.56 C27.64 115.44, 23.06 123.3, 19.62 125.38 C16.18 127.46, 12.54 125.32, 9.9 120.04 C7.25 114.77, 5.45 103.67, 3.77 93.73 C2.08 83.79, 0.03 71.35, -0.2 60.42 C-0.44 49.48, -1.93 37.05, 2.34 28.1 C6.61 19.16, 19.84 3.31, 25.4 6.75 C30.96 10.19, 35.33 48.16, 35.71 48.74 M10.53 8.87 C12.77 2.16, 16.78 -1.81, 19.98 -1.63 C23.18 -1.45, 27.2 2.69, 29.72 9.96 C32.23 17.24, 34.18 31.62, 35.06 42.04 C35.94 52.47, 35.22 62.16, 35 72.53 C34.77 82.91, 36.13 95.67, 33.71 104.3 C31.29 112.93, 24.09 121.8, 20.48 124.34 C16.88 126.88, 15.21 123.58, 12.08 119.54 C8.94 115.5, 3.57 108.35, 1.66 100.1 C-0.26 91.84, 0.96 80.91, 0.6 70 C0.23 59.09, -2.18 44.61, -0.54 34.64 C1.11 24.67, 9.11 14.45, 10.47 10.17 C11.82 5.89, 7.2 8.72, 7.59 8.95" stroke="none" stroke-width="0" fill="#5c940d"></path><path d="M20.93 -0.4 C24.42 -0.25, 28.98 4.62, 31.76 11.98 C34.54 19.34, 36.72 32.79, 37.62 43.78 C38.52 54.77, 38.17 67.45, 37.15 77.94 C36.12 88.42, 34.21 99.4, 31.48 106.69 C28.74 113.98, 24.33 119.87, 20.73 121.67 C17.13 123.47, 12.63 121.79, 9.9 117.49 C7.18 113.19, 6.15 104.48, 4.39 95.89 C2.63 87.29, -0.48 76.52, -0.66 65.93 C-0.84 55.35, 1.82 42.56, 3.33 32.4 C4.84 22.23, 4.77 9.1, 8.41 4.94 C12.04 0.78, 21.22 4.89, 25.14 7.44 C29.06 9.99, 31.93 19.64, 31.93 20.25 M5.47 23.48 C7.55 14.27, 8.41 6.31, 11.34 2.5 C14.27 -1.31, 19.6 -2.32, 23.06 0.6 C26.52 3.51, 29.97 11.69, 32.12 19.99 C34.27 28.28, 35.68 39.83, 35.96 50.36 C36.23 60.88, 34.62 72.83, 33.77 83.14 C32.92 93.46, 32.91 105.08, 30.83 112.27 C28.75 119.46, 24.86 125.84, 21.31 126.28 C17.75 126.73, 12.43 120.13, 9.48 114.92 C6.53 109.7, 5.07 104.25, 3.63 95 C2.18 85.76, 0.59 71.38, 0.82 59.46 C1.05 47.55, 4.36 28.57, 5.01 23.51 C5.66 18.45, 5.11 28.11, 4.73 29.11" stroke="transparent" stroke-width="1" fill="none"></path></g><g stroke-linecap="round" transform="translate(101.67087723805253 238.40935072282628) rotate(25.144785630678015 18.477588602050446 62.031904592598494)"><path d="M27.6 10.35 C30.17 15.88, 33.46 28.44, 35.01 38.84 C36.57 49.25, 37.28 62.09, 36.91 72.75 C36.53 83.41, 35.06 94.81, 32.75 102.79 C30.44 110.78, 26.62 117.35, 23.03 120.68 C19.44 124.01, 14.5 125.81, 11.2 122.8 C7.9 119.78, 4.93 111.89, 3.22 102.58 C1.52 93.27, 1.21 78.56, 0.97 66.93 C0.72 55.3, 0.51 42.54, 1.76 32.79 C3 23.04, 5.73 13.8, 8.44 8.42 C11.14 3.05, 13.74 -3.24, 17.99 0.53 C22.23 4.29, 30.53 22.31, 33.93 31.02 C37.32 39.74, 38.75 52.13, 38.37 52.79 M31.83 15.53 C34.17 21.87, 36.34 34.28, 36.92 45.92 C37.51 57.56, 36.78 74.78, 35.33 85.37 C33.89 95.97, 30.46 103.19, 28.25 109.48 C26.04 115.78, 25.52 121.54, 22.09 123.14 C18.65 124.74, 10.99 124.3, 7.67 119.09 C4.35 113.87, 3.79 101.91, 2.14 91.86 C0.49 81.81, -2.55 69.39, -2.24 58.78 C-1.94 48.16, 2.09 37.03, 3.97 28.17 C5.85 19.3, 5.83 9.75, 9.04 5.57 C12.24 1.39, 19.81 1.2, 23.2 3.09 C26.6 4.98, 27.65 14.72, 29.38 16.88 C31.11 19.05, 33.32 15.16, 33.59 16.06" stroke="none" stroke-width="0" fill="#5c940d"></path><path d="M10.76 7.07 C13.53 1.27, 17.58 0.75, 20.74 1.54 C23.91 2.32, 27.22 5.76, 29.75 11.77 C32.28 17.78, 34.94 27.64, 35.91 37.61 C36.88 47.58, 36.49 60.82, 35.59 71.61 C34.68 82.39, 32.38 94.19, 30.47 102.33 C28.56 110.48, 27.2 117.11, 24.12 120.45 C21.05 123.8, 15.2 125.36, 11.99 122.43 C8.78 119.5, 7.14 112.11, 4.87 102.88 C2.6 93.64, -0.9 78.3, -1.64 67.03 C-2.39 55.77, -2.62 46.41, 0.38 35.29 C3.38 24.16, 12.63 5.73, 16.35 0.29 C20.07 -5.15, 23.02 1.93, 22.7 2.66 M10.09 4.33 C12.66 -0.77, 18.21 -2.22, 21.71 -0.12 C25.22 1.98, 28.79 9.26, 31.1 16.94 C33.41 24.62, 35.08 35.65, 35.6 45.95 C36.11 56.26, 34.79 68.22, 34.17 78.78 C33.55 89.35, 33.79 101.51, 31.87 109.33 C29.95 117.15, 26.18 124.45, 22.65 125.7 C19.13 126.96, 13.76 121.35, 10.71 116.88 C7.66 112.41, 6 107.69, 4.35 98.88 C2.69 90.07, 0.81 75.95, 0.8 64.03 C0.78 52.1, 2.49 36.53, 4.26 27.32 C6.02 18.1, 10.71 12.06, 11.4 8.74 C12.09 5.41, 8.13 6.5, 8.41 7.36" stroke="transparent" stroke-width="1" fill="none"></path></g><g stroke-linecap="round" transform="translate(27.665930746460162 289.24103114128866) rotate(328.36021844476466 18.477588602050446 62.031904592598494)"><path d="M12.38 3.38 C15.6 -0.58, 20.14 -0.77, 23.57 1.82 C27 4.42, 30.77 10.82, 32.96 18.93 C35.15 27.04, 36.53 38.89, 36.71 50.5 C36.88 62.11, 35.47 77.81, 34.01 88.59 C32.54 99.37, 30.31 109.57, 27.92 115.2 C25.54 120.83, 22.93 122.67, 19.71 122.37 C16.49 122.08, 11.68 119.07, 8.6 113.45 C5.51 107.84, 2.81 98.45, 1.2 88.7 C-0.4 78.94, -1.48 65.8, -1.03 54.92 C-0.58 44.05, -0.7 32.28, 3.91 23.46 C8.52 14.63, 21.84 0.76, 26.63 1.97 C31.41 3.17, 32.77 29.28, 32.6 30.67 M22.86 -0.23 C25.81 1.93, 28.92 13.09, 30.93 21.02 C32.94 28.95, 33.79 37.04, 34.91 47.36 C36.04 57.69, 38.97 71.93, 37.69 82.97 C36.42 94.02, 30.3 106.98, 27.27 113.62 C24.24 120.27, 22.83 122.38, 19.51 122.84 C16.2 123.3, 10.17 121.16, 7.38 116.36 C4.59 111.57, 4.45 103.66, 2.79 94.07 C1.13 84.49, -2.91 70.07, -2.57 58.87 C-2.23 47.67, 2.74 36.08, 4.86 26.87 C6.97 17.65, 6.77 8.18, 10.12 3.59 C13.47 -1.01, 22.77 -0.61, 24.96 -0.68 C27.16 -0.74, 23.68 1.8, 23.3 3.19" stroke="none" stroke-width="0" fill="#5c940d"></path><path d="M13.47 5.64 C16.17 1.41, 19.92 0.11, 22.97 2.02 C26.02 3.93, 29.71 9.63, 31.78 17.1 C33.85 24.57, 34.99 36.17, 35.41 46.85 C35.83 57.53, 35.08 70.73, 34.31 81.2 C33.53 91.66, 33.26 102.28, 30.76 109.64 C28.26 117.01, 22.68 123.87, 19.31 125.37 C15.94 126.87, 13.67 124.44, 10.56 118.65 C7.44 112.85, 2.61 100.53, 0.6 90.62 C-1.42 80.71, -2.06 70.11, -1.53 59.2 C-0.99 48.29, 0.47 35.16, 3.81 25.15 C7.15 15.13, 15.05 2.41, 18.5 -0.88 C21.96 -4.18, 24.55 3.98, 24.52 5.4 M6.49 17.34 C8.75 10, 12.47 5.76, 15.48 3.99 C18.49 2.22, 21.92 3.09, 24.54 6.71 C27.16 10.32, 28.96 16.94, 31.19 25.7 C33.42 34.46, 37.15 47.79, 37.91 59.27 C38.68 70.74, 37.65 85.34, 35.8 94.55 C33.95 103.76, 29.71 109.28, 26.78 114.53 C23.86 119.79, 21.36 126.48, 18.25 126.08 C15.14 125.69, 10.71 119.64, 8.11 112.14 C5.51 104.64, 3.78 91.25, 2.66 81.07 C1.54 70.89, 1.3 61.57, 1.4 51.06 C1.51 40.55, 2.26 23, 3.29 17.99 C4.32 12.97, 7.22 20.14, 7.59 20.97" stroke="transparent" stroke-width="1" fill="none"></path></g><g stroke-linecap="round" transform="translate(44.11399453997046 135.2986502725944) rotate(23.192914553826174 18.061390221507736 38.20616382232765)"><path d="M28.9 8.2 C31.87 12.32, 35.33 20.25, 36.01 27.83 C36.69 35.41, 34.79 46.11, 32.98 53.71 C31.16 61.3, 28.33 69.88, 25.1 73.39 C21.87 76.89, 17.09 77.21, 13.58 74.73 C10.06 72.24, 6.24 65.38, 3.99 58.47 C1.74 51.56, 0.09 40.85, 0.07 33.28 C0.06 25.7, 1.3 18.27, 3.91 13.02 C6.51 7.78, 10.67 1.37, 15.69 1.8 C20.72 2.23, 30.79 11.05, 34.04 15.63 C37.3 20.22, 35.7 28.72, 35.2 29.31 M9.77 9.21 C12.17 4.35, 13.62 -2.15, 17.65 -1.31 C21.69 -0.47, 30.72 7.93, 34 14.24 C37.28 20.55, 37.48 29.07, 37.34 36.57 C37.19 44.08, 35.57 53.08, 33.14 59.27 C30.7 65.47, 26.69 71.07, 22.73 73.74 C18.77 76.41, 13.19 78.91, 9.38 75.29 C5.57 71.66, 1 60.09, -0.13 51.99 C-1.25 43.88, 1.66 33.92, 2.65 26.64 C3.64 19.36, 4.92 11.76, 5.81 8.3 C6.71 4.84, 7.83 5.72, 8 5.89" stroke="none" stroke-width="0" fill="#be4bdb"></path><path d="M5.58 12.93 C7.71 6.54, 12.67 1.03, 16.2 -0.33 C19.74 -1.69, 23.87 0.52, 26.79 4.76 C29.72 8.99, 32.28 17.28, 33.78 25.06 C35.27 32.83, 37.12 43.3, 35.76 51.41 C34.4 59.53, 29.11 69.42, 25.61 73.74 C22.12 78.05, 18.75 79.68, 14.79 77.32 C10.84 74.95, 4.62 66.23, 1.9 59.55 C-0.82 52.87, -4.12 47.18, -1.54 37.23 C1.04 27.28, 12.31 4.5, 17.4 -0.17 C22.49 -4.85, 29.33 8.83, 28.99 9.17 M9.86 1.96 C12.9 -1.56, 19.55 -2.17, 23.5 0.59 C27.45 3.35, 31.53 11.34, 33.54 18.52 C35.55 25.71, 36.36 35.88, 35.58 43.69 C34.8 51.5, 31.31 59.77, 28.86 65.41 C26.41 71.04, 24.18 76.37, 20.88 77.52 C17.57 78.66, 12.5 77.44, 9.06 72.27 C5.62 67.1, 1.27 54.4, 0.23 46.47 C-0.82 38.55, 0.99 31.73, 2.79 24.73 C4.58 17.73, 9.48 8.23, 11 4.47 C12.52 0.71, 11.74 1.29, 11.9 2.18" stroke="transparent" stroke-width="1" fill="none"></path></g><g stroke-linecap="round" transform="translate(38.773898863982595 43.38756335876951) rotate(0 31.938664856837704 30.059919865259417)"><path d="M25.44 0.37 C31.56 -1.46, 40.16 -0.01, 46.13 3.09 C52.09 6.19, 58.52 12.96, 61.24 18.96 C63.97 24.96, 64.45 33.12, 62.47 39.08 C60.48 45.04, 55.14 51.39, 49.33 54.73 C43.52 58.06, 34.56 59.69, 27.59 59.1 C20.63 58.52, 12.23 55.72, 7.56 51.21 C2.89 46.7, -0.33 38.78, -0.4 32.04 C-0.47 25.3, 1.46 16.24, 7.14 10.79 C12.82 5.34, 27.93 0.79, 33.69 -0.66 C39.46 -2.12, 41.85 1.41, 41.74 2.07 M27.81 -0.66 C34.35 -1.64, 45.65 2.67, 51.58 6.53 C57.51 10.39, 61.78 16.62, 63.38 22.5 C64.99 28.39, 64.15 36.16, 61.22 41.82 C58.28 47.48, 52.06 53.32, 45.77 56.44 C39.48 59.57, 30.27 62.21, 23.48 60.58 C16.69 58.95, 8.77 52.24, 5.03 46.68 C1.29 41.12, 0.54 33.35, 1.06 27.21 C1.58 21.07, 3.49 14.47, 8.13 9.87 C12.77 5.26, 25.59 1.13, 28.89 -0.41 C32.2 -1.94, 27.86 -0.13, 27.97 0.65" stroke="none" stroke-width="0" fill="#5c940d"></path><path d="M43.82 1.78 C49.87 3.49, 56.36 9.47, 59.46 15.02 C62.57 20.57, 63.65 28.8, 62.46 35.09 C61.28 41.37, 57.64 48.45, 52.36 52.75 C47.07 57.04, 37.64 60.74, 30.77 60.87 C23.91 61, 16.38 58.05, 11.16 53.51 C5.95 48.98, 0.68 40.11, -0.52 33.66 C-1.73 27.22, 0.18 20.21, 3.92 14.84 C7.66 9.47, 14.66 3.33, 21.92 1.45 C29.17 -0.44, 42.73 2.78, 47.47 3.53 C52.22 4.28, 50.67 5.32, 50.39 5.95 M20.3 1.97 C26.26 -0.34, 35.65 0.52, 42.04 2.74 C48.44 4.97, 55.26 10.05, 58.68 15.32 C62.09 20.58, 63.31 28.08, 62.52 34.35 C61.73 40.61, 58.73 48.43, 53.95 52.93 C49.16 57.43, 40.78 61.35, 33.82 61.33 C26.86 61.31, 17.61 56.75, 12.2 52.8 C6.78 48.84, 2.69 43.64, 1.33 37.58 C-0.02 31.52, 0.84 22.52, 4.05 16.44 C7.25 10.36, 17.82 3.16, 20.57 1.1 C23.31 -0.95, 20.63 3.43, 20.52 4.1" stroke="#e67700" stroke-width="1" fill="none"></path></g><g stroke-linecap="round" transform="translate(46.73910388309059 36.977933668893456) rotate(0 6.763481969683312 9.855740551423423)"><path d="M8.07 0.07 C9.33 0.64, 11.27 2.98, 12.19 4.8 C13.11 6.61, 13.67 9.03, 13.59 10.95 C13.52 12.88, 12.81 15, 11.72 16.34 C10.63 17.67, 8.7 18.58, 7.07 18.97 C5.44 19.35, 3.16 19.67, 1.94 18.65 C0.72 17.62, -0.14 15.2, -0.26 12.84 C-0.39 10.48, 0.47 6.61, 1.19 4.48 C1.91 2.35, 2.71 0.65, 4.06 0.04 C5.42 -0.57, 8.37 0.49, 9.32 0.82 C10.28 1.14, 9.8 1.73, 9.78 1.99 M11.31 2.27 C12.88 3.27, 13.28 4.8, 13.64 6.42 C14 8.04, 14 10.16, 13.5 11.99 C12.99 13.81, 11.95 15.85, 10.63 17.36 C9.3 18.88, 7.18 21.34, 5.57 21.08 C3.96 20.82, 1.73 17.66, 0.96 15.8 C0.19 13.94, 1.07 11.76, 0.95 9.94 C0.84 8.11, -0.45 6.54, 0.26 4.83 C0.96 3.13, 3.74 0.33, 5.16 -0.3 C6.58 -0.93, 7.94 0.59, 8.77 1.05 C9.59 1.5, 10.18 2.16, 10.09 2.42" stroke="none" stroke-width="0" fill="#faff6a"></path><path d="M7.45 -0.52 C8.66 -0.39, 10.1 1.02, 11.21 2.62 C12.31 4.23, 13.99 6.71, 14.06 9.1 C14.12 11.5, 12.54 15.11, 11.57 17.01 C10.61 18.91, 9.79 20.43, 8.27 20.51 C6.75 20.59, 3.9 18.65, 2.46 17.5 C1.01 16.36, -0.07 15.5, -0.39 13.63 C-0.71 11.76, -0.03 8.44, 0.55 6.3 C1.12 4.16, 1.71 1.89, 3.05 0.81 C4.38 -0.27, 7.34 -0.49, 8.55 -0.16 C9.76 0.18, 10.34 2.53, 10.32 2.83 M5.14 1.78 C6.3 1.33, 8.01 1.45, 9.1 2.08 C10.19 2.71, 10.9 3.82, 11.69 5.57 C12.48 7.33, 13.9 10.41, 13.87 12.63 C13.83 14.85, 12.73 17.91, 11.46 18.91 C10.19 19.91, 7.69 18.76, 6.25 18.64 C4.8 18.53, 3.76 19.42, 2.8 18.23 C1.83 17.04, 0.62 13.95, 0.45 11.48 C0.29 9.01, 1.03 5.04, 1.82 3.41 C2.61 1.79, 4.9 2.2, 5.2 1.74 C5.51 1.29, 3.56 0.56, 3.67 0.68" stroke="#fab005" stroke-width="1" fill="none"></path></g><g stroke-linecap="round" transform="translate(95.9356774278358 48.41283063100582) rotate(0 7.514979966314854 8.266477962946283)"><path d="M6.1 0.35 C7.74 0.02, 10.05 0.28, 11.54 1.02 C13.02 1.77, 14.51 3.25, 15.01 4.83 C15.51 6.42, 15.28 8.59, 14.52 10.53 C13.75 12.47, 11.9 15.36, 10.42 16.48 C8.93 17.59, 7.01 17.85, 5.62 17.21 C4.23 16.56, 3.04 14.24, 2.09 12.6 C1.13 10.96, -0.01 9.02, -0.1 7.37 C-0.19 5.72, 0.31 3.89, 1.55 2.7 C2.79 1.51, 6.05 0.54, 7.32 0.25 C8.6 -0.03, 8.95 1.02, 9.21 0.98 M6.2 0.6 C7.47 -0.27, 9.59 -0.64, 10.99 -0.07 C12.38 0.49, 13.99 1.97, 14.57 3.97 C15.15 5.96, 15.07 10.14, 14.47 11.87 C13.88 13.6, 12.12 13.63, 11.01 14.34 C9.9 15.06, 9.46 16.05, 7.8 16.17 C6.14 16.3, 2.36 16.38, 1.04 15.1 C-0.28 13.81, 0.01 10.39, -0.13 8.45 C-0.26 6.5, -0.76 4.61, 0.23 3.44 C1.23 2.26, 5.16 1.8, 5.84 1.4 C6.52 1, 4.22 0.92, 4.31 1.03" stroke="none" stroke-width="0" fill="#faff6a"></path><path d="M5.58 -0.86 C7.25 -1.25, 10.47 -0.85, 11.92 0.35 C13.38 1.56, 13.79 4.37, 14.29 6.35 C14.79 8.32, 15.58 10.79, 14.91 12.17 C14.24 13.56, 11.88 13.87, 10.27 14.65 C8.67 15.43, 6.7 17.08, 5.29 16.86 C3.87 16.64, 2.73 14.89, 1.79 13.35 C0.84 11.81, -0.24 9.56, -0.38 7.64 C-0.53 5.72, -0.37 3, 0.9 1.84 C2.18 0.68, 6.04 0.94, 7.26 0.67 C8.49 0.4, 8.29 0.14, 8.26 0.22 M6.54 1.37 C7.81 0.93, 9.25 0.84, 10.7 1.73 C12.15 2.62, 14.55 4.84, 15.25 6.7 C15.96 8.57, 15.72 11.6, 14.93 12.93 C14.14 14.26, 11.98 13.93, 10.53 14.67 C9.08 15.41, 7.69 17.58, 6.23 17.37 C4.78 17.16, 2.7 15.22, 1.8 13.4 C0.89 11.59, 0.65 8.08, 0.79 6.47 C0.93 4.86, 1.81 4.82, 2.63 3.76 C3.45 2.69, 4.84 0.49, 5.69 0.08 C6.54 -0.34, 7.64 1.1, 7.73 1.29" stroke="#fab005" stroke-width="1" fill="none"></path></g><g stroke-linecap="round" transform="translate(34.1024838715407 58.57658157813057) rotate(0 6.763481969683312 7.041833971461074)"><path d="M5.61 -0.05 C7.05 -0.58, 9.18 -0.53, 10.43 0.11 C11.68 0.75, 12.74 2.09, 13.08 3.79 C13.41 5.49, 12.99 8.62, 12.44 10.31 C11.9 11.99, 10.86 13.44, 9.81 13.92 C8.76 14.39, 7.5 13.65, 6.13 13.16 C4.75 12.66, 2.62 11.96, 1.55 10.94 C0.48 9.92, -0.21 8.39, -0.31 7.04 C-0.41 5.69, -0.07 3.92, 0.93 2.85 C1.93 1.77, 4.65 1.2, 5.7 0.61 C6.76 0.02, 7.3 -0.85, 7.26 -0.67 M9.57 -0.35 C10.82 -0.08, 12.38 1.19, 12.97 2.91 C13.55 4.62, 13.56 8.45, 13.09 9.95 C12.61 11.45, 11.06 11.25, 10.13 11.88 C9.2 12.52, 8.99 13.52, 7.49 13.75 C5.98 13.98, 2.36 14.32, 1.1 13.28 C-0.17 12.24, 0.11 9.18, -0.09 7.51 C-0.29 5.83, -0.95 4.25, -0.11 3.25 C0.72 2.24, 3.57 1.83, 4.92 1.47 C6.27 1.11, 7.16 1.07, 7.98 1.1 C8.79 1.12, 9.81 1.63, 9.83 1.61" stroke="none" stroke-width="0" fill="#faff6a"></path><path d="M5.01 -0.42 C6.35 -0.7, 7.44 0.38, 8.78 1.2 C10.11 2.01, 12.4 3.45, 13.02 4.49 C13.65 5.53, 13 6.05, 12.54 7.45 C12.09 8.86, 11.25 11.85, 10.3 12.94 C9.35 14.03, 8.23 14.14, 6.84 13.97 C5.46 13.81, 3.29 13.06, 2 11.94 C0.72 10.82, -0.6 8.53, -0.85 7.23 C-1.11 5.93, -0.37 5.34, 0.48 4.15 C1.32 2.97, 3.46 0.73, 4.19 0.13 C4.93 -0.46, 4.76 0.42, 4.88 0.6 M8.58 0.95 C9.99 1.37, 12.53 3.22, 13.41 4.75 C14.29 6.28, 14.37 8.97, 13.87 10.14 C13.36 11.31, 11.57 10.94, 10.39 11.77 C9.2 12.61, 8.07 15.06, 6.74 15.16 C5.4 15.25, 3.34 13.78, 2.35 12.33 C1.36 10.88, 0.89 7.81, 0.79 6.47 C0.68 5.12, 1.2 5.29, 1.72 4.26 C2.25 3.22, 2.48 0.68, 3.95 0.27 C5.43 -0.15, 9.74 1.62, 10.58 1.76 C11.41 1.9, 9.01 1.14, 8.96 1.12" stroke="#fab005" stroke-width="1" fill="none"></path></g><g stroke-linecap="round" transform="translate(98.6753635199525 74.04666038578125) rotate(0 6.763481969683312 7.942284077048498)"><path d="M7.99 -0.71 C9.34 -0.7, 10.92 0.27, 11.72 1.81 C12.53 3.35, 12.8 6.55, 12.8 8.51 C12.81 10.47, 12.41 12.52, 11.72 13.57 C11.04 14.63, 10.05 14.73, 8.7 14.85 C7.34 14.97, 4.99 14.95, 3.57 14.29 C2.16 13.64, 0.86 12.32, 0.22 10.91 C-0.43 9.5, -0.73 7.35, -0.28 5.84 C0.17 4.32, 1.33 2.9, 2.92 1.82 C4.5 0.74, 8.32 -0.58, 9.22 -0.63 C10.12 -0.69, 8.38 1.15, 8.32 1.49 M7.72 -0.77 C9 -0.32, 10.51 2.65, 11.34 3.89 C12.17 5.14, 12.4 5.3, 12.7 6.7 C13.01 8.1, 14.09 10.64, 13.18 12.29 C12.27 13.95, 8.83 16.27, 7.24 16.64 C5.65 17.02, 4.93 15.47, 3.63 14.54 C2.33 13.62, -0.03 12.37, -0.55 11.08 C-1.07 9.8, 0.15 8.38, 0.52 6.86 C0.9 5.33, 0.42 2.91, 1.68 1.94 C2.94 0.97, 7.27 1.33, 8.08 1.01 C8.88 0.7, 6.42 0.23, 6.53 0.02" stroke="none" stroke-width="0" fill="#faff6a"></path><path d="M3.31 1.65 C4.46 1.11, 7.29 1.02, 8.61 1.12 C9.94 1.23, 10.57 0.99, 11.26 2.26 C11.94 3.54, 12.64 6.95, 12.74 8.77 C12.84 10.6, 12.78 12.11, 11.87 13.2 C10.95 14.3, 8.87 15.27, 7.26 15.35 C5.64 15.42, 3.41 14.37, 2.18 13.64 C0.95 12.92, 0.27 12.47, -0.14 10.99 C-0.54 9.52, -0.84 6.44, -0.26 4.78 C0.32 3.13, 2.61 1.69, 3.34 1.05 C4.07 0.42, 3.82 0.95, 4.12 0.99 M10.17 1.42 C11.73 2.18, 13.01 4.62, 13.49 5.88 C13.98 7.15, 13.44 7.38, 13.06 9 C12.67 10.62, 12.29 14.39, 11.2 15.59 C10.11 16.78, 7.93 16.72, 6.52 16.18 C5.1 15.64, 3.71 13.42, 2.71 12.36 C1.71 11.31, 0.93 11.35, 0.5 9.85 C0.08 8.36, -0.76 4.79, 0.16 3.37 C1.07 1.95, 4.51 1.72, 5.99 1.34 C7.47 0.96, 8.28 1.1, 9.03 1.09 C9.79 1.08, 10.54 1.39, 10.53 1.28" stroke="#fab005" stroke-width="1" fill="none"></path></g><g stroke-linecap="round" transform="translate(70.33344599658176 59.3179733969846) rotate(0 7.514979966314854 8.266477962946283)"><path d="M6.86 -0.7 C8.19 -0.67, 9.86 1.18, 11.11 2.46 C12.36 3.73, 13.74 5.55, 14.35 6.96 C14.95 8.37, 15.38 9.57, 14.76 10.92 C14.13 12.27, 12.17 14.18, 10.59 15.05 C9.01 15.91, 6.89 16.43, 5.26 16.14 C3.62 15.84, 1.68 14.59, 0.78 13.25 C-0.13 11.91, -0.55 10.04, -0.15 8.1 C0.25 6.15, 1.87 2.78, 3.16 1.6 C4.46 0.41, 6.44 1.09, 7.59 0.97 C8.75 0.84, 9.97 0.81, 10.08 0.83 M5.11 1.79 C6.38 1.24, 8.05 -0.42, 9.73 0 C11.41 0.41, 14.54 2.41, 15.2 4.28 C15.86 6.15, 14.23 9.53, 13.67 11.22 C13.1 12.9, 13.1 13.53, 11.81 14.4 C10.51 15.27, 7.43 16.28, 5.9 16.44 C4.36 16.6, 3.77 16.47, 2.58 15.36 C1.39 14.25, -1.14 11.55, -1.26 9.76 C-1.38 7.98, 0.9 6.25, 1.86 4.65 C2.81 3.05, 3.65 1.02, 4.47 0.15 C5.28 -0.71, 6.47 -0.76, 6.74 -0.55" stroke="none" stroke-width="0" fill="#faff6a"></path><path d="M4.86 1.64 C6.13 0.6, 7.38 -0.94, 8.73 -0.52 C10.08 -0.11, 11.91 2.55, 12.97 4.14 C14.04 5.74, 15.21 7.44, 15.11 9.04 C15 10.64, 13.68 12.68, 12.34 13.76 C11 14.84, 8.69 15.21, 7.07 15.52 C5.46 15.83, 3.9 16.51, 2.63 15.61 C1.36 14.71, -0.15 11.9, -0.56 10.13 C-0.97 8.35, -0.79 6.54, 0.16 4.96 C1.1 3.38, 3.96 1.44, 5.12 0.64 C6.27 -0.17, 6.86 0.16, 7.08 0.13 M8.78 1.27 C10.19 1.04, 11.49 0.15, 12.63 1.39 C13.76 2.62, 15.37 6.69, 15.6 8.69 C15.84 10.68, 14.95 12.3, 14.05 13.37 C13.15 14.44, 11.74 14.5, 10.19 15.11 C8.65 15.72, 6.55 17.58, 4.79 17.03 C3.02 16.47, 0.19 13.41, -0.41 11.76 C-1.01 10.12, 0.69 8.84, 1.19 7.18 C1.69 5.51, 1.27 2.92, 2.59 1.79 C3.92 0.66, 8.26 0.85, 9.12 0.4 C9.97 -0.04, 7.99 -0.88, 7.73 -0.87" stroke="#fab005" stroke-width="1" fill="none"></path></g><g stroke-linecap="round" transform="translate(75.07428395461602 37.348629578326836) rotate(0 7.514979966314854 8.266477962946283)"><path d="M3.96 1.57 C5.27 1.1, 7.66 0.99, 9.39 1.23 C11.11 1.47, 13.4 1.78, 14.31 3.03 C15.22 4.27, 15.2 6.8, 14.86 8.68 C14.51 10.55, 13.52 12.93, 12.25 14.28 C10.98 15.62, 8.8 16.59, 7.22 16.77 C5.63 16.95, 3.74 16.61, 2.73 15.35 C1.71 14.08, 1.53 10.85, 1.13 9.18 C0.74 7.52, -0.57 6.78, 0.35 5.35 C1.26 3.92, 5.47 1.44, 6.64 0.61 C7.8 -0.22, 7.53 0.28, 7.33 0.37 M4.69 -0.4 C6.34 -1.25, 10.16 -0.6, 11.57 0.41 C12.98 1.42, 12.63 4.12, 13.14 5.69 C13.65 7.25, 15.04 8.25, 14.64 9.79 C14.24 11.33, 12 13.61, 10.76 14.91 C9.52 16.22, 8.83 17.65, 7.2 17.63 C5.56 17.6, 2.04 16.03, 0.95 14.76 C-0.15 13.5, 0.72 11.93, 0.63 10.04 C0.53 8.15, -0.65 5.21, 0.38 3.42 C1.4 1.62, 5.84 -0.29, 6.79 -0.73 C7.73 -1.18, 6.16 0.43, 6.03 0.75" stroke="none" stroke-width="0" fill="#faff6a"></path><path d="M9.42 -0.26 C10.68 0.19, 12.42 3.15, 13.35 4.83 C14.28 6.51, 15.25 8.26, 14.99 9.84 C14.73 11.41, 13.23 13.34, 11.79 14.29 C10.34 15.23, 7.96 15.4, 6.34 15.53 C4.72 15.67, 3.24 16.13, 2.06 15.1 C0.89 14.07, -0.44 11.15, -0.7 9.34 C-0.96 7.53, -0.43 5.69, 0.51 4.25 C1.46 2.81, 3.1 1.29, 4.97 0.69 C6.83 0.1, 10.5 0.7, 11.7 0.67 C12.89 0.65, 12.3 0.36, 12.13 0.56 M8.9 -0.87 C10.42 -0.63, 12.98 2.69, 14.07 4.32 C15.15 5.96, 15.46 7.55, 15.42 8.94 C15.38 10.34, 14.9 11.22, 13.83 12.69 C12.76 14.15, 10.9 17.31, 8.99 17.74 C7.08 18.18, 3.68 16.27, 2.39 15.28 C1.11 14.3, 1.68 13.49, 1.27 11.85 C0.86 10.21, -0.68 7.19, -0.07 5.44 C0.54 3.68, 3.49 2.36, 4.94 1.31 C6.4 0.26, 8.07 -0.65, 8.67 -0.88 C9.27 -1.11, 8.41 -0.4, 8.52 -0.05" stroke="#fab005" stroke-width="1" fill="none"></path></g><g stroke-linecap="round" transform="translate(34.21233154822221 80.6915087798252) rotate(0 7.514979966314854 8.266477962946283)"><path d="M4.39 1.39 C5.97 0.38, 8.81 -0.71, 10.38 -0.39 C11.96 -0.07, 13.14 1.65, 13.85 3.29 C14.56 4.92, 14.96 7.52, 14.63 9.43 C14.3 11.34, 13.06 13.47, 11.87 14.74 C10.68 16.02, 8.83 17.23, 7.47 17.08 C6.12 16.94, 5.07 14.92, 3.76 13.87 C2.45 12.82, -0.04 12.33, -0.38 10.79 C-0.72 9.26, 0.68 6.4, 1.7 4.68 C2.72 2.97, 5.07 1.19, 5.73 0.49 C6.4 -0.22, 5.79 0.37, 5.7 0.44 M11.97 0.63 C13.31 1.6, 12.9 4.53, 13.32 6.14 C13.75 7.75, 15 8.76, 14.51 10.27 C14.02 11.77, 11.68 13.97, 10.38 15.19 C9.09 16.41, 8.37 17.7, 6.75 17.57 C5.13 17.44, 1.66 15.74, 0.64 14.41 C-0.39 13.07, 0.6 11.45, 0.6 9.55 C0.6 7.65, -0.46 4.75, 0.64 3.02 C1.74 1.28, 5.41 -0.56, 7.22 -0.85 C9.04 -1.15, 10.84 0.9, 11.52 1.25 C12.2 1.59, 11.63 1.15, 11.29 1.22" stroke="none" stroke-width="0" fill="#faff6a"></path><path d="M10.12 1.37 C11.69 2.15, 13.84 3.43, 14.54 4.9 C15.24 6.37, 14.97 8.63, 14.33 10.18 C13.68 11.73, 12.04 13.03, 10.69 14.19 C9.33 15.35, 7.75 17.2, 6.18 17.14 C4.61 17.08, 2.39 15.16, 1.26 13.81 C0.13 12.47, -0.61 10.77, -0.6 9.06 C-0.59 7.36, 0.09 5.09, 1.3 3.59 C2.52 2.09, 4.69 0.45, 6.68 0.05 C8.67 -0.34, 12.1 0.62, 13.26 1.24 C14.42 1.87, 13.79 3.51, 13.63 3.8 M11.13 1.8 C12.67 2.61, 13.9 3.72, 14.64 4.93 C15.39 6.14, 15.95 7.18, 15.58 9.06 C15.22 10.94, 14.06 14.96, 12.45 16.21 C10.84 17.46, 7.47 16.7, 5.94 16.55 C4.41 16.41, 4.34 16.51, 3.25 15.33 C2.16 14.16, -0.41 11.38, -0.59 9.5 C-0.77 7.62, 1.25 5.76, 2.17 4.05 C3.09 2.35, 3.64 -0.11, 4.94 -0.74 C6.24 -1.36, 8.97 -0.01, 9.96 0.29 C10.94 0.58, 10.84 0.74, 10.84 1.03" stroke="#fab005" stroke-width="1" fill="none"></path></g><g stroke-linecap="round" transform="translate(79.32319235857949 95.2409251263316) rotate(0 7.514979966314854 8.266477962946283)"><path d="M11.42 0.1 C12.88 0.53, 13.87 2.64, 14.36 4.4 C14.85 6.16, 14.93 8.8, 14.37 10.65 C13.8 12.49, 12.3 14.43, 10.96 15.49 C9.62 16.55, 7.68 17.42, 6.34 17.01 C5.01 16.6, 4.08 14.26, 2.93 13.02 C1.79 11.78, -0.41 11.12, -0.51 9.56 C-0.62 7.99, 1.22 5.17, 2.32 3.64 C3.43 2.11, 4.7 0.77, 6.11 0.38 C7.52 0, 9.95 1.16, 10.78 1.32 C11.6 1.47, 10.87 1.33, 11.06 1.33 M4.62 1.22 C5.91 0.69, 9.28 -0.27, 10.73 0.35 C12.17 0.96, 12.57 3.01, 13.28 4.91 C13.99 6.81, 15.46 9.94, 14.97 11.75 C14.48 13.56, 11.63 14.81, 10.34 15.76 C9.05 16.71, 8.78 17.78, 7.24 17.45 C5.7 17.12, 2.1 15.39, 1.11 13.77 C0.12 12.14, 1.16 9.41, 1.3 7.72 C1.45 6.03, 1.18 4.85, 1.98 3.63 C2.78 2.4, 5.67 0.88, 6.11 0.34 C6.55 -0.2, 4.53 0.1, 4.63 0.38" stroke="none" stroke-width="0" fill="#faff6a"></path><path d="M4.54 0.62 C5.96 -0.32, 7.79 -0.49, 9.16 -0.16 C10.53 0.17, 11.88 0.96, 12.77 2.61 C13.67 4.26, 14.67 7.84, 14.54 9.75 C14.41 11.66, 13.16 12.88, 11.99 14.06 C10.81 15.25, 8.98 16.64, 7.47 16.84 C5.96 17.04, 4 16.37, 2.94 15.26 C1.88 14.14, 1.33 12.03, 1.12 10.14 C0.9 8.26, 0.99 5.51, 1.63 3.97 C2.28 2.43, 4.31 1.4, 4.98 0.89 C5.65 0.39, 5.5 0.91, 5.66 0.95 M5.31 0.84 C6.75 -0.21, 9.3 -1.42, 10.83 -0.66 C12.35 0.09, 13.99 3.66, 14.49 5.39 C14.99 7.12, 14.02 8, 13.82 9.71 C13.62 11.42, 14.44 14.47, 13.29 15.66 C12.14 16.86, 8.52 16.96, 6.91 16.85 C5.29 16.74, 4.83 16.35, 3.62 14.99 C2.41 13.62, 0.19 10.53, -0.34 8.66 C-0.87 6.79, -0.52 5.08, 0.42 3.75 C1.36 2.43, 4.58 1.11, 5.29 0.69 C6.01 0.27, 4.92 1.14, 4.71 1.23" stroke="#fab005" stroke-width="1" fill="none"></path></g><g stroke-linecap="round" transform="translate(55.839977711959364 65.72086563502307) rotate(0 7.514979966314854 8.266477962946283)"><path d="M10.45 -0.01 C11.77 0.7, 13.32 2.76, 13.95 4.51 C14.58 6.26, 14.59 8.66, 14.23 10.49 C13.86 12.32, 12.81 14.63, 11.77 15.49 C10.72 16.36, 9.64 15.74, 7.97 15.69 C6.31 15.63, 2.98 16.19, 1.79 15.17 C0.59 14.15, 0.86 11.45, 0.81 9.57 C0.76 7.68, 0.81 5.36, 1.49 3.85 C2.16 2.34, 3.3 0.96, 4.86 0.49 C6.42 0.01, 9.47 0.84, 10.84 0.98 C12.2 1.12, 13.08 1.09, 13.02 1.35 M6.54 -0.48 C8.05 -0.95, 9.15 0.06, 10.55 1.31 C11.96 2.57, 14.56 5.26, 14.99 7.07 C15.41 8.88, 13.68 10.58, 13.09 12.18 C12.5 13.78, 12.82 15.99, 11.44 16.65 C10.05 17.3, 6.24 16.87, 4.79 16.12 C3.35 15.36, 3.46 13.47, 2.75 12.12 C2.04 10.77, 0.57 9.59, 0.51 8.02 C0.46 6.45, 1.59 4, 2.42 2.67 C3.25 1.34, 4.67 0.28, 5.51 0.05 C6.35 -0.19, 7.47 1.16, 7.46 1.26" stroke="none" stroke-width="0" fill="#faff6a"></path><path d="M8.92 -0.23 C10.25 -0.08, 11.69 0.77, 12.63 2.38 C13.57 4, 14.64 7.56, 14.56 9.47 C14.49 11.39, 13.3 12.64, 12.16 13.87 C11.02 15.09, 9.22 16.56, 7.72 16.82 C6.22 17.07, 4.24 16.48, 3.15 15.41 C2.06 14.35, 1.45 12.28, 1.18 10.41 C0.91 8.55, 0.99 5.76, 1.53 4.22 C2.06 2.68, 2.95 1.77, 4.38 1.18 C5.8 0.6, 9.02 0.85, 10.08 0.73 C11.15 0.61, 10.99 0.33, 10.77 0.47 M10.98 -0.6 C12.46 0.07, 14.1 3.8, 14.57 5.55 C15.04 7.3, 14.03 8.18, 13.79 9.89 C13.56 11.6, 14.34 14.62, 13.16 15.78 C11.98 16.94, 8.35 17, 6.74 16.85 C5.13 16.7, 4.67 16.26, 3.49 14.87 C2.31 13.47, 0.13 10.36, -0.37 8.48 C-0.86 6.6, -0.46 4.9, 0.51 3.6 C1.48 2.29, 3.88 1.05, 5.45 0.63 C7.03 0.22, 9.36 1.11, 9.95 1.12 C10.54 1.13, 9.19 0.85, 9 0.7" stroke="#fab005" stroke-width="1" fill="none"></path></g><g stroke-linecap="round" transform="translate(33.31615668456743 25.9197178781169) rotate(332.96913974015825 4.763996618002011 17.411668495650247)"><path d="M2.51 1.39 C3.29 -0.09, 4.49 -0.22, 5.49 0.92 C6.5 2.05, 7.7 5.31, 8.53 8.22 C9.36 11.13, 10.63 14.62, 10.47 18.4 C10.3 22.17, 8.32 28.07, 7.55 30.87 C6.79 33.67, 6.76 35.06, 5.86 35.2 C4.97 35.33, 3.23 33.93, 2.18 31.69 C1.13 29.46, -0.05 25.47, -0.43 21.79 C-0.8 18.11, -0.95 13.27, -0.06 9.59 C0.83 5.91, 4.13 1.15, 4.92 -0.28 C5.7 -1.71, 4.83 0.78, 4.65 1.03 M5.18 0.87 C6.18 2.08, 8.61 6.24, 9.1 9.55 C9.6 12.86, 8.27 17.05, 8.16 20.71 C8.06 24.37, 9.19 29.19, 8.49 31.51 C7.78 33.84, 4.82 34.91, 3.91 34.64 C3.01 34.38, 3.61 32.18, 3.06 29.91 C2.51 27.65, 0.94 24.51, 0.59 21.04 C0.23 17.57, 0.72 12.41, 0.93 9.1 C1.15 5.79, 0.85 2.34, 1.87 1.16 C2.89 -0.02, 6.55 2.01, 7.06 1.99 C7.56 1.98, 5.04 0.89, 4.9 1.06" stroke="none" stroke-width="0" fill="#5c940d"></path><path d="M3.56 -0.97 C4.51 -1.2, 6.33 1.76, 7.17 4.15 C8.02 6.53, 8.42 9.76, 8.62 13.34 C8.83 16.91, 8.77 22.22, 8.4 25.61 C8.04 29, 7.13 32.31, 6.44 33.7 C5.75 35.08, 5.06 35.16, 4.27 33.91 C3.47 32.66, 2.34 29.26, 1.66 26.22 C0.99 23.18, 0.17 19.19, 0.22 15.67 C0.26 12.14, 0.94 7.71, 1.94 5.09 C2.93 2.48, 5.6 0.58, 6.18 -0.01 C6.77 -0.61, 5.49 1.18, 5.46 1.54 M5.77 1.39 C6.43 1.76, 6.34 2.77, 7.12 5.44 C7.89 8.11, 10.3 13.63, 10.44 17.4 C10.58 21.17, 8.57 25.18, 7.96 28.06 C7.35 30.94, 7.76 34.05, 6.8 34.7 C5.83 35.35, 3.35 33.72, 2.19 31.94 C1.03 30.15, 0.1 27.19, -0.17 23.98 C-0.44 20.77, 0.23 16.1, 0.57 12.69 C0.91 9.27, 1.27 5.58, 1.86 3.48 C2.46 1.38, 3.75 0.79, 4.13 0.11 C4.52 -0.58, 3.75 -0.8, 4.18 -0.62" stroke="#862e9c" stroke-width="1" fill="none"></path></g><g stroke-linecap="round" transform="translate(61.33112897885212 9.969013822616944) rotate(3.468229258917947 6.251608492507444 18.979340966382097)"><path d="M3.49 1.44 C4.67 -0.03, 6.65 0.46, 8.17 1.65 C9.69 2.83, 11.99 4.97, 12.61 8.54 C13.23 12.11, 12.15 18.86, 11.9 23.08 C11.64 27.29, 11.97 31.33, 11.07 33.84 C10.17 36.36, 8.07 38.16, 6.51 38.15 C4.95 38.14, 2.86 36.42, 1.7 33.77 C0.54 31.11, -0.46 26.33, -0.44 22.21 C-0.43 18.1, 1.02 12.56, 1.79 9.07 C2.55 5.59, 3.61 2.83, 4.14 1.3 C4.66 -0.22, 4.74 -0.28, 4.95 -0.1 M5.41 1.41 C6.62 0.61, 6.84 1.11, 8.06 3.11 C9.27 5.11, 12.19 9.73, 12.71 13.42 C13.24 17.11, 11.53 21.76, 11.19 25.25 C10.85 28.74, 11.6 32.24, 10.68 34.36 C9.76 36.48, 7.16 38.47, 5.68 37.97 C4.2 37.46, 2.95 34.49, 1.81 31.33 C0.66 28.17, -1.25 22.93, -1.18 19.02 C-1.12 15.11, 1.37 11.02, 2.2 7.86 C3.03 4.71, 3.27 1.21, 3.78 0.08 C4.28 -1.04, 5.04 0.97, 5.26 1.12" stroke="none" stroke-width="0" fill="#5c940d"></path><path d="M4.34 1.19 C5.59 0.2, 7.09 0.12, 8.26 1.88 C9.43 3.64, 10.74 7.95, 11.37 11.75 C12 15.54, 12.18 20.83, 12.05 24.65 C11.92 28.46, 11.52 32.56, 10.58 34.64 C9.65 36.72, 7.88 37.5, 6.43 37.12 C4.98 36.74, 2.9 35.14, 1.9 32.37 C0.9 29.61, 0.42 24.66, 0.44 20.52 C0.47 16.38, 1.35 10.86, 2.05 7.54 C2.76 4.21, 3.9 1.73, 4.68 0.58 C5.45 -0.56, 6.55 0.33, 6.72 0.66 M2.81 1.42 C4.04 -0.29, 7.75 0.71, 9.11 2.02 C10.46 3.32, 10.21 5.91, 10.92 9.24 C11.62 12.57, 13.51 18.19, 13.35 21.99 C13.2 25.78, 11.22 29.42, 9.98 32.01 C8.73 34.61, 7.1 37.19, 5.9 37.54 C4.7 37.89, 3.78 36.46, 2.78 34.12 C1.77 31.78, 0.41 27.5, -0.13 23.49 C-0.66 19.48, -0.92 13.93, -0.43 10.07 C0.06 6.2, 1.84 1.81, 2.81 0.31 C3.78 -1.19, 4.97 0.51, 5.4 1.09" stroke="#862e9c" stroke-width="1" fill="none"></path></g><g stroke-linecap="round" transform="translate(93.18490852263221 20.506957737202356) rotate(30.411081267125798 5.494707460009863 17.708023949494418)"><path d="M5 0.58 C6.37 -0.03, 8.85 0.35, 9.74 2.68 C10.63 5.01, 10.08 10.67, 10.32 14.57 C10.56 18.47, 11.57 22.81, 11.17 26.07 C10.76 29.34, 9.19 32.7, 7.88 34.16 C6.58 35.62, 4.6 35.98, 3.35 34.83 C2.09 33.68, 0.75 30.52, 0.36 27.24 C-0.03 23.95, 0.86 18.74, 1.01 15.11 C1.16 11.48, 0.53 8.1, 1.26 5.46 C1.99 2.81, 4.49 0.09, 5.4 -0.76 C6.31 -1.61, 6.74 0.05, 6.72 0.35 M4.05 0.59 C5.22 0.25, 8.53 2.59, 9.51 4.83 C10.49 7.06, 9.59 10.63, 9.94 14.01 C10.29 17.4, 11.94 21.72, 11.61 25.13 C11.29 28.54, 9.26 32.9, 8 34.48 C6.75 36.06, 5.48 35.87, 4.08 34.62 C2.69 33.36, 0.17 30.03, -0.37 26.95 C-0.92 23.87, 0.66 19.92, 0.81 16.13 C0.95 12.34, -0.29 6.84, 0.48 4.23 C1.25 1.61, 4.66 1.3, 5.44 0.46 C6.22 -0.38, 5.02 -1.13, 5.16 -0.81" stroke="none" stroke-width="0" fill="#5c940d"></path><path d="M2.09 2.03 C3.01 0.06, 4.73 -0.13, 5.98 0.69 C7.23 1.51, 8.62 4.07, 9.6 6.96 C10.58 9.84, 11.72 14.37, 11.87 18 C12.02 21.63, 11.4 25.8, 10.5 28.72 C9.6 31.65, 7.73 34.81, 6.49 35.55 C5.25 36.3, 3.95 35.26, 3.06 33.19 C2.16 31.13, 1.67 26.78, 1.11 23.18 C0.55 19.58, -0.77 15.14, -0.32 11.62 C0.12 8.11, 3.16 3.64, 3.8 2.09 C4.44 0.55, 3.73 2.1, 3.52 2.37 M8.7 2.68 C9.82 4.02, 9.31 7.11, 9.82 10.41 C10.32 13.72, 11.99 19.08, 11.73 22.52 C11.46 25.96, 9.43 28.99, 8.22 31.06 C7.02 33.13, 5.52 35.05, 4.49 34.96 C3.45 34.87, 2.8 33.02, 2.02 30.52 C1.23 28.02, 0.13 23.77, -0.24 19.97 C-0.61 16.16, -0.72 11.07, -0.19 7.67 C0.33 4.27, 1.36 0.69, 2.93 -0.43 C4.49 -1.55, 8.21 0.46, 9.22 0.96 C10.23 1.46, 9.47 2.22, 8.98 2.57" stroke="#862e9c" stroke-width="1" fill="none"></path></g><g stroke-linecap="round" transform="translate(18.620125012542303 57.748465960567955) rotate(272.0825652797309 7.3594718377207755 15.321944002239434)"><path d="M9.21 -0.71 C10.66 -0.47, 11.17 3.2, 12.22 5.8 C13.26 8.41, 15.27 11.77, 15.47 14.92 C15.68 18.07, 14.62 22.14, 13.45 24.72 C12.28 27.3, 10.12 29.73, 8.45 30.41 C6.79 31.08, 4.63 30.39, 3.48 28.78 C2.33 27.18, 2.16 23.67, 1.56 20.78 C0.95 17.9, -0.41 14.67, -0.15 11.49 C0.11 8.31, 1.52 3.6, 3.13 1.71 C4.73 -0.17, 8.49 0.46, 9.46 0.19 C10.43 -0.07, 9.1 -0.19, 8.95 0.11 M10.63 2.02 C12.12 2.85, 12.01 5.25, 12.88 7.8 C13.75 10.35, 15.94 14.01, 15.87 17.3 C15.8 20.6, 13.84 25.34, 12.45 27.58 C11.06 29.82, 9.38 30.88, 7.52 30.76 C5.66 30.63, 2.43 28.84, 1.31 26.82 C0.2 24.81, 1.1 21.95, 0.83 18.67 C0.56 15.39, -1.01 10.04, -0.3 7.14 C0.41 4.23, 3.4 2.46, 5.09 1.26 C6.78 0.05, 8.87 -0.23, 9.84 -0.11 C10.82 0, 11.1 1.66, 10.93 1.95" stroke="none" stroke-width="0" fill="#5c940d"></path><path d="M9.15 1.17 C10.7 2.07, 12.42 4.99, 13.48 7.72 C14.54 10.45, 15.58 14.49, 15.51 17.57 C15.44 20.65, 14.38 23.95, 13.07 26.18 C11.76 28.42, 9.32 30.74, 7.66 30.97 C6.01 31.21, 4.27 29.75, 3.15 27.6 C2.04 25.45, 1.45 21.3, 0.96 18.08 C0.47 14.86, -0.53 11.08, 0.22 8.28 C0.97 5.48, 3.76 2.37, 5.47 1.28 C7.17 0.18, 9.7 1.55, 10.43 1.7 C11.15 1.85, 9.74 2.16, 9.8 2.19 M6.81 0.32 C8.31 0.04, 11.85 2.17, 13.07 4.08 C14.3 5.99, 14.16 8.67, 14.16 11.78 C14.17 14.89, 13.78 19.71, 13.11 22.74 C12.45 25.77, 11.6 28.72, 10.17 29.97 C8.73 31.22, 6.23 31.42, 4.49 30.22 C2.76 29.03, 0.69 25.95, -0.22 22.81 C-1.13 19.68, -1.7 14.73, -0.98 11.4 C-0.25 8.07, 2.53 4.61, 4.14 2.82 C5.76 1.03, 8.36 1.09, 8.7 0.65 C9.04 0.2, 6.58 0.08, 6.19 0.15" stroke="#862e9c" stroke-width="1" fill="none"></path></g><g stroke-linecap="round" transform="translate(41.47255967846104 93.40969133266844) rotate(221.82016988013672 7.451524523516127 14.416433853851686)"><path d="M8.95 1.48 C10.41 2.31, 13.35 4.29, 14.38 6.72 C15.4 9.15, 15.46 13.02, 15.08 16.05 C14.7 19.08, 13.35 22.81, 12.08 24.9 C10.81 27, 8.79 28.48, 7.46 28.6 C6.12 28.71, 5.35 27.24, 4.07 25.58 C2.79 23.91, 0.35 21.63, -0.24 18.59 C-0.83 15.56, -0.36 10.29, 0.52 7.38 C1.4 4.48, 3.47 2.33, 5.05 1.17 C6.64 0.01, 9.03 0.2, 10.04 0.42 C11.06 0.63, 11 2.25, 11.14 2.45 M7.97 0.1 C9.59 0.16, 13.32 1.87, 14.55 4.36 C15.79 6.84, 15.59 11.74, 15.4 15.02 C15.21 18.3, 14.72 21.77, 13.39 24.04 C12.06 26.31, 8.91 28.04, 7.4 28.66 C5.89 29.29, 5.73 29.43, 4.33 27.79 C2.93 26.15, -0.36 21.86, -0.98 18.84 C-1.61 15.81, -0.19 12.68, 0.59 9.64 C1.36 6.61, 2.13 2.07, 3.67 0.61 C5.22 -0.85, 9.14 1.03, 9.85 0.88 C10.56 0.73, 8.02 -0.4, 7.92 -0.29" stroke="none" stroke-width="0" fill="#5c940d"></path><path d="M6.82 0.3 C8.58 -0.14, 11.32 1.01, 12.78 2.69 C14.25 4.37, 15.34 7.29, 15.59 10.38 C15.84 13.47, 15.09 18.27, 14.29 21.22 C13.5 24.16, 12.2 26.9, 10.84 28.04 C9.48 29.18, 7.86 28.96, 6.14 28.08 C4.42 27.19, 1.41 25.25, 0.52 22.74 C-0.37 20.23, 0.45 16.06, 0.79 13.01 C1.13 9.96, 1.57 6.56, 2.56 4.44 C3.55 2.33, 5.69 1.13, 6.74 0.32 C7.79 -0.49, 8.71 -0.7, 8.84 -0.41 M11 1.3 C12.48 1.94, 12.96 3.73, 13.49 6.3 C14.03 8.86, 14.36 13.45, 14.2 16.7 C14.04 19.94, 13.73 23.65, 12.54 25.76 C11.36 27.88, 8.95 29.47, 7.09 29.4 C5.24 29.33, 2.78 27.63, 1.43 25.34 C0.08 23.05, -1.18 18.82, -1.01 15.67 C-0.83 12.51, 1.28 8.78, 2.49 6.41 C3.7 4.04, 5.19 2.39, 6.24 1.45 C7.3 0.52, 8.38 0.9, 8.83 0.78 C9.29 0.66, 8.83 0.63, 8.97 0.73" stroke="#862e9c" stroke-width="1" fill="none"></path></g><g stroke-linecap="round" transform="translate(64.90439379334703 97.14673139305887) rotate(175.38007651834022 8.513842150294636 16.57413748426552)"><path d="M5.86 1.81 C7.53 0.14, 9.59 -0.1, 11.12 0.86 C12.65 1.81, 14.15 4.65, 15.03 7.54 C15.92 10.43, 16.38 14.79, 16.43 18.2 C16.49 21.62, 16.67 25.43, 15.36 28.02 C14.06 30.61, 10.61 33.56, 8.59 33.75 C6.57 33.94, 4.53 31.39, 3.25 29.16 C1.97 26.93, 1.36 23.84, 0.9 20.39 C0.45 16.94, -0.57 11.82, 0.53 8.47 C1.63 5.12, 5.77 1.74, 7.48 0.28 C9.18 -1.17, 10.67 -0.59, 10.76 -0.27 M12.51 -0.18 C14.43 0.77, 15.48 4.99, 16.27 8.21 C17.07 11.43, 17.82 15.69, 17.27 19.15 C16.72 22.61, 14.27 26.48, 12.97 28.99 C11.67 31.5, 11.34 34.14, 9.48 34.19 C7.62 34.25, 3.37 31.64, 1.83 29.33 C0.3 27.02, 0.42 23.96, 0.25 20.32 C0.09 16.69, -0.18 10.59, 0.84 7.49 C1.85 4.4, 4.77 3.01, 6.34 1.76 C7.91 0.51, 9.38 0.13, 10.26 0.01 C11.15 -0.11, 11.47 0.47, 11.63 1.06" stroke="none" stroke-width="0" fill="#5c940d"></path><path d="M10.81 0.06 C12.72 0.25, 14.81 2.32, 15.88 5.11 C16.95 7.89, 17.27 13.04, 17.21 16.77 C17.15 20.51, 16.57 24.85, 15.51 27.51 C14.46 30.17, 12.87 32.08, 10.88 32.72 C8.9 33.37, 5.21 33.07, 3.61 31.39 C2.01 29.71, 1.75 25.94, 1.27 22.63 C0.79 19.32, 0.35 14.88, 0.71 11.54 C1.07 8.2, 1.65 4.57, 3.43 2.61 C5.21 0.64, 10.11 -0.11, 11.39 -0.26 C12.67 -0.4, 11.16 1.41, 11.11 1.73 M8.96 -0.98 C10.45 -0.96, 12.67 1.91, 14.08 4.67 C15.48 7.44, 17.21 11.92, 17.38 15.63 C17.56 19.34, 16.46 24.07, 15.13 26.91 C13.8 29.75, 11.31 32.08, 9.4 32.66 C7.49 33.24, 4.87 32.06, 3.67 30.39 C2.46 28.72, 2.52 25.61, 2.17 22.65 C1.83 19.69, 1.53 15.96, 1.58 12.63 C1.64 9.3, 1.38 4.83, 2.51 2.66 C3.63 0.5, 7.23 0.14, 8.35 -0.38 C9.47 -0.89, 9 -0.76, 9.23 -0.45" stroke="#862e9c" stroke-width="1" fill="none"></path></g><g stroke-linecap="round" transform="translate(101.2229406306401 85.82539820925831) rotate(332.96913974015825 7.233560741027645 17.60987461224886)"><path d="M10.72 2.1 C11.85 3.48, 12.84 7.46, 13.32 10.86 C13.8 14.27, 13.8 19.04, 13.61 22.53 C13.42 26.03, 13.44 29.63, 12.15 31.83 C10.87 34.02, 7.63 36.22, 5.9 35.72 C4.16 35.23, 2.6 31.75, 1.73 28.87 C0.86 25.99, 0.78 22.22, 0.67 18.46 C0.57 14.69, 0.28 9.25, 1.1 6.28 C1.91 3.31, 3.78 1.41, 5.54 0.63 C7.31 -0.15, 10.65 1.06, 11.66 1.58 C12.67 2.1, 11.7 3.45, 11.62 3.75 M7.3 0.32 C8.61 0.08, 10.92 1.39, 11.88 3.59 C12.85 5.79, 12.66 9.7, 13.09 13.53 C13.52 17.35, 15.17 23.21, 14.45 26.54 C13.72 29.88, 10.26 32.16, 8.73 33.56 C7.2 34.96, 6.54 36.18, 5.25 34.94 C3.96 33.7, 1.71 29.26, 1 26.14 C0.29 23.01, 0.94 19.89, 0.99 16.19 C1.04 12.5, 0.26 6.68, 1.31 3.97 C2.35 1.25, 6.3 0.33, 7.27 -0.09 C8.24 -0.5, 7.06 1.12, 7.13 1.47" stroke="none" stroke-width="0" fill="#5c940d"></path><path d="M9.11 -0.55 C10.47 -0.2, 11.82 3.15, 12.78 6.13 C13.75 9.11, 14.73 13.65, 14.89 17.34 C15.06 21.03, 14.91 25.29, 13.77 28.27 C12.63 31.25, 9.58 34.36, 8.05 35.23 C6.52 36.09, 5.8 35.19, 4.59 33.44 C3.37 31.7, 1.59 28.24, 0.76 24.75 C-0.08 21.27, -1 16.32, -0.42 12.52 C0.16 8.73, 2.64 3.84, 4.24 1.96 C5.85 0.09, 8.11 1.36, 9.19 1.26 C10.28 1.15, 10.75 1.04, 10.75 1.32 M7.54 -0.27 C9.16 0.15, 11.79 2.87, 12.9 5.79 C14.01 8.71, 14.37 13.53, 14.2 17.26 C14.02 21, 12.92 25.47, 11.85 28.21 C10.78 30.95, 8.83 32.96, 7.76 33.7 C6.68 34.44, 6.38 34.08, 5.39 32.66 C4.4 31.23, 2.88 28.53, 1.82 25.13 C0.77 21.74, -1.01 16.1, -0.94 12.3 C-0.87 8.51, 0.75 4.54, 2.23 2.37 C3.71 0.2, 6.9 -0.38, 7.94 -0.74 C8.98 -1.1, 8.31 -0.47, 8.46 0.21" stroke="#862e9c" stroke-width="1" fill="none"></path></g><g stroke-linecap="round" transform="translate(113.72086917909837 49.925763557655046) rotate(268.6521127198034 7.528924877113468 19.427301566906408)"><path d="M8.51 0.58 C9.9 1.08, 11.66 4.08, 12.91 7.24 C14.16 10.4, 16.07 15.23, 16.03 19.53 C15.98 23.83, 13.94 29.97, 12.67 33.03 C11.39 36.09, 9.78 37.43, 8.37 37.89 C6.96 38.36, 5.61 38.02, 4.21 35.82 C2.82 33.62, 0.64 28.62, 0.02 24.71 C-0.6 20.8, -0.29 16.24, 0.49 12.36 C1.28 8.48, 2.87 3, 4.73 1.42 C6.58 -0.16, 10.15 2.17, 11.62 2.9 C13.1 3.64, 13.72 5.46, 13.57 5.82 M5.31 1.27 C6.44 -0.35, 7.36 -0.4, 8.94 1.19 C10.53 2.78, 14.04 7.24, 14.81 10.82 C15.58 14.39, 13.96 18.65, 13.56 22.65 C13.17 26.65, 13.47 32.29, 12.43 34.8 C11.39 37.31, 8.78 37.68, 7.31 37.69 C5.84 37.7, 4.97 37.51, 3.62 34.88 C2.26 32.25, -0.49 26.12, -0.84 21.89 C-1.2 17.67, 0.47 12.82, 1.49 9.54 C2.51 6.27, 4.56 3.54, 5.29 2.24 C6.02 0.94, 5.64 1.82, 5.86 1.75" stroke="none" stroke-width="0" fill="#5c940d"></path><path d="M7.09 0.4 C8.53 0.01, 10.88 1.63, 12.31 3.95 C13.73 6.27, 15.41 10.31, 15.64 14.33 C15.86 18.36, 14.34 24.28, 13.63 28.12 C12.93 31.95, 12.72 35.58, 11.41 37.34 C10.1 39.1, 7.58 39.77, 5.77 38.68 C3.96 37.59, 1.39 34.44, 0.57 30.82 C-0.24 27.19, 0.61 21.01, 0.89 16.91 C1.17 12.82, 0.81 9.08, 2.25 6.24 C3.7 3.4, 8.14 0.45, 9.58 -0.12 C11.01 -0.7, 10.96 2.44, 10.86 2.78 M5.27 1.41 C6.72 -0.04, 8.52 0.33, 9.78 1.69 C11.05 3.05, 12.18 6.26, 12.86 9.57 C13.53 12.89, 13.68 17.57, 13.85 21.57 C14.02 25.57, 14.69 30.58, 13.86 33.56 C13.02 36.55, 10.9 39.39, 8.84 39.5 C6.78 39.62, 3.11 37.09, 1.48 34.26 C-0.15 31.42, -0.83 26.7, -0.94 22.49 C-1.06 18.28, -0.23 12.57, 0.8 8.98 C1.84 5.39, 4.43 1.95, 5.26 0.96 C6.09 -0.03, 6 2.82, 5.77 3.04" stroke="#862e9c" stroke-width="1" fill="none"></path></g><g stroke-linecap="round" transform="translate(74.99354743116419 75.95418182037702) rotate(0 7.514979966314854 8.266477962946283)"><path d="M7.69 -0.16 C9.47 -0.22, 12.7 0.53, 13.84 1.93 C14.99 3.33, 14.61 6.52, 14.54 8.24 C14.47 9.97, 14.16 10.97, 13.42 12.29 C12.67 13.61, 11.64 15.72, 10.06 16.16 C8.48 16.61, 5.5 15.69, 3.93 14.97 C2.36 14.26, 1.11 13.5, 0.63 11.87 C0.14 10.24, 0.51 6.86, 1.02 5.19 C1.52 3.52, 2.11 2.77, 3.65 1.85 C5.19 0.94, 9.08 -0.31, 10.26 -0.3 C11.45 -0.29, 11 1.62, 10.74 1.91 M7.06 0.04 C8.66 0.25, 12.53 2.3, 13.62 3.53 C14.72 4.76, 13.62 5.75, 13.63 7.41 C13.64 9.08, 14.45 12.24, 13.71 13.52 C12.97 14.81, 10.61 14.64, 9.2 15.11 C7.78 15.57, 6.8 17.04, 5.22 16.33 C3.64 15.62, 0.46 12.57, -0.28 10.84 C-1.03 9.11, 0.1 7.32, 0.74 5.93 C1.39 4.55, 2.19 3.48, 3.58 2.53 C4.96 1.59, 8.07 0.86, 9.07 0.27 C10.08 -0.31, 9.95 -1.02, 9.59 -0.98" stroke="none" stroke-width="0" fill="#faff6a"></path><path d="M5.32 0.91 C6.83 0.14, 9.53 -0.27, 10.86 0.33 C12.18 0.92, 12.49 2.88, 13.29 4.48 C14.09 6.07, 15.77 8.14, 15.66 9.9 C15.55 11.67, 14.09 13.91, 12.61 15.07 C11.14 16.23, 8.31 17.05, 6.8 16.85 C5.3 16.66, 4.69 14.99, 3.59 13.91 C2.48 12.83, 0.46 12.07, 0.15 10.38 C-0.16 8.69, 0.61 5.38, 1.7 3.76 C2.79 2.15, 5.57 1.34, 6.68 0.69 C7.78 0.04, 8.46 -0.09, 8.32 -0.12 M6.24 0.64 C7.49 0.28, 9.14 0.6, 10.37 1.27 C11.59 1.95, 12.64 3.1, 13.57 4.68 C14.49 6.26, 16.13 8.83, 15.91 10.76 C15.7 12.68, 14.14 15.32, 12.26 16.23 C10.39 17.14, 6.62 16.75, 4.66 16.19 C2.7 15.63, 1.31 14.38, 0.5 12.86 C-0.3 11.34, -0.47 8.8, -0.17 7.07 C0.13 5.33, 1.07 3.36, 2.32 2.44 C3.57 1.51, 6.83 2.02, 7.33 1.52 C7.82 1.03, 5.17 -0.63, 5.28 -0.54" stroke="#fab005" stroke-width="1" fill="none"></path></g><g stroke-linecap="round" transform="translate(41.73231057960584 281.93761116149835) rotate(23.192914553826174 18.061390221507736 38.20616382232765)"><path d="M22.88 -0.59 C26.57 0.45, 28.66 8.37, 30.79 14.49 C32.93 20.61, 35.25 28.18, 35.68 36.12 C36.11 44.06, 35.88 55.78, 33.39 62.13 C30.9 68.48, 24.79 72.59, 20.75 74.22 C16.71 75.85, 12.17 75.94, 9.16 71.91 C6.14 67.88, 3.9 57.63, 2.67 50.05 C1.44 42.47, 0.55 34.1, 1.79 26.45 C3.02 18.8, 6.14 7.65, 10.1 4.15 C14.06 0.64, 22.51 4.29, 25.56 5.41 C28.62 6.52, 28.45 10.49, 28.42 10.86 M20.98 2.22 C24.6 2.28, 25.44 5.01, 27.98 10.55 C30.51 16.09, 35.44 27.65, 36.2 35.48 C36.97 43.31, 34.46 50.74, 32.55 57.54 C30.64 64.33, 28.75 73.96, 24.76 76.25 C20.78 78.53, 12.33 74.9, 8.65 71.26 C4.97 67.62, 3.93 61.14, 2.69 54.4 C1.45 47.65, 0.11 38.59, 1.2 30.78 C2.3 22.98, 5.75 13.05, 9.25 7.55 C12.75 2.05, 20.94 -1.03, 22.23 -2.24 C23.51 -3.45, 17.03 -0.72, 16.97 0.27" stroke="none" stroke-width="0" fill="#be4bdb"></path><path d="M25.61 1.79 C28.78 3.88, 30.18 12.2, 32.14 19.36 C34.1 26.52, 37.67 36.63, 37.37 44.75 C37.07 52.87, 33.77 62.71, 30.34 68.09 C26.92 73.47, 20.48 77.33, 16.82 77.05 C13.16 76.77, 11.13 71.47, 8.39 66.41 C5.65 61.35, 1.16 54.62, 0.38 46.68 C-0.4 38.75, 1.78 25.95, 3.72 18.8 C5.66 11.64, 7.48 5.21, 12.03 3.74 C16.58 2.27, 27.52 6.66, 31.03 9.97 C34.54 13.29, 33.46 22.98, 33.08 23.63 M17.97 0.29 C21.36 0.22, 25.58 4.27, 29.08 10.05 C32.58 15.83, 38.01 26.23, 38.99 34.98 C39.97 43.73, 38.2 55.84, 34.97 62.54 C31.74 69.23, 24.13 73.68, 19.58 75.14 C15.04 76.6, 10.78 75.25, 7.7 71.29 C4.62 67.32, 2.11 58.81, 1.08 51.34 C0.05 43.86, 0.05 33.49, 1.52 26.44 C2.99 19.39, 7.18 13.65, 9.9 9.03 C12.61 4.41, 15.61 -0.32, 17.81 -1.27 C20 -2.22, 22.48 2.34, 23.06 3.34" stroke="transparent" stroke-width="1" fill="none"></path></g><g stroke-linecap="round" transform="translate(89.09954938749615 193.83454697882735) rotate(337.45693899994166 18.061390221507736 38.20616382232765)"><path d="M13.58 2.01 C16.74 -0.07, 22.51 -0.53, 26.29 3.15 C30.06 6.83, 34.85 16.47, 36.21 24.1 C37.57 31.73, 35.94 41.07, 34.47 48.92 C32.99 56.77, 30.29 66.96, 27.35 71.18 C24.41 75.4, 20.51 75.39, 16.83 74.23 C13.15 73.07, 7.87 70.3, 5.29 64.23 C2.7 58.17, 1.56 45.87, 1.3 37.85 C1.04 29.82, 0.88 22.23, 3.72 16.06 C6.57 9.89, 14.81 2.85, 18.37 0.83 C21.93 -1.18, 24.88 3.7, 25.11 3.96 M15.3 -0.42 C18.75 -1.11, 26.47 4.89, 29.83 9.83 C33.19 14.77, 34.49 21.11, 35.46 29.22 C36.42 37.33, 37.78 51.31, 35.6 58.5 C33.41 65.7, 26.13 69.84, 22.34 72.4 C18.54 74.97, 16.05 76.03, 12.83 73.88 C9.62 71.73, 4.87 66.47, 3.05 59.5 C1.24 52.53, 0.92 40.88, 1.94 32.06 C2.96 23.24, 6.91 12.04, 9.18 6.59 C11.45 1.15, 13.66 0.4, 15.56 -0.61 C17.46 -1.62, 20.49 -0.18, 20.57 0.52" stroke="none" stroke-width="0" fill="#be4bdb"></path><path d="M23.44 3.6 C26.91 6.21, 33.37 13.58, 35.49 20.85 C37.61 28.13, 37.48 39.21, 36.17 47.23 C34.86 55.26, 30.46 64.38, 27.62 68.99 C24.78 73.61, 22.72 75.12, 19.11 74.92 C15.51 74.72, 8.92 73.17, 6 67.78 C3.09 62.4, 2.09 50.72, 1.62 42.61 C1.15 34.5, 1.29 26.02, 3.19 19.12 C5.08 12.23, 7.95 0.46, 13 1.24 C18.05 2.02, 30.1 14.8, 33.5 23.79 C36.9 32.77, 33.43 54.83, 33.43 55.13 M22.55 0.58 C26.92 2.8, 34.24 11.06, 36.86 18.85 C39.48 26.63, 39.93 39.11, 38.24 47.29 C36.55 55.46, 30.54 63.21, 26.72 67.91 C22.91 72.6, 18.87 75.95, 15.37 75.46 C11.86 74.97, 8.09 70.34, 5.68 64.96 C3.28 59.57, 1.14 50.47, 0.91 43.14 C0.69 35.81, 2.85 28.12, 4.36 20.99 C5.86 13.86, 6.06 3.02, 9.93 0.36 C13.8 -2.31, 24.92 4.4, 27.58 5.01 C30.23 5.63, 26.35 4.15, 25.87 4.07" stroke="transparent" stroke-width="1" fill="none"></path></g><g stroke-linecap="round" transform="translate(91.9415837159695 320.7787469839741) rotate(328.84069549165577 18.061390221507736 38.20616382232765)"><path d="M8.37 3.87 C11.78 -0.78, 18.49 -1.03, 22.26 0.28 C26.04 1.59, 28.73 5.43, 31.02 11.71 C33.31 18, 35.6 29.85, 36.02 38 C36.44 46.14, 35.85 54.17, 33.56 60.59 C31.26 67.01, 26.08 74.9, 22.24 76.52 C18.41 78.14, 14.1 74.15, 10.55 70.32 C7 66.48, 2.77 60.85, 0.94 53.52 C-0.88 46.18, -4.32 34.8, -0.38 26.33 C3.55 17.86, 18.67 3.08, 24.55 2.69 C30.43 2.31, 35.05 23.33, 34.89 24.02 M29.87 9.9 C33.22 14.22, 34.51 21.21, 35.46 29.32 C36.42 37.44, 37.77 51.41, 35.57 58.6 C33.37 65.78, 26.09 69.9, 22.29 72.44 C18.49 74.98, 15.99 76.02, 12.78 73.84 C9.57 71.67, 4.83 66.39, 3.03 59.41 C1.22 52.42, 0.92 40.77, 1.95 31.95 C2.98 23.14, 6.94 11.95, 9.22 6.53 C11.5 1.1, 11.78 -0.98, 15.61 -0.61 C19.45 -0.24, 30.25 7.08, 32.22 8.75 C34.19 10.41, 28.45 8.97, 27.45 9.37" stroke="none" stroke-width="0" fill="#be4bdb"></path><path d="M16.81 0.96 C20.72 -0.65, 25.1 2.32, 27.9 6.6 C30.71 10.87, 32.19 19.28, 33.64 26.62 C35.09 33.96, 37.74 42.92, 36.6 50.65 C35.45 58.37, 30.21 68.93, 26.77 72.96 C23.33 76.99, 19.69 76.43, 15.96 74.82 C12.23 73.2, 6.96 69.64, 4.38 63.29 C1.81 56.94, 0.71 45.21, 0.49 36.7 C0.28 28.19, -2.11 15.86, 3.07 12.21 C8.26 8.55, 26.31 8.26, 31.6 14.79 C36.9 21.31, 34.84 51.3, 34.82 51.36 M20.92 -1.28 C25.39 -1.21, 30.08 4.78, 32.15 10.2 C34.22 15.62, 33.42 23.53, 33.33 31.22 C33.23 38.9, 33.15 49.47, 31.58 56.33 C30.01 63.18, 27.07 69.47, 23.91 72.34 C20.76 75.22, 15.94 75.6, 12.63 73.58 C9.33 71.57, 6.56 67.5, 4.08 60.24 C1.61 52.99, -3.07 38.22, -2.21 30.06 C-1.35 21.89, 5.67 16.17, 9.25 11.26 C12.83 6.36, 17.72 2.67, 19.28 0.64 C20.84 -1.4, 18.74 -1.2, 18.61 -0.94" stroke="transparent" stroke-width="1" fill="none"></path></g></svg>